G75*
%MOIN*%
%OFA0B0*%
%FSLAX25Y25*%
%IPPOS*%
%LPD*%
%AMOC8*
5,1,8,0,0,1.08239X$1,22.5*
%
%ADD10C,0.01600*%
%ADD11C,0.00000*%
D10*
X0029642Y0013894D02*
X0110744Y0013894D01*
X0110744Y0019406D01*
X0129642Y0019406D01*
X0129642Y0013894D01*
X0210744Y0013894D01*
X0211125Y0013899D01*
X0211505Y0013912D01*
X0211885Y0013935D01*
X0212264Y0013968D01*
X0212642Y0014009D01*
X0213019Y0014059D01*
X0213395Y0014119D01*
X0213770Y0014187D01*
X0214142Y0014265D01*
X0214513Y0014352D01*
X0214881Y0014447D01*
X0215247Y0014552D01*
X0215610Y0014665D01*
X0215971Y0014787D01*
X0216328Y0014917D01*
X0216682Y0015057D01*
X0217033Y0015204D01*
X0217380Y0015361D01*
X0217723Y0015525D01*
X0218062Y0015698D01*
X0218397Y0015879D01*
X0218728Y0016068D01*
X0219053Y0016265D01*
X0219374Y0016469D01*
X0219690Y0016682D01*
X0220000Y0016902D01*
X0220306Y0017129D01*
X0220605Y0017364D01*
X0220899Y0017606D01*
X0221187Y0017854D01*
X0221469Y0018110D01*
X0221744Y0018373D01*
X0222013Y0018642D01*
X0222276Y0018917D01*
X0222532Y0019199D01*
X0222780Y0019487D01*
X0223022Y0019781D01*
X0223257Y0020080D01*
X0223484Y0020386D01*
X0223704Y0020696D01*
X0223917Y0021012D01*
X0224121Y0021333D01*
X0224318Y0021658D01*
X0224507Y0021989D01*
X0224688Y0022324D01*
X0224861Y0022663D01*
X0225025Y0023006D01*
X0225182Y0023353D01*
X0225329Y0023704D01*
X0225469Y0024058D01*
X0225599Y0024415D01*
X0225721Y0024776D01*
X0225834Y0025139D01*
X0225939Y0025505D01*
X0226034Y0025873D01*
X0226121Y0026244D01*
X0226199Y0026616D01*
X0226267Y0026991D01*
X0226327Y0027367D01*
X0226377Y0027744D01*
X0226418Y0028122D01*
X0226451Y0028501D01*
X0226474Y0028881D01*
X0226487Y0029261D01*
X0226492Y0029642D01*
X0226492Y0151689D01*
X0226487Y0152070D01*
X0226474Y0152450D01*
X0226451Y0152830D01*
X0226418Y0153209D01*
X0226377Y0153587D01*
X0226327Y0153964D01*
X0226267Y0154340D01*
X0226199Y0154715D01*
X0226121Y0155087D01*
X0226034Y0155458D01*
X0225939Y0155826D01*
X0225834Y0156192D01*
X0225721Y0156555D01*
X0225599Y0156916D01*
X0225469Y0157273D01*
X0225329Y0157627D01*
X0225182Y0157978D01*
X0225025Y0158325D01*
X0224861Y0158668D01*
X0224688Y0159007D01*
X0224507Y0159342D01*
X0224318Y0159673D01*
X0224121Y0159998D01*
X0223917Y0160319D01*
X0223704Y0160635D01*
X0223484Y0160945D01*
X0223257Y0161251D01*
X0223022Y0161550D01*
X0222780Y0161844D01*
X0222532Y0162132D01*
X0222276Y0162414D01*
X0222013Y0162689D01*
X0221744Y0162958D01*
X0221469Y0163221D01*
X0221187Y0163477D01*
X0220899Y0163725D01*
X0220605Y0163967D01*
X0220306Y0164202D01*
X0220000Y0164429D01*
X0219690Y0164649D01*
X0219374Y0164862D01*
X0219053Y0165066D01*
X0218728Y0165263D01*
X0218397Y0165452D01*
X0218062Y0165633D01*
X0217723Y0165806D01*
X0217380Y0165970D01*
X0217033Y0166127D01*
X0216682Y0166274D01*
X0216328Y0166414D01*
X0215971Y0166544D01*
X0215610Y0166666D01*
X0215247Y0166779D01*
X0214881Y0166884D01*
X0214513Y0166979D01*
X0214142Y0167066D01*
X0213770Y0167144D01*
X0213395Y0167212D01*
X0213019Y0167272D01*
X0212642Y0167322D01*
X0212264Y0167363D01*
X0211885Y0167396D01*
X0211505Y0167419D01*
X0211125Y0167432D01*
X0210744Y0167437D01*
X0029642Y0167437D01*
X0029261Y0167432D01*
X0028881Y0167419D01*
X0028501Y0167396D01*
X0028122Y0167363D01*
X0027744Y0167322D01*
X0027367Y0167272D01*
X0026991Y0167212D01*
X0026616Y0167144D01*
X0026244Y0167066D01*
X0025873Y0166979D01*
X0025505Y0166884D01*
X0025139Y0166779D01*
X0024776Y0166666D01*
X0024415Y0166544D01*
X0024058Y0166414D01*
X0023704Y0166274D01*
X0023353Y0166127D01*
X0023006Y0165970D01*
X0022663Y0165806D01*
X0022324Y0165633D01*
X0021989Y0165452D01*
X0021658Y0165263D01*
X0021333Y0165066D01*
X0021012Y0164862D01*
X0020696Y0164649D01*
X0020386Y0164429D01*
X0020080Y0164202D01*
X0019781Y0163967D01*
X0019487Y0163725D01*
X0019199Y0163477D01*
X0018917Y0163221D01*
X0018642Y0162958D01*
X0018373Y0162689D01*
X0018110Y0162414D01*
X0017854Y0162132D01*
X0017606Y0161844D01*
X0017364Y0161550D01*
X0017129Y0161251D01*
X0016902Y0160945D01*
X0016682Y0160635D01*
X0016469Y0160319D01*
X0016265Y0159998D01*
X0016068Y0159673D01*
X0015879Y0159342D01*
X0015698Y0159007D01*
X0015525Y0158668D01*
X0015361Y0158325D01*
X0015204Y0157978D01*
X0015057Y0157627D01*
X0014917Y0157273D01*
X0014787Y0156916D01*
X0014665Y0156555D01*
X0014552Y0156192D01*
X0014447Y0155826D01*
X0014352Y0155458D01*
X0014265Y0155087D01*
X0014187Y0154715D01*
X0014119Y0154340D01*
X0014059Y0153964D01*
X0014009Y0153587D01*
X0013968Y0153209D01*
X0013935Y0152830D01*
X0013912Y0152450D01*
X0013899Y0152070D01*
X0013894Y0151689D01*
X0013894Y0029642D01*
X0013899Y0029261D01*
X0013912Y0028881D01*
X0013935Y0028501D01*
X0013968Y0028122D01*
X0014009Y0027744D01*
X0014059Y0027367D01*
X0014119Y0026991D01*
X0014187Y0026616D01*
X0014265Y0026244D01*
X0014352Y0025873D01*
X0014447Y0025505D01*
X0014552Y0025139D01*
X0014665Y0024776D01*
X0014787Y0024415D01*
X0014917Y0024058D01*
X0015057Y0023704D01*
X0015204Y0023353D01*
X0015361Y0023006D01*
X0015525Y0022663D01*
X0015698Y0022324D01*
X0015879Y0021989D01*
X0016068Y0021658D01*
X0016265Y0021333D01*
X0016469Y0021012D01*
X0016682Y0020696D01*
X0016902Y0020386D01*
X0017129Y0020080D01*
X0017364Y0019781D01*
X0017606Y0019487D01*
X0017854Y0019199D01*
X0018110Y0018917D01*
X0018373Y0018642D01*
X0018642Y0018373D01*
X0018917Y0018110D01*
X0019199Y0017854D01*
X0019487Y0017606D01*
X0019781Y0017364D01*
X0020080Y0017129D01*
X0020386Y0016902D01*
X0020696Y0016682D01*
X0021012Y0016469D01*
X0021333Y0016265D01*
X0021658Y0016068D01*
X0021989Y0015879D01*
X0022324Y0015698D01*
X0022663Y0015525D01*
X0023006Y0015361D01*
X0023353Y0015204D01*
X0023704Y0015057D01*
X0024058Y0014917D01*
X0024415Y0014787D01*
X0024776Y0014665D01*
X0025139Y0014552D01*
X0025505Y0014447D01*
X0025873Y0014352D01*
X0026244Y0014265D01*
X0026616Y0014187D01*
X0026991Y0014119D01*
X0027367Y0014059D01*
X0027744Y0014009D01*
X0028122Y0013968D01*
X0028501Y0013935D01*
X0028881Y0013912D01*
X0029261Y0013899D01*
X0029642Y0013894D01*
D11*
X0023142Y0029642D02*
X0023144Y0029803D01*
X0023150Y0029963D01*
X0023160Y0030124D01*
X0023174Y0030284D01*
X0023192Y0030444D01*
X0023213Y0030603D01*
X0023239Y0030762D01*
X0023269Y0030920D01*
X0023302Y0031077D01*
X0023340Y0031234D01*
X0023381Y0031389D01*
X0023426Y0031543D01*
X0023475Y0031696D01*
X0023528Y0031848D01*
X0023584Y0031999D01*
X0023645Y0032148D01*
X0023708Y0032296D01*
X0023776Y0032442D01*
X0023847Y0032586D01*
X0023921Y0032728D01*
X0023999Y0032869D01*
X0024081Y0033007D01*
X0024166Y0033144D01*
X0024254Y0033278D01*
X0024346Y0033410D01*
X0024441Y0033540D01*
X0024539Y0033668D01*
X0024640Y0033793D01*
X0024744Y0033915D01*
X0024851Y0034035D01*
X0024961Y0034152D01*
X0025074Y0034267D01*
X0025190Y0034378D01*
X0025309Y0034487D01*
X0025430Y0034592D01*
X0025554Y0034695D01*
X0025680Y0034795D01*
X0025808Y0034891D01*
X0025939Y0034984D01*
X0026073Y0035074D01*
X0026208Y0035161D01*
X0026346Y0035244D01*
X0026485Y0035324D01*
X0026627Y0035400D01*
X0026770Y0035473D01*
X0026915Y0035542D01*
X0027062Y0035608D01*
X0027210Y0035670D01*
X0027360Y0035728D01*
X0027511Y0035783D01*
X0027664Y0035834D01*
X0027818Y0035881D01*
X0027973Y0035924D01*
X0028129Y0035963D01*
X0028285Y0035999D01*
X0028443Y0036030D01*
X0028601Y0036058D01*
X0028760Y0036082D01*
X0028920Y0036102D01*
X0029080Y0036118D01*
X0029240Y0036130D01*
X0029401Y0036138D01*
X0029562Y0036142D01*
X0029722Y0036142D01*
X0029883Y0036138D01*
X0030044Y0036130D01*
X0030204Y0036118D01*
X0030364Y0036102D01*
X0030524Y0036082D01*
X0030683Y0036058D01*
X0030841Y0036030D01*
X0030999Y0035999D01*
X0031155Y0035963D01*
X0031311Y0035924D01*
X0031466Y0035881D01*
X0031620Y0035834D01*
X0031773Y0035783D01*
X0031924Y0035728D01*
X0032074Y0035670D01*
X0032222Y0035608D01*
X0032369Y0035542D01*
X0032514Y0035473D01*
X0032657Y0035400D01*
X0032799Y0035324D01*
X0032938Y0035244D01*
X0033076Y0035161D01*
X0033211Y0035074D01*
X0033345Y0034984D01*
X0033476Y0034891D01*
X0033604Y0034795D01*
X0033730Y0034695D01*
X0033854Y0034592D01*
X0033975Y0034487D01*
X0034094Y0034378D01*
X0034210Y0034267D01*
X0034323Y0034152D01*
X0034433Y0034035D01*
X0034540Y0033915D01*
X0034644Y0033793D01*
X0034745Y0033668D01*
X0034843Y0033540D01*
X0034938Y0033410D01*
X0035030Y0033278D01*
X0035118Y0033144D01*
X0035203Y0033007D01*
X0035285Y0032869D01*
X0035363Y0032728D01*
X0035437Y0032586D01*
X0035508Y0032442D01*
X0035576Y0032296D01*
X0035639Y0032148D01*
X0035700Y0031999D01*
X0035756Y0031848D01*
X0035809Y0031696D01*
X0035858Y0031543D01*
X0035903Y0031389D01*
X0035944Y0031234D01*
X0035982Y0031077D01*
X0036015Y0030920D01*
X0036045Y0030762D01*
X0036071Y0030603D01*
X0036092Y0030444D01*
X0036110Y0030284D01*
X0036124Y0030124D01*
X0036134Y0029963D01*
X0036140Y0029803D01*
X0036142Y0029642D01*
X0036140Y0029481D01*
X0036134Y0029321D01*
X0036124Y0029160D01*
X0036110Y0029000D01*
X0036092Y0028840D01*
X0036071Y0028681D01*
X0036045Y0028522D01*
X0036015Y0028364D01*
X0035982Y0028207D01*
X0035944Y0028050D01*
X0035903Y0027895D01*
X0035858Y0027741D01*
X0035809Y0027588D01*
X0035756Y0027436D01*
X0035700Y0027285D01*
X0035639Y0027136D01*
X0035576Y0026988D01*
X0035508Y0026842D01*
X0035437Y0026698D01*
X0035363Y0026556D01*
X0035285Y0026415D01*
X0035203Y0026277D01*
X0035118Y0026140D01*
X0035030Y0026006D01*
X0034938Y0025874D01*
X0034843Y0025744D01*
X0034745Y0025616D01*
X0034644Y0025491D01*
X0034540Y0025369D01*
X0034433Y0025249D01*
X0034323Y0025132D01*
X0034210Y0025017D01*
X0034094Y0024906D01*
X0033975Y0024797D01*
X0033854Y0024692D01*
X0033730Y0024589D01*
X0033604Y0024489D01*
X0033476Y0024393D01*
X0033345Y0024300D01*
X0033211Y0024210D01*
X0033076Y0024123D01*
X0032938Y0024040D01*
X0032799Y0023960D01*
X0032657Y0023884D01*
X0032514Y0023811D01*
X0032369Y0023742D01*
X0032222Y0023676D01*
X0032074Y0023614D01*
X0031924Y0023556D01*
X0031773Y0023501D01*
X0031620Y0023450D01*
X0031466Y0023403D01*
X0031311Y0023360D01*
X0031155Y0023321D01*
X0030999Y0023285D01*
X0030841Y0023254D01*
X0030683Y0023226D01*
X0030524Y0023202D01*
X0030364Y0023182D01*
X0030204Y0023166D01*
X0030044Y0023154D01*
X0029883Y0023146D01*
X0029722Y0023142D01*
X0029562Y0023142D01*
X0029401Y0023146D01*
X0029240Y0023154D01*
X0029080Y0023166D01*
X0028920Y0023182D01*
X0028760Y0023202D01*
X0028601Y0023226D01*
X0028443Y0023254D01*
X0028285Y0023285D01*
X0028129Y0023321D01*
X0027973Y0023360D01*
X0027818Y0023403D01*
X0027664Y0023450D01*
X0027511Y0023501D01*
X0027360Y0023556D01*
X0027210Y0023614D01*
X0027062Y0023676D01*
X0026915Y0023742D01*
X0026770Y0023811D01*
X0026627Y0023884D01*
X0026485Y0023960D01*
X0026346Y0024040D01*
X0026208Y0024123D01*
X0026073Y0024210D01*
X0025939Y0024300D01*
X0025808Y0024393D01*
X0025680Y0024489D01*
X0025554Y0024589D01*
X0025430Y0024692D01*
X0025309Y0024797D01*
X0025190Y0024906D01*
X0025074Y0025017D01*
X0024961Y0025132D01*
X0024851Y0025249D01*
X0024744Y0025369D01*
X0024640Y0025491D01*
X0024539Y0025616D01*
X0024441Y0025744D01*
X0024346Y0025874D01*
X0024254Y0026006D01*
X0024166Y0026140D01*
X0024081Y0026277D01*
X0023999Y0026415D01*
X0023921Y0026556D01*
X0023847Y0026698D01*
X0023776Y0026842D01*
X0023708Y0026988D01*
X0023645Y0027136D01*
X0023584Y0027285D01*
X0023528Y0027436D01*
X0023475Y0027588D01*
X0023426Y0027741D01*
X0023381Y0027895D01*
X0023340Y0028050D01*
X0023302Y0028207D01*
X0023269Y0028364D01*
X0023239Y0028522D01*
X0023213Y0028681D01*
X0023192Y0028840D01*
X0023174Y0029000D01*
X0023160Y0029160D01*
X0023150Y0029321D01*
X0023144Y0029481D01*
X0023142Y0029642D01*
X0118028Y0025311D02*
X0118030Y0025404D01*
X0118036Y0025496D01*
X0118046Y0025588D01*
X0118060Y0025679D01*
X0118077Y0025770D01*
X0118099Y0025860D01*
X0118124Y0025949D01*
X0118153Y0026037D01*
X0118186Y0026123D01*
X0118223Y0026208D01*
X0118263Y0026292D01*
X0118307Y0026373D01*
X0118354Y0026453D01*
X0118404Y0026531D01*
X0118458Y0026606D01*
X0118515Y0026679D01*
X0118575Y0026749D01*
X0118638Y0026817D01*
X0118704Y0026882D01*
X0118772Y0026944D01*
X0118843Y0027004D01*
X0118917Y0027060D01*
X0118993Y0027113D01*
X0119071Y0027162D01*
X0119151Y0027209D01*
X0119233Y0027251D01*
X0119317Y0027291D01*
X0119402Y0027326D01*
X0119489Y0027358D01*
X0119577Y0027387D01*
X0119666Y0027411D01*
X0119756Y0027432D01*
X0119847Y0027448D01*
X0119939Y0027461D01*
X0120031Y0027470D01*
X0120124Y0027475D01*
X0120216Y0027476D01*
X0120309Y0027473D01*
X0120401Y0027466D01*
X0120493Y0027455D01*
X0120584Y0027440D01*
X0120675Y0027422D01*
X0120765Y0027399D01*
X0120853Y0027373D01*
X0120941Y0027343D01*
X0121027Y0027309D01*
X0121111Y0027272D01*
X0121194Y0027230D01*
X0121275Y0027186D01*
X0121355Y0027138D01*
X0121432Y0027087D01*
X0121506Y0027032D01*
X0121579Y0026974D01*
X0121649Y0026914D01*
X0121716Y0026850D01*
X0121780Y0026784D01*
X0121842Y0026714D01*
X0121900Y0026643D01*
X0121955Y0026569D01*
X0122007Y0026492D01*
X0122056Y0026413D01*
X0122102Y0026333D01*
X0122144Y0026250D01*
X0122182Y0026166D01*
X0122217Y0026080D01*
X0122248Y0025993D01*
X0122275Y0025905D01*
X0122298Y0025815D01*
X0122318Y0025725D01*
X0122334Y0025634D01*
X0122346Y0025542D01*
X0122354Y0025450D01*
X0122358Y0025357D01*
X0122358Y0025265D01*
X0122354Y0025172D01*
X0122346Y0025080D01*
X0122334Y0024988D01*
X0122318Y0024897D01*
X0122298Y0024807D01*
X0122275Y0024717D01*
X0122248Y0024629D01*
X0122217Y0024542D01*
X0122182Y0024456D01*
X0122144Y0024372D01*
X0122102Y0024289D01*
X0122056Y0024209D01*
X0122007Y0024130D01*
X0121955Y0024053D01*
X0121900Y0023979D01*
X0121842Y0023908D01*
X0121780Y0023838D01*
X0121716Y0023772D01*
X0121649Y0023708D01*
X0121579Y0023648D01*
X0121506Y0023590D01*
X0121432Y0023535D01*
X0121355Y0023484D01*
X0121276Y0023436D01*
X0121194Y0023392D01*
X0121111Y0023350D01*
X0121027Y0023313D01*
X0120941Y0023279D01*
X0120853Y0023249D01*
X0120765Y0023223D01*
X0120675Y0023200D01*
X0120584Y0023182D01*
X0120493Y0023167D01*
X0120401Y0023156D01*
X0120309Y0023149D01*
X0120216Y0023146D01*
X0120124Y0023147D01*
X0120031Y0023152D01*
X0119939Y0023161D01*
X0119847Y0023174D01*
X0119756Y0023190D01*
X0119666Y0023211D01*
X0119577Y0023235D01*
X0119489Y0023264D01*
X0119402Y0023296D01*
X0119317Y0023331D01*
X0119233Y0023371D01*
X0119151Y0023413D01*
X0119071Y0023460D01*
X0118993Y0023509D01*
X0118917Y0023562D01*
X0118843Y0023618D01*
X0118772Y0023678D01*
X0118704Y0023740D01*
X0118638Y0023805D01*
X0118575Y0023873D01*
X0118515Y0023943D01*
X0118458Y0024016D01*
X0118404Y0024091D01*
X0118354Y0024169D01*
X0118307Y0024249D01*
X0118263Y0024330D01*
X0118223Y0024414D01*
X0118186Y0024499D01*
X0118153Y0024585D01*
X0118124Y0024673D01*
X0118099Y0024762D01*
X0118077Y0024852D01*
X0118060Y0024943D01*
X0118046Y0025034D01*
X0118036Y0025126D01*
X0118030Y0025218D01*
X0118028Y0025311D01*
X0118028Y0044996D02*
X0118030Y0045089D01*
X0118036Y0045181D01*
X0118046Y0045273D01*
X0118060Y0045364D01*
X0118077Y0045455D01*
X0118099Y0045545D01*
X0118124Y0045634D01*
X0118153Y0045722D01*
X0118186Y0045808D01*
X0118223Y0045893D01*
X0118263Y0045977D01*
X0118307Y0046058D01*
X0118354Y0046138D01*
X0118404Y0046216D01*
X0118458Y0046291D01*
X0118515Y0046364D01*
X0118575Y0046434D01*
X0118638Y0046502D01*
X0118704Y0046567D01*
X0118772Y0046629D01*
X0118843Y0046689D01*
X0118917Y0046745D01*
X0118993Y0046798D01*
X0119071Y0046847D01*
X0119151Y0046894D01*
X0119233Y0046936D01*
X0119317Y0046976D01*
X0119402Y0047011D01*
X0119489Y0047043D01*
X0119577Y0047072D01*
X0119666Y0047096D01*
X0119756Y0047117D01*
X0119847Y0047133D01*
X0119939Y0047146D01*
X0120031Y0047155D01*
X0120124Y0047160D01*
X0120216Y0047161D01*
X0120309Y0047158D01*
X0120401Y0047151D01*
X0120493Y0047140D01*
X0120584Y0047125D01*
X0120675Y0047107D01*
X0120765Y0047084D01*
X0120853Y0047058D01*
X0120941Y0047028D01*
X0121027Y0046994D01*
X0121111Y0046957D01*
X0121194Y0046915D01*
X0121275Y0046871D01*
X0121355Y0046823D01*
X0121432Y0046772D01*
X0121506Y0046717D01*
X0121579Y0046659D01*
X0121649Y0046599D01*
X0121716Y0046535D01*
X0121780Y0046469D01*
X0121842Y0046399D01*
X0121900Y0046328D01*
X0121955Y0046254D01*
X0122007Y0046177D01*
X0122056Y0046098D01*
X0122102Y0046018D01*
X0122144Y0045935D01*
X0122182Y0045851D01*
X0122217Y0045765D01*
X0122248Y0045678D01*
X0122275Y0045590D01*
X0122298Y0045500D01*
X0122318Y0045410D01*
X0122334Y0045319D01*
X0122346Y0045227D01*
X0122354Y0045135D01*
X0122358Y0045042D01*
X0122358Y0044950D01*
X0122354Y0044857D01*
X0122346Y0044765D01*
X0122334Y0044673D01*
X0122318Y0044582D01*
X0122298Y0044492D01*
X0122275Y0044402D01*
X0122248Y0044314D01*
X0122217Y0044227D01*
X0122182Y0044141D01*
X0122144Y0044057D01*
X0122102Y0043974D01*
X0122056Y0043894D01*
X0122007Y0043815D01*
X0121955Y0043738D01*
X0121900Y0043664D01*
X0121842Y0043593D01*
X0121780Y0043523D01*
X0121716Y0043457D01*
X0121649Y0043393D01*
X0121579Y0043333D01*
X0121506Y0043275D01*
X0121432Y0043220D01*
X0121355Y0043169D01*
X0121276Y0043121D01*
X0121194Y0043077D01*
X0121111Y0043035D01*
X0121027Y0042998D01*
X0120941Y0042964D01*
X0120853Y0042934D01*
X0120765Y0042908D01*
X0120675Y0042885D01*
X0120584Y0042867D01*
X0120493Y0042852D01*
X0120401Y0042841D01*
X0120309Y0042834D01*
X0120216Y0042831D01*
X0120124Y0042832D01*
X0120031Y0042837D01*
X0119939Y0042846D01*
X0119847Y0042859D01*
X0119756Y0042875D01*
X0119666Y0042896D01*
X0119577Y0042920D01*
X0119489Y0042949D01*
X0119402Y0042981D01*
X0119317Y0043016D01*
X0119233Y0043056D01*
X0119151Y0043098D01*
X0119071Y0043145D01*
X0118993Y0043194D01*
X0118917Y0043247D01*
X0118843Y0043303D01*
X0118772Y0043363D01*
X0118704Y0043425D01*
X0118638Y0043490D01*
X0118575Y0043558D01*
X0118515Y0043628D01*
X0118458Y0043701D01*
X0118404Y0043776D01*
X0118354Y0043854D01*
X0118307Y0043934D01*
X0118263Y0044015D01*
X0118223Y0044099D01*
X0118186Y0044184D01*
X0118153Y0044270D01*
X0118124Y0044358D01*
X0118099Y0044447D01*
X0118077Y0044537D01*
X0118060Y0044628D01*
X0118046Y0044719D01*
X0118036Y0044811D01*
X0118030Y0044903D01*
X0118028Y0044996D01*
X0204244Y0029642D02*
X0204246Y0029803D01*
X0204252Y0029963D01*
X0204262Y0030124D01*
X0204276Y0030284D01*
X0204294Y0030444D01*
X0204315Y0030603D01*
X0204341Y0030762D01*
X0204371Y0030920D01*
X0204404Y0031077D01*
X0204442Y0031234D01*
X0204483Y0031389D01*
X0204528Y0031543D01*
X0204577Y0031696D01*
X0204630Y0031848D01*
X0204686Y0031999D01*
X0204747Y0032148D01*
X0204810Y0032296D01*
X0204878Y0032442D01*
X0204949Y0032586D01*
X0205023Y0032728D01*
X0205101Y0032869D01*
X0205183Y0033007D01*
X0205268Y0033144D01*
X0205356Y0033278D01*
X0205448Y0033410D01*
X0205543Y0033540D01*
X0205641Y0033668D01*
X0205742Y0033793D01*
X0205846Y0033915D01*
X0205953Y0034035D01*
X0206063Y0034152D01*
X0206176Y0034267D01*
X0206292Y0034378D01*
X0206411Y0034487D01*
X0206532Y0034592D01*
X0206656Y0034695D01*
X0206782Y0034795D01*
X0206910Y0034891D01*
X0207041Y0034984D01*
X0207175Y0035074D01*
X0207310Y0035161D01*
X0207448Y0035244D01*
X0207587Y0035324D01*
X0207729Y0035400D01*
X0207872Y0035473D01*
X0208017Y0035542D01*
X0208164Y0035608D01*
X0208312Y0035670D01*
X0208462Y0035728D01*
X0208613Y0035783D01*
X0208766Y0035834D01*
X0208920Y0035881D01*
X0209075Y0035924D01*
X0209231Y0035963D01*
X0209387Y0035999D01*
X0209545Y0036030D01*
X0209703Y0036058D01*
X0209862Y0036082D01*
X0210022Y0036102D01*
X0210182Y0036118D01*
X0210342Y0036130D01*
X0210503Y0036138D01*
X0210664Y0036142D01*
X0210824Y0036142D01*
X0210985Y0036138D01*
X0211146Y0036130D01*
X0211306Y0036118D01*
X0211466Y0036102D01*
X0211626Y0036082D01*
X0211785Y0036058D01*
X0211943Y0036030D01*
X0212101Y0035999D01*
X0212257Y0035963D01*
X0212413Y0035924D01*
X0212568Y0035881D01*
X0212722Y0035834D01*
X0212875Y0035783D01*
X0213026Y0035728D01*
X0213176Y0035670D01*
X0213324Y0035608D01*
X0213471Y0035542D01*
X0213616Y0035473D01*
X0213759Y0035400D01*
X0213901Y0035324D01*
X0214040Y0035244D01*
X0214178Y0035161D01*
X0214313Y0035074D01*
X0214447Y0034984D01*
X0214578Y0034891D01*
X0214706Y0034795D01*
X0214832Y0034695D01*
X0214956Y0034592D01*
X0215077Y0034487D01*
X0215196Y0034378D01*
X0215312Y0034267D01*
X0215425Y0034152D01*
X0215535Y0034035D01*
X0215642Y0033915D01*
X0215746Y0033793D01*
X0215847Y0033668D01*
X0215945Y0033540D01*
X0216040Y0033410D01*
X0216132Y0033278D01*
X0216220Y0033144D01*
X0216305Y0033007D01*
X0216387Y0032869D01*
X0216465Y0032728D01*
X0216539Y0032586D01*
X0216610Y0032442D01*
X0216678Y0032296D01*
X0216741Y0032148D01*
X0216802Y0031999D01*
X0216858Y0031848D01*
X0216911Y0031696D01*
X0216960Y0031543D01*
X0217005Y0031389D01*
X0217046Y0031234D01*
X0217084Y0031077D01*
X0217117Y0030920D01*
X0217147Y0030762D01*
X0217173Y0030603D01*
X0217194Y0030444D01*
X0217212Y0030284D01*
X0217226Y0030124D01*
X0217236Y0029963D01*
X0217242Y0029803D01*
X0217244Y0029642D01*
X0217242Y0029481D01*
X0217236Y0029321D01*
X0217226Y0029160D01*
X0217212Y0029000D01*
X0217194Y0028840D01*
X0217173Y0028681D01*
X0217147Y0028522D01*
X0217117Y0028364D01*
X0217084Y0028207D01*
X0217046Y0028050D01*
X0217005Y0027895D01*
X0216960Y0027741D01*
X0216911Y0027588D01*
X0216858Y0027436D01*
X0216802Y0027285D01*
X0216741Y0027136D01*
X0216678Y0026988D01*
X0216610Y0026842D01*
X0216539Y0026698D01*
X0216465Y0026556D01*
X0216387Y0026415D01*
X0216305Y0026277D01*
X0216220Y0026140D01*
X0216132Y0026006D01*
X0216040Y0025874D01*
X0215945Y0025744D01*
X0215847Y0025616D01*
X0215746Y0025491D01*
X0215642Y0025369D01*
X0215535Y0025249D01*
X0215425Y0025132D01*
X0215312Y0025017D01*
X0215196Y0024906D01*
X0215077Y0024797D01*
X0214956Y0024692D01*
X0214832Y0024589D01*
X0214706Y0024489D01*
X0214578Y0024393D01*
X0214447Y0024300D01*
X0214313Y0024210D01*
X0214178Y0024123D01*
X0214040Y0024040D01*
X0213901Y0023960D01*
X0213759Y0023884D01*
X0213616Y0023811D01*
X0213471Y0023742D01*
X0213324Y0023676D01*
X0213176Y0023614D01*
X0213026Y0023556D01*
X0212875Y0023501D01*
X0212722Y0023450D01*
X0212568Y0023403D01*
X0212413Y0023360D01*
X0212257Y0023321D01*
X0212101Y0023285D01*
X0211943Y0023254D01*
X0211785Y0023226D01*
X0211626Y0023202D01*
X0211466Y0023182D01*
X0211306Y0023166D01*
X0211146Y0023154D01*
X0210985Y0023146D01*
X0210824Y0023142D01*
X0210664Y0023142D01*
X0210503Y0023146D01*
X0210342Y0023154D01*
X0210182Y0023166D01*
X0210022Y0023182D01*
X0209862Y0023202D01*
X0209703Y0023226D01*
X0209545Y0023254D01*
X0209387Y0023285D01*
X0209231Y0023321D01*
X0209075Y0023360D01*
X0208920Y0023403D01*
X0208766Y0023450D01*
X0208613Y0023501D01*
X0208462Y0023556D01*
X0208312Y0023614D01*
X0208164Y0023676D01*
X0208017Y0023742D01*
X0207872Y0023811D01*
X0207729Y0023884D01*
X0207587Y0023960D01*
X0207448Y0024040D01*
X0207310Y0024123D01*
X0207175Y0024210D01*
X0207041Y0024300D01*
X0206910Y0024393D01*
X0206782Y0024489D01*
X0206656Y0024589D01*
X0206532Y0024692D01*
X0206411Y0024797D01*
X0206292Y0024906D01*
X0206176Y0025017D01*
X0206063Y0025132D01*
X0205953Y0025249D01*
X0205846Y0025369D01*
X0205742Y0025491D01*
X0205641Y0025616D01*
X0205543Y0025744D01*
X0205448Y0025874D01*
X0205356Y0026006D01*
X0205268Y0026140D01*
X0205183Y0026277D01*
X0205101Y0026415D01*
X0205023Y0026556D01*
X0204949Y0026698D01*
X0204878Y0026842D01*
X0204810Y0026988D01*
X0204747Y0027136D01*
X0204686Y0027285D01*
X0204630Y0027436D01*
X0204577Y0027588D01*
X0204528Y0027741D01*
X0204483Y0027895D01*
X0204442Y0028050D01*
X0204404Y0028207D01*
X0204371Y0028364D01*
X0204341Y0028522D01*
X0204315Y0028681D01*
X0204294Y0028840D01*
X0204276Y0029000D01*
X0204262Y0029160D01*
X0204252Y0029321D01*
X0204246Y0029481D01*
X0204244Y0029642D01*
X0204244Y0151689D02*
X0204246Y0151850D01*
X0204252Y0152010D01*
X0204262Y0152171D01*
X0204276Y0152331D01*
X0204294Y0152491D01*
X0204315Y0152650D01*
X0204341Y0152809D01*
X0204371Y0152967D01*
X0204404Y0153124D01*
X0204442Y0153281D01*
X0204483Y0153436D01*
X0204528Y0153590D01*
X0204577Y0153743D01*
X0204630Y0153895D01*
X0204686Y0154046D01*
X0204747Y0154195D01*
X0204810Y0154343D01*
X0204878Y0154489D01*
X0204949Y0154633D01*
X0205023Y0154775D01*
X0205101Y0154916D01*
X0205183Y0155054D01*
X0205268Y0155191D01*
X0205356Y0155325D01*
X0205448Y0155457D01*
X0205543Y0155587D01*
X0205641Y0155715D01*
X0205742Y0155840D01*
X0205846Y0155962D01*
X0205953Y0156082D01*
X0206063Y0156199D01*
X0206176Y0156314D01*
X0206292Y0156425D01*
X0206411Y0156534D01*
X0206532Y0156639D01*
X0206656Y0156742D01*
X0206782Y0156842D01*
X0206910Y0156938D01*
X0207041Y0157031D01*
X0207175Y0157121D01*
X0207310Y0157208D01*
X0207448Y0157291D01*
X0207587Y0157371D01*
X0207729Y0157447D01*
X0207872Y0157520D01*
X0208017Y0157589D01*
X0208164Y0157655D01*
X0208312Y0157717D01*
X0208462Y0157775D01*
X0208613Y0157830D01*
X0208766Y0157881D01*
X0208920Y0157928D01*
X0209075Y0157971D01*
X0209231Y0158010D01*
X0209387Y0158046D01*
X0209545Y0158077D01*
X0209703Y0158105D01*
X0209862Y0158129D01*
X0210022Y0158149D01*
X0210182Y0158165D01*
X0210342Y0158177D01*
X0210503Y0158185D01*
X0210664Y0158189D01*
X0210824Y0158189D01*
X0210985Y0158185D01*
X0211146Y0158177D01*
X0211306Y0158165D01*
X0211466Y0158149D01*
X0211626Y0158129D01*
X0211785Y0158105D01*
X0211943Y0158077D01*
X0212101Y0158046D01*
X0212257Y0158010D01*
X0212413Y0157971D01*
X0212568Y0157928D01*
X0212722Y0157881D01*
X0212875Y0157830D01*
X0213026Y0157775D01*
X0213176Y0157717D01*
X0213324Y0157655D01*
X0213471Y0157589D01*
X0213616Y0157520D01*
X0213759Y0157447D01*
X0213901Y0157371D01*
X0214040Y0157291D01*
X0214178Y0157208D01*
X0214313Y0157121D01*
X0214447Y0157031D01*
X0214578Y0156938D01*
X0214706Y0156842D01*
X0214832Y0156742D01*
X0214956Y0156639D01*
X0215077Y0156534D01*
X0215196Y0156425D01*
X0215312Y0156314D01*
X0215425Y0156199D01*
X0215535Y0156082D01*
X0215642Y0155962D01*
X0215746Y0155840D01*
X0215847Y0155715D01*
X0215945Y0155587D01*
X0216040Y0155457D01*
X0216132Y0155325D01*
X0216220Y0155191D01*
X0216305Y0155054D01*
X0216387Y0154916D01*
X0216465Y0154775D01*
X0216539Y0154633D01*
X0216610Y0154489D01*
X0216678Y0154343D01*
X0216741Y0154195D01*
X0216802Y0154046D01*
X0216858Y0153895D01*
X0216911Y0153743D01*
X0216960Y0153590D01*
X0217005Y0153436D01*
X0217046Y0153281D01*
X0217084Y0153124D01*
X0217117Y0152967D01*
X0217147Y0152809D01*
X0217173Y0152650D01*
X0217194Y0152491D01*
X0217212Y0152331D01*
X0217226Y0152171D01*
X0217236Y0152010D01*
X0217242Y0151850D01*
X0217244Y0151689D01*
X0217242Y0151528D01*
X0217236Y0151368D01*
X0217226Y0151207D01*
X0217212Y0151047D01*
X0217194Y0150887D01*
X0217173Y0150728D01*
X0217147Y0150569D01*
X0217117Y0150411D01*
X0217084Y0150254D01*
X0217046Y0150097D01*
X0217005Y0149942D01*
X0216960Y0149788D01*
X0216911Y0149635D01*
X0216858Y0149483D01*
X0216802Y0149332D01*
X0216741Y0149183D01*
X0216678Y0149035D01*
X0216610Y0148889D01*
X0216539Y0148745D01*
X0216465Y0148603D01*
X0216387Y0148462D01*
X0216305Y0148324D01*
X0216220Y0148187D01*
X0216132Y0148053D01*
X0216040Y0147921D01*
X0215945Y0147791D01*
X0215847Y0147663D01*
X0215746Y0147538D01*
X0215642Y0147416D01*
X0215535Y0147296D01*
X0215425Y0147179D01*
X0215312Y0147064D01*
X0215196Y0146953D01*
X0215077Y0146844D01*
X0214956Y0146739D01*
X0214832Y0146636D01*
X0214706Y0146536D01*
X0214578Y0146440D01*
X0214447Y0146347D01*
X0214313Y0146257D01*
X0214178Y0146170D01*
X0214040Y0146087D01*
X0213901Y0146007D01*
X0213759Y0145931D01*
X0213616Y0145858D01*
X0213471Y0145789D01*
X0213324Y0145723D01*
X0213176Y0145661D01*
X0213026Y0145603D01*
X0212875Y0145548D01*
X0212722Y0145497D01*
X0212568Y0145450D01*
X0212413Y0145407D01*
X0212257Y0145368D01*
X0212101Y0145332D01*
X0211943Y0145301D01*
X0211785Y0145273D01*
X0211626Y0145249D01*
X0211466Y0145229D01*
X0211306Y0145213D01*
X0211146Y0145201D01*
X0210985Y0145193D01*
X0210824Y0145189D01*
X0210664Y0145189D01*
X0210503Y0145193D01*
X0210342Y0145201D01*
X0210182Y0145213D01*
X0210022Y0145229D01*
X0209862Y0145249D01*
X0209703Y0145273D01*
X0209545Y0145301D01*
X0209387Y0145332D01*
X0209231Y0145368D01*
X0209075Y0145407D01*
X0208920Y0145450D01*
X0208766Y0145497D01*
X0208613Y0145548D01*
X0208462Y0145603D01*
X0208312Y0145661D01*
X0208164Y0145723D01*
X0208017Y0145789D01*
X0207872Y0145858D01*
X0207729Y0145931D01*
X0207587Y0146007D01*
X0207448Y0146087D01*
X0207310Y0146170D01*
X0207175Y0146257D01*
X0207041Y0146347D01*
X0206910Y0146440D01*
X0206782Y0146536D01*
X0206656Y0146636D01*
X0206532Y0146739D01*
X0206411Y0146844D01*
X0206292Y0146953D01*
X0206176Y0147064D01*
X0206063Y0147179D01*
X0205953Y0147296D01*
X0205846Y0147416D01*
X0205742Y0147538D01*
X0205641Y0147663D01*
X0205543Y0147791D01*
X0205448Y0147921D01*
X0205356Y0148053D01*
X0205268Y0148187D01*
X0205183Y0148324D01*
X0205101Y0148462D01*
X0205023Y0148603D01*
X0204949Y0148745D01*
X0204878Y0148889D01*
X0204810Y0149035D01*
X0204747Y0149183D01*
X0204686Y0149332D01*
X0204630Y0149483D01*
X0204577Y0149635D01*
X0204528Y0149788D01*
X0204483Y0149942D01*
X0204442Y0150097D01*
X0204404Y0150254D01*
X0204371Y0150411D01*
X0204341Y0150569D01*
X0204315Y0150728D01*
X0204294Y0150887D01*
X0204276Y0151047D01*
X0204262Y0151207D01*
X0204252Y0151368D01*
X0204246Y0151528D01*
X0204244Y0151689D01*
X0023142Y0151689D02*
X0023144Y0151850D01*
X0023150Y0152010D01*
X0023160Y0152171D01*
X0023174Y0152331D01*
X0023192Y0152491D01*
X0023213Y0152650D01*
X0023239Y0152809D01*
X0023269Y0152967D01*
X0023302Y0153124D01*
X0023340Y0153281D01*
X0023381Y0153436D01*
X0023426Y0153590D01*
X0023475Y0153743D01*
X0023528Y0153895D01*
X0023584Y0154046D01*
X0023645Y0154195D01*
X0023708Y0154343D01*
X0023776Y0154489D01*
X0023847Y0154633D01*
X0023921Y0154775D01*
X0023999Y0154916D01*
X0024081Y0155054D01*
X0024166Y0155191D01*
X0024254Y0155325D01*
X0024346Y0155457D01*
X0024441Y0155587D01*
X0024539Y0155715D01*
X0024640Y0155840D01*
X0024744Y0155962D01*
X0024851Y0156082D01*
X0024961Y0156199D01*
X0025074Y0156314D01*
X0025190Y0156425D01*
X0025309Y0156534D01*
X0025430Y0156639D01*
X0025554Y0156742D01*
X0025680Y0156842D01*
X0025808Y0156938D01*
X0025939Y0157031D01*
X0026073Y0157121D01*
X0026208Y0157208D01*
X0026346Y0157291D01*
X0026485Y0157371D01*
X0026627Y0157447D01*
X0026770Y0157520D01*
X0026915Y0157589D01*
X0027062Y0157655D01*
X0027210Y0157717D01*
X0027360Y0157775D01*
X0027511Y0157830D01*
X0027664Y0157881D01*
X0027818Y0157928D01*
X0027973Y0157971D01*
X0028129Y0158010D01*
X0028285Y0158046D01*
X0028443Y0158077D01*
X0028601Y0158105D01*
X0028760Y0158129D01*
X0028920Y0158149D01*
X0029080Y0158165D01*
X0029240Y0158177D01*
X0029401Y0158185D01*
X0029562Y0158189D01*
X0029722Y0158189D01*
X0029883Y0158185D01*
X0030044Y0158177D01*
X0030204Y0158165D01*
X0030364Y0158149D01*
X0030524Y0158129D01*
X0030683Y0158105D01*
X0030841Y0158077D01*
X0030999Y0158046D01*
X0031155Y0158010D01*
X0031311Y0157971D01*
X0031466Y0157928D01*
X0031620Y0157881D01*
X0031773Y0157830D01*
X0031924Y0157775D01*
X0032074Y0157717D01*
X0032222Y0157655D01*
X0032369Y0157589D01*
X0032514Y0157520D01*
X0032657Y0157447D01*
X0032799Y0157371D01*
X0032938Y0157291D01*
X0033076Y0157208D01*
X0033211Y0157121D01*
X0033345Y0157031D01*
X0033476Y0156938D01*
X0033604Y0156842D01*
X0033730Y0156742D01*
X0033854Y0156639D01*
X0033975Y0156534D01*
X0034094Y0156425D01*
X0034210Y0156314D01*
X0034323Y0156199D01*
X0034433Y0156082D01*
X0034540Y0155962D01*
X0034644Y0155840D01*
X0034745Y0155715D01*
X0034843Y0155587D01*
X0034938Y0155457D01*
X0035030Y0155325D01*
X0035118Y0155191D01*
X0035203Y0155054D01*
X0035285Y0154916D01*
X0035363Y0154775D01*
X0035437Y0154633D01*
X0035508Y0154489D01*
X0035576Y0154343D01*
X0035639Y0154195D01*
X0035700Y0154046D01*
X0035756Y0153895D01*
X0035809Y0153743D01*
X0035858Y0153590D01*
X0035903Y0153436D01*
X0035944Y0153281D01*
X0035982Y0153124D01*
X0036015Y0152967D01*
X0036045Y0152809D01*
X0036071Y0152650D01*
X0036092Y0152491D01*
X0036110Y0152331D01*
X0036124Y0152171D01*
X0036134Y0152010D01*
X0036140Y0151850D01*
X0036142Y0151689D01*
X0036140Y0151528D01*
X0036134Y0151368D01*
X0036124Y0151207D01*
X0036110Y0151047D01*
X0036092Y0150887D01*
X0036071Y0150728D01*
X0036045Y0150569D01*
X0036015Y0150411D01*
X0035982Y0150254D01*
X0035944Y0150097D01*
X0035903Y0149942D01*
X0035858Y0149788D01*
X0035809Y0149635D01*
X0035756Y0149483D01*
X0035700Y0149332D01*
X0035639Y0149183D01*
X0035576Y0149035D01*
X0035508Y0148889D01*
X0035437Y0148745D01*
X0035363Y0148603D01*
X0035285Y0148462D01*
X0035203Y0148324D01*
X0035118Y0148187D01*
X0035030Y0148053D01*
X0034938Y0147921D01*
X0034843Y0147791D01*
X0034745Y0147663D01*
X0034644Y0147538D01*
X0034540Y0147416D01*
X0034433Y0147296D01*
X0034323Y0147179D01*
X0034210Y0147064D01*
X0034094Y0146953D01*
X0033975Y0146844D01*
X0033854Y0146739D01*
X0033730Y0146636D01*
X0033604Y0146536D01*
X0033476Y0146440D01*
X0033345Y0146347D01*
X0033211Y0146257D01*
X0033076Y0146170D01*
X0032938Y0146087D01*
X0032799Y0146007D01*
X0032657Y0145931D01*
X0032514Y0145858D01*
X0032369Y0145789D01*
X0032222Y0145723D01*
X0032074Y0145661D01*
X0031924Y0145603D01*
X0031773Y0145548D01*
X0031620Y0145497D01*
X0031466Y0145450D01*
X0031311Y0145407D01*
X0031155Y0145368D01*
X0030999Y0145332D01*
X0030841Y0145301D01*
X0030683Y0145273D01*
X0030524Y0145249D01*
X0030364Y0145229D01*
X0030204Y0145213D01*
X0030044Y0145201D01*
X0029883Y0145193D01*
X0029722Y0145189D01*
X0029562Y0145189D01*
X0029401Y0145193D01*
X0029240Y0145201D01*
X0029080Y0145213D01*
X0028920Y0145229D01*
X0028760Y0145249D01*
X0028601Y0145273D01*
X0028443Y0145301D01*
X0028285Y0145332D01*
X0028129Y0145368D01*
X0027973Y0145407D01*
X0027818Y0145450D01*
X0027664Y0145497D01*
X0027511Y0145548D01*
X0027360Y0145603D01*
X0027210Y0145661D01*
X0027062Y0145723D01*
X0026915Y0145789D01*
X0026770Y0145858D01*
X0026627Y0145931D01*
X0026485Y0146007D01*
X0026346Y0146087D01*
X0026208Y0146170D01*
X0026073Y0146257D01*
X0025939Y0146347D01*
X0025808Y0146440D01*
X0025680Y0146536D01*
X0025554Y0146636D01*
X0025430Y0146739D01*
X0025309Y0146844D01*
X0025190Y0146953D01*
X0025074Y0147064D01*
X0024961Y0147179D01*
X0024851Y0147296D01*
X0024744Y0147416D01*
X0024640Y0147538D01*
X0024539Y0147663D01*
X0024441Y0147791D01*
X0024346Y0147921D01*
X0024254Y0148053D01*
X0024166Y0148187D01*
X0024081Y0148324D01*
X0023999Y0148462D01*
X0023921Y0148603D01*
X0023847Y0148745D01*
X0023776Y0148889D01*
X0023708Y0149035D01*
X0023645Y0149183D01*
X0023584Y0149332D01*
X0023528Y0149483D01*
X0023475Y0149635D01*
X0023426Y0149788D01*
X0023381Y0149942D01*
X0023340Y0150097D01*
X0023302Y0150254D01*
X0023269Y0150411D01*
X0023239Y0150569D01*
X0023213Y0150728D01*
X0023192Y0150887D01*
X0023174Y0151047D01*
X0023160Y0151207D01*
X0023150Y0151368D01*
X0023144Y0151528D01*
X0023142Y0151689D01*
M02*
