%
M48
M72
T01C0.03937
T02C0.04331
T03C0.13000
%
T01
X68224Y62122
X53657Y69996
X46571Y62122
X32004Y69996
X22555Y62122
X22555Y105035
X32004Y112909
X46571Y105035
X53657Y112909
X68224Y105035
X90193Y106480
X90193Y96480
X90193Y116480
X90193Y126480
X90193Y136480
X90193Y146480
X90193Y156480
X150193Y156480
X150193Y146480
X150193Y136480
X150193Y126480
X150193Y116480
X150193Y106480
X150193Y96480
X172161Y77870
X186728Y69996
X193815Y77870
X208382Y69996
X217831Y77870
X208382Y112909
X217831Y120783
X193815Y120783
X186728Y112909
X172161Y120783
T02
X120193Y25311
X101295Y25311
X120193Y44996
X134366Y44996
X113894Y57201
X137909Y25311
T03
X29642Y29642
X29642Y151689
X210744Y151689
X210744Y29642
M30
