G75*
%MOIN*%
%OFA0B0*%
%FSLAX25Y25*%
%IPPOS*%
%LPD*%
%AMOC8*
5,1,8,0,0,1.08239X$1,22.5*
%
%ADD10C,0.01600*%
%ADD11R,0.00660X0.00110*%
%ADD12R,0.03080X0.00110*%
%ADD13R,0.04180X0.00110*%
%ADD14R,0.05060X0.00110*%
%ADD15R,0.05720X0.00110*%
%ADD16R,0.06380X0.00110*%
%ADD17R,0.07040X0.00110*%
%ADD18R,0.07480X0.00110*%
%ADD19R,0.07920X0.00110*%
%ADD20R,0.08580X0.00110*%
%ADD21R,0.08800X0.00110*%
%ADD22R,0.09240X0.00110*%
%ADD23R,0.09680X0.00110*%
%ADD24R,0.10120X0.00110*%
%ADD25R,0.10340X0.00110*%
%ADD26R,0.10780X0.00110*%
%ADD27R,0.11000X0.00110*%
%ADD28R,0.11440X0.00110*%
%ADD29R,0.11660X0.00110*%
%ADD30R,0.11880X0.00110*%
%ADD31R,0.12100X0.00110*%
%ADD32R,0.12540X0.00110*%
%ADD33R,0.12760X0.00110*%
%ADD34R,0.12980X0.00110*%
%ADD35R,0.13200X0.00110*%
%ADD36R,0.13420X0.00110*%
%ADD37R,0.13640X0.00110*%
%ADD38R,0.13860X0.00110*%
%ADD39R,0.14080X0.00110*%
%ADD40R,0.14300X0.00110*%
%ADD41R,0.14520X0.00110*%
%ADD42R,0.14740X0.00110*%
%ADD43R,0.14960X0.00110*%
%ADD44R,0.15180X0.00110*%
%ADD45R,0.15400X0.00110*%
%ADD46R,0.15620X0.00110*%
%ADD47R,0.15840X0.00110*%
%ADD48R,0.16060X0.00110*%
%ADD49R,0.16280X0.00110*%
%ADD50R,0.16500X0.00110*%
%ADD51R,0.16720X0.00110*%
%ADD52R,0.16940X0.00110*%
%ADD53R,0.17160X0.00110*%
%ADD54R,0.17380X0.00110*%
%ADD55R,0.04950X0.00110*%
%ADD56R,0.05170X0.00110*%
%ADD57R,0.04730X0.00110*%
%ADD58R,0.04620X0.00110*%
%ADD59R,0.04400X0.00110*%
%ADD60R,0.04840X0.00110*%
%ADD61R,0.05170X0.00110*%
%ADD62R,0.03960X0.00110*%
%ADD63R,0.05280X0.00110*%
%ADD64R,0.05390X0.00110*%
%ADD65R,0.03740X0.00110*%
%ADD66R,0.05390X0.00110*%
%ADD67R,0.05500X0.00110*%
%ADD68R,0.05610X0.00110*%
%ADD69R,0.03520X0.00110*%
%ADD70R,0.05720X0.00110*%
%ADD71R,0.03300X0.00110*%
%ADD72R,0.05830X0.00110*%
%ADD73R,0.05940X0.00110*%
%ADD74R,0.06050X0.00110*%
%ADD75R,0.06160X0.00110*%
%ADD76R,0.06270X0.00110*%
%ADD77R,0.06270X0.00110*%
%ADD78R,0.06490X0.00110*%
%ADD79R,0.02420X0.00110*%
%ADD80R,0.02310X0.00110*%
%ADD81R,0.06600X0.00110*%
%ADD82R,0.06710X0.00110*%
%ADD83R,0.02200X0.00110*%
%ADD84R,0.02090X0.00110*%
%ADD85R,0.06820X0.00110*%
%ADD86R,0.01980X0.00110*%
%ADD87R,0.01870X0.00110*%
%ADD88R,0.06930X0.00110*%
%ADD89R,0.01760X0.00110*%
%ADD90R,0.06820X0.00110*%
%ADD91R,0.01650X0.00110*%
%ADD92R,0.01540X0.00110*%
%ADD93R,0.01430X0.00110*%
%ADD94R,0.01320X0.00110*%
%ADD95R,0.07150X0.00110*%
%ADD96R,0.01210X0.00110*%
%ADD97R,0.01100X0.00110*%
%ADD98R,0.07260X0.00110*%
%ADD99R,0.00990X0.00110*%
%ADD100R,0.00880X0.00110*%
%ADD101R,0.00770X0.00110*%
%ADD102R,0.07370X0.00110*%
%ADD103R,0.00550X0.00110*%
%ADD104R,0.00440X0.00110*%
%ADD105R,0.07370X0.00110*%
%ADD106R,0.00330X0.00110*%
%ADD107R,0.00220X0.00110*%
%ADD108R,0.00110X0.00110*%
%ADD109R,0.07590X0.00110*%
%ADD110R,0.12320X0.00110*%
%ADD111R,0.11220X0.00110*%
%ADD112R,0.08360X0.00110*%
%ADD113R,0.02860X0.00110*%
%ADD114R,0.05940X0.00110*%
%ADD115R,0.02420X0.00110*%
%ADD116R,0.02530X0.00110*%
%ADD117R,0.02640X0.00110*%
%ADD118R,0.02750X0.00110*%
%ADD119R,0.06490X0.00110*%
%ADD120R,0.11330X0.00110*%
%ADD121R,0.07920X0.00110*%
%ADD122R,0.07810X0.00110*%
%ADD123R,0.07040X0.00110*%
%ADD124R,0.02970X0.00110*%
%ADD125R,0.03630X0.00110*%
%ADD126R,0.10670X0.00110*%
%ADD127R,0.11110X0.00110*%
%ADD128R,0.10890X0.00110*%
%ADD129R,0.10670X0.00110*%
%ADD130R,0.10560X0.00110*%
%ADD131R,0.10450X0.00110*%
%ADD132R,0.03410X0.00110*%
%ADD133R,0.03190X0.00110*%
%ADD134R,0.07700X0.00110*%
%ADD135R,0.02970X0.00110*%
%ADD136R,0.03190X0.00110*%
%ADD137R,0.03520X0.00110*%
%ADD138R,0.26000X0.00130*%
%ADD139R,0.06240X0.00130*%
%ADD140R,0.04030X0.00130*%
%ADD141R,0.11830X0.00130*%
%ADD142R,0.05850X0.00130*%
%ADD143R,0.03250X0.00130*%
%ADD144R,0.02600X0.00130*%
%ADD145R,0.05720X0.00130*%
%ADD146R,0.05590X0.00130*%
%ADD147R,0.02080X0.00130*%
%ADD148R,0.05330X0.00130*%
%ADD149R,0.02210X0.00130*%
%ADD150R,0.01950X0.00130*%
%ADD151R,0.05070X0.00130*%
%ADD152R,0.05200X0.00130*%
%ADD153R,0.01560X0.00130*%
%ADD154R,0.04810X0.00130*%
%ADD155R,0.05070X0.00130*%
%ADD156R,0.01690X0.00130*%
%ADD157R,0.01430X0.00130*%
%ADD158R,0.04680X0.00130*%
%ADD159R,0.04940X0.00130*%
%ADD160R,0.04550X0.00130*%
%ADD161R,0.01300X0.00130*%
%ADD162R,0.04420X0.00130*%
%ADD163R,0.01170X0.00130*%
%ADD164R,0.04290X0.00130*%
%ADD165R,0.00650X0.00130*%
%ADD166R,0.04160X0.00130*%
%ADD167R,0.01040X0.00130*%
%ADD168R,0.01820X0.00130*%
%ADD169R,0.02340X0.00130*%
%ADD170R,0.04420X0.00130*%
%ADD171R,0.00910X0.00130*%
%ADD172R,0.02730X0.00130*%
%ADD173R,0.03900X0.00130*%
%ADD174R,0.02860X0.00130*%
%ADD175R,0.03770X0.00130*%
%ADD176R,0.03510X0.00130*%
%ADD177R,0.02990X0.00130*%
%ADD178R,0.02470X0.00130*%
%ADD179R,0.02470X0.00130*%
%ADD180R,0.01170X0.00130*%
%ADD181R,0.03640X0.00130*%
%ADD182R,0.03770X0.00130*%
%ADD183R,0.01820X0.00130*%
%ADD184R,0.00780X0.00130*%
%ADD185R,0.05460X0.00130*%
%ADD186R,0.03120X0.00130*%
%ADD187R,0.11440X0.00130*%
%ADD188R,0.02880X0.00120*%
%ADD189R,0.04200X0.00120*%
%ADD190R,0.05280X0.00120*%
%ADD191R,0.06000X0.00120*%
%ADD192R,0.06720X0.00120*%
%ADD193R,0.07440X0.00120*%
%ADD194R,0.08160X0.00120*%
%ADD195R,0.08640X0.00120*%
%ADD196R,0.09120X0.00120*%
%ADD197R,0.09600X0.00120*%
%ADD198R,0.10080X0.00120*%
%ADD199R,0.10560X0.00120*%
%ADD200R,0.10800X0.00120*%
%ADD201R,0.11280X0.00120*%
%ADD202R,0.11760X0.00120*%
%ADD203R,0.12000X0.00120*%
%ADD204R,0.12240X0.00120*%
%ADD205R,0.12720X0.00120*%
%ADD206R,0.12960X0.00120*%
%ADD207R,0.13200X0.00120*%
%ADD208R,0.13440X0.00120*%
%ADD209R,0.13920X0.00120*%
%ADD210R,0.14160X0.00120*%
%ADD211R,0.14400X0.00120*%
%ADD212R,0.14640X0.00120*%
%ADD213R,0.14880X0.00120*%
%ADD214R,0.15120X0.00120*%
%ADD215R,0.15360X0.00120*%
%ADD216R,0.15600X0.00120*%
%ADD217R,0.15840X0.00120*%
%ADD218R,0.16080X0.00120*%
%ADD219R,0.16080X0.00120*%
%ADD220R,0.16320X0.00120*%
%ADD221R,0.16560X0.00120*%
%ADD222R,0.16800X0.00120*%
%ADD223R,0.17040X0.00120*%
%ADD224R,0.17040X0.00120*%
%ADD225R,0.17280X0.00120*%
%ADD226R,0.17520X0.00120*%
%ADD227R,0.17760X0.00120*%
%ADD228R,0.18000X0.00120*%
%ADD229R,0.18000X0.00120*%
%ADD230R,0.18240X0.00120*%
%ADD231R,0.18480X0.00120*%
%ADD232R,0.18720X0.00120*%
%ADD233R,0.18720X0.00120*%
%ADD234R,0.18960X0.00120*%
%ADD235R,0.19200X0.00120*%
%ADD236R,0.19200X0.00120*%
%ADD237R,0.19440X0.00120*%
%ADD238R,0.19680X0.00120*%
%ADD239R,0.19680X0.00120*%
%ADD240R,0.19920X0.00120*%
%ADD241R,0.20160X0.00120*%
%ADD242R,0.20160X0.00120*%
%ADD243R,0.20280X0.00120*%
%ADD244R,0.20400X0.00120*%
%ADD245R,0.04440X0.00120*%
%ADD246R,0.03240X0.00120*%
%ADD247R,0.00960X0.00120*%
%ADD248R,0.02520X0.00120*%
%ADD249R,0.04800X0.00120*%
%ADD250R,0.04440X0.00120*%
%ADD251R,0.03120X0.00120*%
%ADD252R,0.00840X0.00120*%
%ADD253R,0.02400X0.00120*%
%ADD254R,0.04680X0.00120*%
%ADD255R,0.04560X0.00120*%
%ADD256R,0.03000X0.00120*%
%ADD257R,0.00840X0.00120*%
%ADD258R,0.02280X0.00120*%
%ADD259R,0.04560X0.00120*%
%ADD260R,0.02880X0.00120*%
%ADD261R,0.02160X0.00120*%
%ADD262R,0.04680X0.00120*%
%ADD263R,0.02760X0.00120*%
%ADD264R,0.02040X0.00120*%
%ADD265R,0.02640X0.00120*%
%ADD266R,0.00960X0.00120*%
%ADD267R,0.02040X0.00120*%
%ADD268R,0.04920X0.00120*%
%ADD269R,0.02640X0.00120*%
%ADD270R,0.01920X0.00120*%
%ADD271R,0.04920X0.00120*%
%ADD272R,0.02520X0.00120*%
%ADD273R,0.01080X0.00120*%
%ADD274R,0.01920X0.00120*%
%ADD275R,0.04800X0.00120*%
%ADD276R,0.05040X0.00120*%
%ADD277R,0.01800X0.00120*%
%ADD278R,0.05040X0.00120*%
%ADD279R,0.02400X0.00120*%
%ADD280R,0.01080X0.00120*%
%ADD281R,0.01800X0.00120*%
%ADD282R,0.01200X0.00120*%
%ADD283R,0.01680X0.00120*%
%ADD284R,0.05160X0.00120*%
%ADD285R,0.01200X0.00120*%
%ADD286R,0.01680X0.00120*%
%ADD287R,0.05280X0.00120*%
%ADD288R,0.01560X0.00120*%
%ADD289R,0.01320X0.00120*%
%ADD290R,0.05400X0.00120*%
%ADD291R,0.01320X0.00120*%
%ADD292R,0.01440X0.00120*%
%ADD293R,0.00120X0.00120*%
%ADD294R,0.05400X0.00120*%
%ADD295R,0.00240X0.00120*%
%ADD296R,0.00240X0.00120*%
%ADD297R,0.05520X0.00120*%
%ADD298R,0.01440X0.00120*%
%ADD299R,0.00120X0.00120*%
%ADD300R,0.05520X0.00120*%
%ADD301R,0.01560X0.00120*%
%ADD302R,0.05640X0.00120*%
%ADD303R,0.00360X0.00120*%
%ADD304R,0.05640X0.00120*%
%ADD305R,0.00360X0.00120*%
%ADD306R,0.00480X0.00120*%
%ADD307R,0.05760X0.00120*%
%ADD308R,0.00600X0.00120*%
%ADD309R,0.05760X0.00120*%
%ADD310R,0.00600X0.00120*%
%ADD311R,0.00720X0.00120*%
%ADD312R,0.05880X0.00120*%
%ADD313R,0.00720X0.00120*%
%ADD314R,0.05880X0.00120*%
%ADD315R,0.06000X0.00120*%
%ADD316R,0.00480X0.00120*%
%ADD317R,0.00720X0.00120*%
%ADD318R,0.06120X0.00120*%
%ADD319R,0.06120X0.00120*%
%ADD320R,0.06240X0.00120*%
%ADD321R,0.02160X0.00120*%
%ADD322R,0.00120X0.00120*%
%ADD323R,0.06240X0.00120*%
%ADD324R,0.02280X0.00120*%
%ADD325R,0.06240X0.00120*%
%ADD326R,0.06360X0.00120*%
%ADD327R,0.06360X0.00120*%
%ADD328R,0.02760X0.00120*%
%ADD329R,0.06480X0.00120*%
%ADD330R,0.06480X0.00120*%
%ADD331R,0.03360X0.00120*%
%ADD332R,0.19920X0.00120*%
%ADD333R,0.19440X0.00120*%
%ADD334R,0.19080X0.00120*%
%ADD335R,0.18840X0.00120*%
%ADD336R,0.18600X0.00120*%
%ADD337R,0.18480X0.00120*%
%ADD338R,0.18240X0.00120*%
%ADD339R,0.17760X0.00120*%
%ADD340R,0.17520X0.00120*%
%ADD341R,0.17280X0.00120*%
%ADD342R,0.16920X0.00120*%
%ADD343R,0.16560X0.00120*%
%ADD344R,0.16320X0.00120*%
%ADD345R,0.15600X0.00120*%
%ADD346R,0.15360X0.00120*%
%ADD347R,0.15120X0.00120*%
%ADD348R,0.14880X0.00120*%
%ADD349R,0.14400X0.00120*%
%ADD350R,0.14160X0.00120*%
%ADD351R,0.13920X0.00120*%
%ADD352R,0.13440X0.00120*%
%ADD353R,0.12960X0.00120*%
%ADD354R,0.12720X0.00120*%
%ADD355R,0.12240X0.00120*%
%ADD356R,0.12000X0.00120*%
%ADD357R,0.11280X0.00120*%
%ADD358R,0.10800X0.00120*%
%ADD359R,0.10560X0.00120*%
%ADD360R,0.10080X0.00120*%
%ADD361R,0.09120X0.00120*%
%ADD362R,0.08640X0.00120*%
%ADD363R,0.08160X0.00120*%
%ADD364R,0.07440X0.00120*%
%ADD365R,0.04080X0.00120*%
%ADD366C,0.01200*%
%ADD367C,0.00300*%
%ADD368R,0.00390X0.00130*%
%ADD369R,0.00260X0.00130*%
%ADD370R,0.01040X0.00130*%
%ADD371R,0.00130X0.00130*%
%ADD372R,0.04290X0.00130*%
%ADD373R,0.02340X0.00130*%
%ADD374R,0.00520X0.00130*%
%ADD375R,0.01690X0.00130*%
%ADD376R,0.04940X0.00130*%
%ADD377R,0.00390X0.00130*%
%ADD378R,0.03120X0.00130*%
%ADD379R,0.03380X0.00130*%
%ADD380R,0.00520X0.00130*%
%ADD381C,0.00000*%
D10*
X0029642Y0013894D02*
X0110744Y0013894D01*
X0110744Y0019406D01*
X0129642Y0019406D01*
X0129642Y0013894D01*
X0210744Y0013894D01*
X0211125Y0013899D01*
X0211505Y0013912D01*
X0211885Y0013935D01*
X0212264Y0013968D01*
X0212642Y0014009D01*
X0213019Y0014059D01*
X0213395Y0014119D01*
X0213770Y0014187D01*
X0214142Y0014265D01*
X0214513Y0014352D01*
X0214881Y0014447D01*
X0215247Y0014552D01*
X0215610Y0014665D01*
X0215971Y0014787D01*
X0216328Y0014917D01*
X0216682Y0015057D01*
X0217033Y0015204D01*
X0217380Y0015361D01*
X0217723Y0015525D01*
X0218062Y0015698D01*
X0218397Y0015879D01*
X0218728Y0016068D01*
X0219053Y0016265D01*
X0219374Y0016469D01*
X0219690Y0016682D01*
X0220000Y0016902D01*
X0220306Y0017129D01*
X0220605Y0017364D01*
X0220899Y0017606D01*
X0221187Y0017854D01*
X0221469Y0018110D01*
X0221744Y0018373D01*
X0222013Y0018642D01*
X0222276Y0018917D01*
X0222532Y0019199D01*
X0222780Y0019487D01*
X0223022Y0019781D01*
X0223257Y0020080D01*
X0223484Y0020386D01*
X0223704Y0020696D01*
X0223917Y0021012D01*
X0224121Y0021333D01*
X0224318Y0021658D01*
X0224507Y0021989D01*
X0224688Y0022324D01*
X0224861Y0022663D01*
X0225025Y0023006D01*
X0225182Y0023353D01*
X0225329Y0023704D01*
X0225469Y0024058D01*
X0225599Y0024415D01*
X0225721Y0024776D01*
X0225834Y0025139D01*
X0225939Y0025505D01*
X0226034Y0025873D01*
X0226121Y0026244D01*
X0226199Y0026616D01*
X0226267Y0026991D01*
X0226327Y0027367D01*
X0226377Y0027744D01*
X0226418Y0028122D01*
X0226451Y0028501D01*
X0226474Y0028881D01*
X0226487Y0029261D01*
X0226492Y0029642D01*
X0226492Y0151689D01*
X0226487Y0152070D01*
X0226474Y0152450D01*
X0226451Y0152830D01*
X0226418Y0153209D01*
X0226377Y0153587D01*
X0226327Y0153964D01*
X0226267Y0154340D01*
X0226199Y0154715D01*
X0226121Y0155087D01*
X0226034Y0155458D01*
X0225939Y0155826D01*
X0225834Y0156192D01*
X0225721Y0156555D01*
X0225599Y0156916D01*
X0225469Y0157273D01*
X0225329Y0157627D01*
X0225182Y0157978D01*
X0225025Y0158325D01*
X0224861Y0158668D01*
X0224688Y0159007D01*
X0224507Y0159342D01*
X0224318Y0159673D01*
X0224121Y0159998D01*
X0223917Y0160319D01*
X0223704Y0160635D01*
X0223484Y0160945D01*
X0223257Y0161251D01*
X0223022Y0161550D01*
X0222780Y0161844D01*
X0222532Y0162132D01*
X0222276Y0162414D01*
X0222013Y0162689D01*
X0221744Y0162958D01*
X0221469Y0163221D01*
X0221187Y0163477D01*
X0220899Y0163725D01*
X0220605Y0163967D01*
X0220306Y0164202D01*
X0220000Y0164429D01*
X0219690Y0164649D01*
X0219374Y0164862D01*
X0219053Y0165066D01*
X0218728Y0165263D01*
X0218397Y0165452D01*
X0218062Y0165633D01*
X0217723Y0165806D01*
X0217380Y0165970D01*
X0217033Y0166127D01*
X0216682Y0166274D01*
X0216328Y0166414D01*
X0215971Y0166544D01*
X0215610Y0166666D01*
X0215247Y0166779D01*
X0214881Y0166884D01*
X0214513Y0166979D01*
X0214142Y0167066D01*
X0213770Y0167144D01*
X0213395Y0167212D01*
X0213019Y0167272D01*
X0212642Y0167322D01*
X0212264Y0167363D01*
X0211885Y0167396D01*
X0211505Y0167419D01*
X0211125Y0167432D01*
X0210744Y0167437D01*
X0029642Y0167437D01*
X0029261Y0167432D01*
X0028881Y0167419D01*
X0028501Y0167396D01*
X0028122Y0167363D01*
X0027744Y0167322D01*
X0027367Y0167272D01*
X0026991Y0167212D01*
X0026616Y0167144D01*
X0026244Y0167066D01*
X0025873Y0166979D01*
X0025505Y0166884D01*
X0025139Y0166779D01*
X0024776Y0166666D01*
X0024415Y0166544D01*
X0024058Y0166414D01*
X0023704Y0166274D01*
X0023353Y0166127D01*
X0023006Y0165970D01*
X0022663Y0165806D01*
X0022324Y0165633D01*
X0021989Y0165452D01*
X0021658Y0165263D01*
X0021333Y0165066D01*
X0021012Y0164862D01*
X0020696Y0164649D01*
X0020386Y0164429D01*
X0020080Y0164202D01*
X0019781Y0163967D01*
X0019487Y0163725D01*
X0019199Y0163477D01*
X0018917Y0163221D01*
X0018642Y0162958D01*
X0018373Y0162689D01*
X0018110Y0162414D01*
X0017854Y0162132D01*
X0017606Y0161844D01*
X0017364Y0161550D01*
X0017129Y0161251D01*
X0016902Y0160945D01*
X0016682Y0160635D01*
X0016469Y0160319D01*
X0016265Y0159998D01*
X0016068Y0159673D01*
X0015879Y0159342D01*
X0015698Y0159007D01*
X0015525Y0158668D01*
X0015361Y0158325D01*
X0015204Y0157978D01*
X0015057Y0157627D01*
X0014917Y0157273D01*
X0014787Y0156916D01*
X0014665Y0156555D01*
X0014552Y0156192D01*
X0014447Y0155826D01*
X0014352Y0155458D01*
X0014265Y0155087D01*
X0014187Y0154715D01*
X0014119Y0154340D01*
X0014059Y0153964D01*
X0014009Y0153587D01*
X0013968Y0153209D01*
X0013935Y0152830D01*
X0013912Y0152450D01*
X0013899Y0152070D01*
X0013894Y0151689D01*
X0013894Y0029642D01*
X0013899Y0029261D01*
X0013912Y0028881D01*
X0013935Y0028501D01*
X0013968Y0028122D01*
X0014009Y0027744D01*
X0014059Y0027367D01*
X0014119Y0026991D01*
X0014187Y0026616D01*
X0014265Y0026244D01*
X0014352Y0025873D01*
X0014447Y0025505D01*
X0014552Y0025139D01*
X0014665Y0024776D01*
X0014787Y0024415D01*
X0014917Y0024058D01*
X0015057Y0023704D01*
X0015204Y0023353D01*
X0015361Y0023006D01*
X0015525Y0022663D01*
X0015698Y0022324D01*
X0015879Y0021989D01*
X0016068Y0021658D01*
X0016265Y0021333D01*
X0016469Y0021012D01*
X0016682Y0020696D01*
X0016902Y0020386D01*
X0017129Y0020080D01*
X0017364Y0019781D01*
X0017606Y0019487D01*
X0017854Y0019199D01*
X0018110Y0018917D01*
X0018373Y0018642D01*
X0018642Y0018373D01*
X0018917Y0018110D01*
X0019199Y0017854D01*
X0019487Y0017606D01*
X0019781Y0017364D01*
X0020080Y0017129D01*
X0020386Y0016902D01*
X0020696Y0016682D01*
X0021012Y0016469D01*
X0021333Y0016265D01*
X0021658Y0016068D01*
X0021989Y0015879D01*
X0022324Y0015698D01*
X0022663Y0015525D01*
X0023006Y0015361D01*
X0023353Y0015204D01*
X0023704Y0015057D01*
X0024058Y0014917D01*
X0024415Y0014787D01*
X0024776Y0014665D01*
X0025139Y0014552D01*
X0025505Y0014447D01*
X0025873Y0014352D01*
X0026244Y0014265D01*
X0026616Y0014187D01*
X0026991Y0014119D01*
X0027367Y0014059D01*
X0027744Y0014009D01*
X0028122Y0013968D01*
X0028501Y0013935D01*
X0028881Y0013912D01*
X0029261Y0013899D01*
X0029642Y0013894D01*
D11*
X0035967Y0041956D03*
X0035967Y0061536D03*
X0042649Y0120961D03*
X0042649Y0140541D03*
X0182706Y0149110D03*
X0182706Y0129530D03*
X0197336Y0065715D03*
X0197446Y0058015D03*
X0197446Y0057905D03*
X0197336Y0046135D03*
D12*
X0197336Y0046245D03*
X0182706Y0129640D03*
X0042649Y0121071D03*
X0042319Y0128661D03*
X0042319Y0132621D03*
X0035967Y0042066D03*
D13*
X0035967Y0042176D03*
X0035967Y0061316D03*
X0042649Y0121181D03*
X0042649Y0140321D03*
X0182706Y0148890D03*
X0182706Y0129750D03*
X0197336Y0065495D03*
X0197446Y0052625D03*
X0197446Y0052515D03*
X0197446Y0052405D03*
X0197336Y0046355D03*
D14*
X0197336Y0046465D03*
X0190846Y0052625D03*
X0197336Y0065385D03*
X0182706Y0129860D03*
X0182706Y0148780D03*
X0042649Y0140211D03*
X0042649Y0121291D03*
X0035967Y0061206D03*
X0035967Y0042286D03*
D15*
X0035967Y0042396D03*
X0042567Y0053286D03*
X0035967Y0061096D03*
X0042649Y0121401D03*
X0048699Y0126901D03*
X0048699Y0127011D03*
X0048699Y0127121D03*
X0048699Y0134381D03*
X0048699Y0134491D03*
X0048699Y0134601D03*
X0048589Y0134711D03*
X0048589Y0134821D03*
X0042649Y0140101D03*
X0036489Y0127451D03*
X0182706Y0129970D03*
X0182706Y0148670D03*
X0197336Y0065275D03*
X0203826Y0053725D03*
X0197336Y0046575D03*
D16*
X0197336Y0046685D03*
X0190956Y0054825D03*
X0190956Y0054935D03*
X0190956Y0055045D03*
X0203716Y0055045D03*
X0203716Y0055155D03*
X0197336Y0065165D03*
X0182706Y0130080D03*
X0176986Y0135690D03*
X0176216Y0138990D03*
X0176436Y0141300D03*
X0176436Y0141410D03*
X0177096Y0143280D03*
X0182706Y0148560D03*
X0188866Y0141850D03*
X0188866Y0141740D03*
X0188866Y0141630D03*
X0188866Y0141520D03*
X0188866Y0137120D03*
X0188866Y0137010D03*
X0188866Y0136900D03*
X0188866Y0136790D03*
X0049029Y0132181D03*
X0049029Y0132071D03*
X0049029Y0131961D03*
X0049029Y0131851D03*
X0049029Y0131741D03*
X0049029Y0131631D03*
X0049029Y0131521D03*
X0049029Y0131411D03*
X0049029Y0131301D03*
X0049029Y0131191D03*
X0049029Y0130311D03*
X0049029Y0130201D03*
X0049029Y0130091D03*
X0049029Y0129981D03*
X0049029Y0129871D03*
X0049029Y0129761D03*
X0049029Y0129651D03*
X0049029Y0129541D03*
X0049029Y0129431D03*
X0049029Y0129321D03*
X0042649Y0121511D03*
X0036929Y0134491D03*
X0042649Y0139991D03*
X0035967Y0060986D03*
X0041467Y0055926D03*
X0041577Y0055816D03*
X0042017Y0048886D03*
X0041907Y0048776D03*
X0041907Y0048666D03*
X0035967Y0042506D03*
X0030137Y0048226D03*
X0029917Y0048886D03*
X0029917Y0048996D03*
X0029917Y0049106D03*
X0030027Y0054716D03*
D17*
X0031127Y0056696D03*
X0035967Y0060876D03*
X0040917Y0056476D03*
X0035967Y0042616D03*
X0042649Y0121621D03*
X0042649Y0139881D03*
X0176656Y0140310D03*
X0182706Y0148450D03*
X0182706Y0130190D03*
X0197336Y0065055D03*
X0203276Y0057465D03*
X0203386Y0057135D03*
X0203386Y0057025D03*
X0203386Y0056915D03*
X0191286Y0056915D03*
X0191286Y0056805D03*
X0197336Y0046795D03*
D18*
X0197336Y0046905D03*
X0197336Y0064945D03*
X0182706Y0130300D03*
X0177756Y0135140D03*
X0176876Y0139870D03*
X0176876Y0139980D03*
X0177976Y0143940D03*
X0182706Y0148340D03*
X0042649Y0139771D03*
X0042649Y0121731D03*
X0035967Y0060766D03*
X0041027Y0047786D03*
X0035967Y0042726D03*
X0030907Y0047676D03*
D19*
X0035967Y0042836D03*
X0035967Y0060656D03*
X0042649Y0121841D03*
X0042649Y0139661D03*
X0182706Y0148230D03*
X0182706Y0130410D03*
X0197336Y0064835D03*
X0197336Y0047015D03*
D20*
X0197336Y0047125D03*
X0182706Y0130520D03*
X0042649Y0121951D03*
X0035967Y0042946D03*
D21*
X0035967Y0043056D03*
X0035967Y0060436D03*
X0042649Y0122061D03*
X0042649Y0139441D03*
X0182706Y0148010D03*
X0182706Y0130630D03*
X0197336Y0064615D03*
X0197336Y0047235D03*
D22*
X0197336Y0047345D03*
X0197336Y0064505D03*
X0182706Y0130740D03*
X0182706Y0147900D03*
X0042649Y0139331D03*
X0042649Y0122171D03*
X0035967Y0060326D03*
X0035967Y0043166D03*
D23*
X0035967Y0043276D03*
X0035967Y0060216D03*
X0042649Y0122281D03*
X0042649Y0139221D03*
X0182706Y0130850D03*
X0182706Y0147790D03*
X0197336Y0064395D03*
X0197336Y0047455D03*
D24*
X0197336Y0047565D03*
X0197336Y0064285D03*
X0182706Y0130960D03*
X0182706Y0147680D03*
X0042649Y0139111D03*
X0042649Y0122391D03*
X0035967Y0060106D03*
X0035967Y0043386D03*
D25*
X0035967Y0043496D03*
X0035967Y0059996D03*
X0042649Y0122501D03*
X0042649Y0139001D03*
X0182706Y0131070D03*
X0182706Y0147570D03*
X0197336Y0064175D03*
X0197336Y0047675D03*
D26*
X0197336Y0047785D03*
X0197336Y0064065D03*
X0182706Y0131180D03*
X0182706Y0147460D03*
X0042649Y0138891D03*
X0042649Y0122611D03*
X0035967Y0059886D03*
X0032007Y0053946D03*
X0031897Y0050206D03*
X0035967Y0043606D03*
D27*
X0035967Y0043716D03*
X0031897Y0050316D03*
X0031897Y0050426D03*
X0031897Y0050536D03*
X0032007Y0053506D03*
X0032007Y0053616D03*
X0032007Y0053726D03*
X0035967Y0059776D03*
X0042649Y0122721D03*
X0042649Y0138781D03*
X0182706Y0131290D03*
X0182706Y0147350D03*
X0197336Y0063955D03*
X0197336Y0047895D03*
D28*
X0197336Y0048005D03*
X0182706Y0131400D03*
X0042649Y0122831D03*
X0032007Y0052076D03*
X0032007Y0051966D03*
X0032007Y0051856D03*
X0032007Y0051746D03*
X0032007Y0051636D03*
X0032007Y0051526D03*
X0035967Y0043826D03*
D29*
X0035967Y0043936D03*
X0035967Y0059556D03*
X0042649Y0122941D03*
X0042649Y0138561D03*
X0182706Y0131510D03*
X0182706Y0147130D03*
X0197336Y0063735D03*
X0197336Y0048115D03*
D30*
X0197336Y0048225D03*
X0197336Y0063625D03*
X0182706Y0131620D03*
X0182706Y0147020D03*
X0042649Y0138451D03*
X0042649Y0123051D03*
X0035967Y0059446D03*
X0035967Y0044046D03*
D31*
X0035967Y0044156D03*
X0035967Y0059336D03*
X0042649Y0123161D03*
X0042649Y0138341D03*
X0182706Y0131730D03*
X0182706Y0146910D03*
X0197336Y0063515D03*
X0197336Y0048335D03*
D32*
X0197336Y0048445D03*
X0182706Y0131840D03*
X0042649Y0123271D03*
X0035967Y0044266D03*
D33*
X0035967Y0044376D03*
X0035967Y0059116D03*
X0042649Y0123381D03*
X0042649Y0138121D03*
X0182706Y0131950D03*
X0182706Y0146690D03*
X0197336Y0063295D03*
X0197336Y0048555D03*
D34*
X0197336Y0048665D03*
X0197336Y0063185D03*
X0182706Y0132060D03*
X0182706Y0146580D03*
X0042649Y0138011D03*
X0042649Y0123491D03*
X0035967Y0059006D03*
X0035967Y0044486D03*
D35*
X0035967Y0044596D03*
X0035967Y0058896D03*
X0042649Y0123601D03*
X0042649Y0137901D03*
X0182706Y0132170D03*
X0182706Y0146470D03*
X0197336Y0063075D03*
X0197336Y0048775D03*
D36*
X0197336Y0048885D03*
X0197336Y0062965D03*
X0182706Y0132280D03*
X0182706Y0146360D03*
X0042649Y0137791D03*
X0042649Y0123711D03*
X0035967Y0058786D03*
X0035967Y0044706D03*
D37*
X0035967Y0044816D03*
X0035967Y0058676D03*
X0042649Y0123821D03*
X0042649Y0137681D03*
X0182706Y0132390D03*
X0182706Y0146250D03*
X0197336Y0062855D03*
X0197336Y0048995D03*
D38*
X0197336Y0049105D03*
X0197336Y0062745D03*
X0182706Y0132500D03*
X0182706Y0146140D03*
X0042649Y0137571D03*
X0042649Y0123931D03*
X0035967Y0058566D03*
X0035967Y0044926D03*
D39*
X0035967Y0045036D03*
X0035967Y0058456D03*
X0042649Y0124041D03*
X0042649Y0137461D03*
X0182706Y0132610D03*
X0182706Y0146030D03*
X0197336Y0062635D03*
X0197336Y0049215D03*
D40*
X0197336Y0049325D03*
X0197336Y0062525D03*
X0182706Y0132720D03*
X0182706Y0145920D03*
X0042649Y0137351D03*
X0042649Y0124151D03*
X0035967Y0058346D03*
X0035967Y0045146D03*
D41*
X0035967Y0045256D03*
X0035967Y0045366D03*
X0035967Y0058126D03*
X0035967Y0058236D03*
X0042649Y0124261D03*
X0042649Y0124371D03*
X0042649Y0137131D03*
X0042649Y0137241D03*
X0182706Y0132940D03*
X0182706Y0132830D03*
X0182706Y0145700D03*
X0182706Y0145810D03*
X0197336Y0062415D03*
X0197336Y0062305D03*
X0197336Y0049545D03*
X0197336Y0049435D03*
D42*
X0197336Y0049655D03*
X0197336Y0062195D03*
X0182706Y0133050D03*
X0182706Y0145590D03*
X0042649Y0137021D03*
X0042649Y0124481D03*
X0035967Y0058016D03*
X0035967Y0045476D03*
D43*
X0035967Y0045586D03*
X0035967Y0057906D03*
X0042649Y0124591D03*
X0042649Y0136911D03*
X0182706Y0133160D03*
X0182706Y0145480D03*
X0197336Y0062085D03*
X0197336Y0049765D03*
D44*
X0197336Y0049875D03*
X0197336Y0061975D03*
X0182706Y0133270D03*
X0182706Y0145370D03*
X0042649Y0136801D03*
X0042649Y0124701D03*
X0035967Y0057796D03*
X0035967Y0045696D03*
D45*
X0035967Y0045806D03*
X0035967Y0045916D03*
X0035967Y0057576D03*
X0035967Y0057686D03*
X0042649Y0124811D03*
X0042649Y0124921D03*
X0042649Y0136581D03*
X0042649Y0136691D03*
X0182706Y0133490D03*
X0182706Y0133380D03*
X0182706Y0145150D03*
X0182706Y0145260D03*
X0197336Y0061865D03*
X0197336Y0061755D03*
X0197336Y0050095D03*
X0197336Y0049985D03*
D46*
X0197336Y0050205D03*
X0197336Y0061645D03*
X0182706Y0133600D03*
X0182706Y0145040D03*
X0042649Y0136471D03*
X0042649Y0125031D03*
X0035967Y0057466D03*
X0035967Y0046026D03*
D47*
X0035967Y0046136D03*
X0035967Y0046246D03*
X0035967Y0057246D03*
X0035967Y0057356D03*
X0042649Y0125141D03*
X0042649Y0125251D03*
X0042649Y0136251D03*
X0042649Y0136361D03*
X0182706Y0133820D03*
X0182706Y0133710D03*
X0182706Y0144820D03*
X0182706Y0144930D03*
X0197336Y0061535D03*
X0197336Y0061425D03*
X0197336Y0050425D03*
X0197336Y0050315D03*
D48*
X0197336Y0050535D03*
X0197336Y0061315D03*
X0182706Y0133930D03*
X0182706Y0144710D03*
X0042649Y0136141D03*
X0042649Y0125361D03*
X0035967Y0057136D03*
X0035967Y0046356D03*
D49*
X0035967Y0046466D03*
X0035967Y0046576D03*
X0035967Y0056916D03*
X0035967Y0057026D03*
X0042649Y0125471D03*
X0042649Y0125581D03*
X0042649Y0135921D03*
X0042649Y0136031D03*
X0182706Y0134150D03*
X0182706Y0134040D03*
X0182706Y0144490D03*
X0182706Y0144600D03*
X0197336Y0061205D03*
X0197336Y0061095D03*
X0197336Y0050755D03*
X0197336Y0050645D03*
D50*
X0197336Y0050865D03*
X0197336Y0060985D03*
X0182706Y0134260D03*
X0182706Y0144380D03*
X0042649Y0135811D03*
X0042649Y0125691D03*
X0035967Y0046686D03*
D51*
X0035967Y0046796D03*
X0035967Y0046906D03*
X0042649Y0125801D03*
X0042649Y0125911D03*
X0042649Y0135591D03*
X0042649Y0135701D03*
X0182706Y0134480D03*
X0182706Y0134370D03*
X0182706Y0144160D03*
X0182706Y0144270D03*
X0197336Y0051085D03*
X0197336Y0050975D03*
D52*
X0197336Y0051195D03*
X0197336Y0051305D03*
X0182706Y0134590D03*
X0182706Y0134700D03*
X0182706Y0144050D03*
X0042649Y0135481D03*
X0042649Y0135371D03*
X0042649Y0126131D03*
X0042649Y0126021D03*
X0035967Y0047126D03*
X0035967Y0047016D03*
D53*
X0035967Y0047236D03*
X0035967Y0047346D03*
X0042649Y0135151D03*
X0042649Y0135261D03*
X0182706Y0134920D03*
X0182706Y0134810D03*
X0197336Y0051525D03*
X0197336Y0051415D03*
D54*
X0197336Y0051635D03*
X0197336Y0051745D03*
X0182706Y0135030D03*
X0035967Y0047456D03*
D55*
X0190791Y0052405D03*
X0190791Y0052515D03*
X0191011Y0051855D03*
X0203661Y0051855D03*
X0203881Y0052405D03*
X0203881Y0052515D03*
X0203881Y0052625D03*
D56*
X0197501Y0051855D03*
D57*
X0203771Y0051965D03*
X0203881Y0052075D03*
X0203881Y0052185D03*
X0203881Y0052295D03*
X0190901Y0051965D03*
D58*
X0197446Y0051965D03*
D59*
X0197446Y0052075D03*
X0197446Y0052185D03*
X0197446Y0052295D03*
D60*
X0190846Y0052295D03*
X0190846Y0052185D03*
X0190846Y0052075D03*
D61*
X0190791Y0052735D03*
X0190791Y0052845D03*
X0203881Y0052845D03*
X0203881Y0052735D03*
X0203881Y0052955D03*
D62*
X0197446Y0052955D03*
X0197446Y0052845D03*
X0197446Y0052735D03*
D63*
X0190846Y0052955D03*
X0035829Y0129101D03*
X0035829Y0129211D03*
X0035719Y0129541D03*
X0035719Y0129651D03*
X0035719Y0129761D03*
X0035719Y0129871D03*
X0035719Y0129981D03*
X0035719Y0130091D03*
X0035719Y0130201D03*
X0035719Y0130311D03*
X0035719Y0131191D03*
X0035719Y0131301D03*
X0035719Y0131411D03*
X0035719Y0131521D03*
X0035719Y0131631D03*
X0035719Y0131741D03*
X0035719Y0131851D03*
X0035829Y0132291D03*
D64*
X0035994Y0128551D03*
X0035994Y0128441D03*
X0203881Y0053285D03*
X0203881Y0053175D03*
X0203881Y0053065D03*
D65*
X0197446Y0053065D03*
X0197446Y0053175D03*
X0197446Y0053285D03*
D66*
X0190791Y0053175D03*
X0190791Y0053065D03*
X0035884Y0128661D03*
X0035884Y0128771D03*
X0035884Y0128881D03*
X0035884Y0128991D03*
X0035774Y0129321D03*
X0035774Y0129431D03*
X0035664Y0130421D03*
X0035664Y0130531D03*
X0035664Y0130641D03*
X0035664Y0130751D03*
X0035664Y0130861D03*
X0035664Y0130971D03*
X0035664Y0131081D03*
X0035774Y0131961D03*
X0035774Y0132071D03*
X0035774Y0132181D03*
X0035884Y0132401D03*
X0035884Y0132511D03*
X0035884Y0132621D03*
D67*
X0035939Y0132731D03*
X0035939Y0132841D03*
X0036049Y0132951D03*
X0036049Y0133061D03*
X0036049Y0128331D03*
X0036049Y0128221D03*
X0036159Y0128111D03*
X0036159Y0128001D03*
X0048479Y0126351D03*
X0190846Y0053285D03*
D68*
X0190791Y0053395D03*
X0190791Y0053505D03*
X0203881Y0053505D03*
X0203881Y0053395D03*
X0203881Y0053615D03*
X0048644Y0126681D03*
X0048644Y0126791D03*
X0048534Y0126571D03*
X0048534Y0126461D03*
X0036324Y0127671D03*
X0036324Y0127781D03*
X0036214Y0127891D03*
X0036104Y0133171D03*
X0036104Y0133281D03*
X0036214Y0133391D03*
X0036214Y0133501D03*
D69*
X0197446Y0053615D03*
X0197446Y0053505D03*
X0197446Y0053395D03*
D70*
X0190846Y0053615D03*
X0190846Y0053725D03*
X0188536Y0143500D03*
X0188426Y0143720D03*
X0048479Y0134931D03*
X0048369Y0126241D03*
X0036379Y0127561D03*
X0036269Y0133611D03*
X0036379Y0133721D03*
D71*
X0042209Y0132291D03*
X0042209Y0132181D03*
X0042209Y0129211D03*
X0042209Y0129101D03*
X0042209Y0128991D03*
X0035307Y0049766D03*
X0197446Y0053725D03*
X0197446Y0053835D03*
D72*
X0203881Y0053835D03*
X0203881Y0053945D03*
X0190791Y0053835D03*
X0176381Y0136680D03*
X0176271Y0136900D03*
X0176271Y0137010D03*
X0176271Y0137120D03*
X0176161Y0137340D03*
X0176161Y0137450D03*
X0176161Y0137560D03*
X0176161Y0137670D03*
X0176161Y0137780D03*
X0188261Y0143940D03*
X0188371Y0143830D03*
X0188481Y0143610D03*
X0188591Y0143390D03*
X0188591Y0143280D03*
X0048754Y0134271D03*
X0048754Y0134161D03*
X0048754Y0134051D03*
X0048424Y0135041D03*
X0048754Y0127451D03*
X0048754Y0127341D03*
X0048754Y0127231D03*
X0036544Y0127341D03*
X0036434Y0133831D03*
X0042292Y0054386D03*
X0042402Y0054056D03*
X0042402Y0053946D03*
X0042512Y0053726D03*
X0042512Y0053616D03*
X0042512Y0053506D03*
X0042512Y0053396D03*
X0042622Y0053176D03*
X0042622Y0053066D03*
X0042622Y0052956D03*
X0042622Y0052846D03*
X0042622Y0052736D03*
X0042622Y0052626D03*
X0042622Y0052516D03*
X0042622Y0052406D03*
X0042622Y0052296D03*
X0042622Y0052186D03*
X0042732Y0052076D03*
X0042622Y0051306D03*
X0042622Y0051196D03*
X0042622Y0051086D03*
X0042622Y0050976D03*
X0042622Y0050866D03*
D73*
X0042567Y0050756D03*
X0042567Y0050646D03*
X0042567Y0050536D03*
X0042567Y0050426D03*
X0042457Y0050206D03*
X0042457Y0050096D03*
X0042457Y0049986D03*
X0042677Y0051416D03*
X0042677Y0051526D03*
X0042677Y0051636D03*
X0042677Y0051746D03*
X0042677Y0051856D03*
X0042677Y0051966D03*
X0042457Y0053836D03*
X0042347Y0054166D03*
X0042347Y0054276D03*
X0042127Y0054716D03*
X0042127Y0054826D03*
X0042017Y0055046D03*
X0030357Y0056146D03*
X0030247Y0055926D03*
X0036709Y0127121D03*
X0036599Y0127231D03*
X0036489Y0133941D03*
X0036599Y0134051D03*
X0048809Y0133941D03*
X0048809Y0133831D03*
X0048809Y0133721D03*
X0048809Y0127781D03*
X0048809Y0127671D03*
X0048809Y0127561D03*
X0176106Y0137890D03*
X0176106Y0138000D03*
X0176106Y0138110D03*
X0176216Y0137230D03*
X0176436Y0136570D03*
X0176436Y0136460D03*
X0176546Y0136350D03*
X0176546Y0136240D03*
X0188536Y0135360D03*
X0188536Y0135250D03*
X0188646Y0135580D03*
X0188646Y0135690D03*
X0188646Y0142950D03*
X0188646Y0143060D03*
X0188646Y0143170D03*
X0190846Y0054165D03*
X0190846Y0054055D03*
X0190846Y0053945D03*
X0203826Y0054055D03*
X0203826Y0054165D03*
X0203826Y0054275D03*
D74*
X0203771Y0054385D03*
X0190901Y0054385D03*
X0190901Y0054275D03*
X0188371Y0135140D03*
X0188591Y0135470D03*
X0188701Y0135800D03*
X0188701Y0135910D03*
X0188701Y0136020D03*
X0188701Y0142620D03*
X0188701Y0142730D03*
X0188701Y0142840D03*
X0176601Y0142290D03*
X0176161Y0138550D03*
X0176161Y0138440D03*
X0176161Y0138330D03*
X0176161Y0138220D03*
X0176601Y0136130D03*
X0176711Y0136020D03*
X0048864Y0133611D03*
X0048864Y0133501D03*
X0048864Y0133391D03*
X0048864Y0128111D03*
X0048864Y0128001D03*
X0048864Y0127891D03*
X0036764Y0127011D03*
X0036654Y0134161D03*
X0030302Y0056036D03*
X0030082Y0055596D03*
X0030082Y0055486D03*
X0030082Y0055376D03*
X0041962Y0055156D03*
X0042072Y0054936D03*
X0042512Y0050316D03*
X0042402Y0049876D03*
X0042402Y0049766D03*
X0042292Y0049546D03*
D75*
X0042347Y0049656D03*
X0042237Y0049436D03*
X0042237Y0049326D03*
X0041907Y0055266D03*
X0041797Y0055376D03*
X0041797Y0055486D03*
X0030577Y0056366D03*
X0030467Y0056256D03*
X0030027Y0055266D03*
X0030027Y0055156D03*
X0030027Y0055046D03*
X0048919Y0128221D03*
X0048919Y0128331D03*
X0048919Y0128441D03*
X0048919Y0128551D03*
X0048919Y0132951D03*
X0048919Y0133061D03*
X0048919Y0133171D03*
X0048919Y0133281D03*
X0036709Y0134271D03*
X0176216Y0138660D03*
X0176216Y0138770D03*
X0176766Y0135910D03*
X0176546Y0141960D03*
X0176546Y0142070D03*
X0176546Y0142180D03*
X0176656Y0142400D03*
X0176656Y0142510D03*
X0176766Y0142620D03*
X0176766Y0142730D03*
X0176766Y0142840D03*
X0176876Y0142950D03*
X0188756Y0142510D03*
X0188756Y0142400D03*
X0188756Y0142290D03*
X0188756Y0136350D03*
X0188756Y0136240D03*
X0188756Y0136130D03*
X0203826Y0054605D03*
X0203826Y0054495D03*
D76*
X0190901Y0054495D03*
X0190901Y0054605D03*
X0190901Y0054715D03*
X0176821Y0135800D03*
X0176271Y0138880D03*
X0176931Y0143060D03*
X0176931Y0143170D03*
X0048974Y0132841D03*
X0048974Y0132731D03*
X0048974Y0132621D03*
X0048974Y0132511D03*
X0048974Y0132401D03*
X0048974Y0132291D03*
X0048974Y0129211D03*
X0048974Y0129101D03*
X0048974Y0128991D03*
X0048974Y0128881D03*
X0048974Y0128771D03*
X0048974Y0128661D03*
X0036874Y0126901D03*
X0036874Y0134381D03*
X0041632Y0055706D03*
X0041742Y0055596D03*
X0042182Y0049216D03*
X0030082Y0048446D03*
X0030082Y0048336D03*
D77*
X0029972Y0048556D03*
X0029972Y0048666D03*
X0029972Y0048776D03*
X0029972Y0054826D03*
X0029972Y0054936D03*
X0042072Y0049106D03*
X0042072Y0048996D03*
X0036984Y0126791D03*
X0176491Y0141520D03*
X0176491Y0141630D03*
X0176491Y0141740D03*
X0176491Y0141850D03*
X0188811Y0141960D03*
X0188811Y0142070D03*
X0188811Y0142180D03*
X0188811Y0136680D03*
X0188811Y0136570D03*
X0188811Y0136460D03*
X0203771Y0054935D03*
X0203771Y0054825D03*
X0203771Y0054715D03*
D78*
X0203661Y0055265D03*
X0203661Y0055375D03*
X0203661Y0055485D03*
X0191011Y0055375D03*
X0191011Y0055265D03*
X0191011Y0055155D03*
X0177041Y0135580D03*
X0176271Y0139100D03*
X0176491Y0140970D03*
X0176491Y0141080D03*
X0176491Y0141190D03*
X0177261Y0143500D03*
X0188921Y0141410D03*
X0188921Y0141300D03*
X0188921Y0141190D03*
X0188921Y0141080D03*
X0188921Y0140970D03*
X0188921Y0140860D03*
X0188921Y0137780D03*
X0188921Y0137670D03*
X0188921Y0137560D03*
X0188921Y0137450D03*
X0188921Y0137340D03*
X0188921Y0137230D03*
X0049084Y0131081D03*
X0049084Y0130971D03*
X0049084Y0130861D03*
X0049084Y0130751D03*
X0049084Y0130641D03*
X0049084Y0130531D03*
X0049084Y0130421D03*
X0030742Y0056476D03*
X0029972Y0054606D03*
X0029972Y0054496D03*
X0030302Y0048116D03*
D79*
X0197446Y0055375D03*
D80*
X0197501Y0055485D03*
X0182651Y0136790D03*
X0182651Y0138660D03*
X0182651Y0141300D03*
X0182651Y0141410D03*
X0182651Y0141520D03*
X0182651Y0141630D03*
X0042704Y0133281D03*
X0042704Y0128001D03*
X0035362Y0049436D03*
D81*
X0030357Y0048006D03*
X0029807Y0049656D03*
X0030907Y0056586D03*
X0041247Y0056146D03*
X0041357Y0056036D03*
X0041797Y0048556D03*
X0041687Y0048446D03*
X0037259Y0126571D03*
X0037039Y0134601D03*
X0176326Y0139210D03*
X0176546Y0140860D03*
X0188976Y0140750D03*
X0188976Y0140640D03*
X0188976Y0140530D03*
X0188976Y0140420D03*
X0188976Y0140310D03*
X0188976Y0140200D03*
X0188976Y0140090D03*
X0188976Y0139980D03*
X0188976Y0139870D03*
X0188976Y0139760D03*
X0188976Y0138880D03*
X0188976Y0138770D03*
X0188976Y0138660D03*
X0188976Y0138550D03*
X0188976Y0138440D03*
X0188976Y0138330D03*
X0188976Y0138220D03*
X0188976Y0138110D03*
X0188976Y0138000D03*
X0188976Y0137890D03*
X0191066Y0055485D03*
D82*
X0191011Y0055595D03*
X0191011Y0055705D03*
X0203661Y0055705D03*
X0203661Y0055595D03*
X0203661Y0055815D03*
X0177151Y0135470D03*
X0176381Y0139320D03*
X0176491Y0140750D03*
X0177371Y0143610D03*
X0177481Y0143720D03*
X0189031Y0139650D03*
X0189031Y0139540D03*
X0189031Y0139430D03*
X0189031Y0139320D03*
X0189031Y0139210D03*
X0189031Y0139100D03*
X0189031Y0138990D03*
X0041632Y0048336D03*
X0029862Y0049766D03*
X0037204Y0134711D03*
D83*
X0042759Y0133391D03*
X0042759Y0127891D03*
X0035417Y0054936D03*
X0182706Y0140970D03*
X0182706Y0141080D03*
X0182706Y0141190D03*
X0182706Y0141740D03*
X0182706Y0141850D03*
X0182706Y0141960D03*
X0197446Y0055705D03*
X0197446Y0055595D03*
D84*
X0197501Y0055815D03*
X0182761Y0136680D03*
X0182761Y0138770D03*
X0182761Y0140860D03*
X0182761Y0142070D03*
X0182761Y0142180D03*
D85*
X0176436Y0139430D03*
X0177316Y0135360D03*
X0191066Y0056035D03*
X0191066Y0055925D03*
X0191066Y0055815D03*
X0203496Y0056365D03*
X0203496Y0056475D03*
X0203606Y0056145D03*
X0203606Y0056035D03*
X0203606Y0055925D03*
X0041577Y0048226D03*
X0041137Y0056256D03*
X0041027Y0056366D03*
D86*
X0182816Y0140750D03*
X0182816Y0142290D03*
X0197446Y0056035D03*
X0197446Y0055925D03*
D87*
X0197501Y0056145D03*
X0182871Y0136570D03*
X0182871Y0140640D03*
X0042924Y0133501D03*
D88*
X0037424Y0126461D03*
X0041412Y0048116D03*
X0176491Y0139540D03*
X0176601Y0140420D03*
X0191231Y0056695D03*
X0191231Y0056585D03*
X0191231Y0056475D03*
X0191121Y0056255D03*
X0191121Y0056145D03*
X0203441Y0056585D03*
X0203441Y0056695D03*
X0203441Y0056805D03*
X0203551Y0056255D03*
D89*
X0197446Y0056255D03*
X0197446Y0056365D03*
X0182926Y0138880D03*
X0182926Y0140530D03*
X0182926Y0142400D03*
X0042979Y0127781D03*
X0035417Y0049326D03*
D90*
X0030467Y0047896D03*
X0029917Y0049876D03*
X0176546Y0140530D03*
X0176546Y0140640D03*
X0191176Y0056365D03*
D91*
X0197501Y0056475D03*
X0035472Y0055046D03*
D92*
X0183036Y0142510D03*
X0197446Y0056695D03*
X0197446Y0056585D03*
D93*
X0197501Y0056805D03*
X0183091Y0140420D03*
D94*
X0197446Y0057025D03*
X0197446Y0056915D03*
D95*
X0203221Y0057575D03*
X0203221Y0057685D03*
X0203331Y0057355D03*
X0203331Y0057245D03*
X0202231Y0060545D03*
X0191451Y0057575D03*
X0191451Y0057465D03*
X0191341Y0057245D03*
X0191341Y0057135D03*
X0191341Y0057025D03*
X0177481Y0135250D03*
X0176601Y0139650D03*
X0176711Y0140200D03*
X0177701Y0143830D03*
X0041302Y0048006D03*
X0037644Y0126351D03*
D96*
X0197501Y0057135D03*
D97*
X0197446Y0057245D03*
X0197446Y0057355D03*
D98*
X0202726Y0059225D03*
X0202726Y0059335D03*
X0202616Y0059555D03*
X0202616Y0059665D03*
X0202506Y0059885D03*
X0202506Y0059995D03*
X0202396Y0060105D03*
X0202396Y0060215D03*
X0202286Y0060325D03*
X0202286Y0060435D03*
X0202176Y0060655D03*
X0202066Y0060765D03*
X0202836Y0059005D03*
X0202836Y0058895D03*
X0202946Y0058675D03*
X0202946Y0058565D03*
X0203056Y0058345D03*
X0203056Y0058235D03*
X0203056Y0058125D03*
X0203166Y0058015D03*
X0203166Y0057905D03*
X0203166Y0057795D03*
X0192606Y0060765D03*
X0192496Y0060655D03*
X0192496Y0060545D03*
X0192386Y0060435D03*
X0192386Y0060325D03*
X0192276Y0060105D03*
X0191836Y0058895D03*
X0191726Y0058565D03*
X0191616Y0058235D03*
X0191616Y0058125D03*
X0191506Y0057905D03*
X0191506Y0057795D03*
X0191506Y0057685D03*
X0191396Y0057355D03*
X0176766Y0139760D03*
X0176766Y0140090D03*
X0041247Y0047896D03*
X0040697Y0056586D03*
X0037589Y0134931D03*
D99*
X0035472Y0055156D03*
X0035472Y0049216D03*
X0197501Y0057465D03*
D100*
X0197446Y0057575D03*
X0197446Y0057685D03*
X0043419Y0127671D03*
X0043419Y0133611D03*
D101*
X0197501Y0057795D03*
D102*
X0202561Y0059775D03*
X0203001Y0058455D03*
X0192111Y0059555D03*
X0192111Y0059665D03*
X0192111Y0059775D03*
X0192001Y0059445D03*
X0192001Y0059335D03*
X0192001Y0059225D03*
X0191561Y0058015D03*
D103*
X0197501Y0058125D03*
D104*
X0197446Y0058235D03*
X0197446Y0058345D03*
D105*
X0202671Y0059445D03*
X0202781Y0059115D03*
X0202891Y0058785D03*
X0192331Y0060215D03*
X0192221Y0059995D03*
X0192221Y0059885D03*
X0191891Y0059115D03*
X0191891Y0059005D03*
X0191781Y0058785D03*
X0191781Y0058675D03*
X0191671Y0058455D03*
X0191671Y0058345D03*
D106*
X0197501Y0058455D03*
D107*
X0197446Y0058565D03*
X0197446Y0058675D03*
D108*
X0197501Y0058785D03*
D109*
X0201901Y0060875D03*
X0192771Y0060875D03*
D110*
X0197336Y0063405D03*
X0182706Y0146800D03*
X0042649Y0138231D03*
X0035967Y0059226D03*
D111*
X0032007Y0053176D03*
X0032007Y0053066D03*
X0032007Y0052956D03*
X0032007Y0052846D03*
X0032007Y0051306D03*
X0032007Y0051196D03*
X0032007Y0051086D03*
X0032007Y0050976D03*
X0032007Y0050866D03*
X0197336Y0063845D03*
D112*
X0197336Y0064725D03*
X0182706Y0148120D03*
X0042649Y0139551D03*
X0035967Y0060546D03*
X0040037Y0056806D03*
X0040477Y0047566D03*
D113*
X0035417Y0054716D03*
X0035967Y0061426D03*
X0042429Y0128331D03*
X0042429Y0132841D03*
X0042649Y0140431D03*
X0182706Y0149000D03*
X0197336Y0065605D03*
D114*
X0176326Y0136790D03*
X0042237Y0054606D03*
X0042237Y0054496D03*
X0030137Y0055706D03*
X0030137Y0055816D03*
D115*
X0182596Y0136900D03*
X0182596Y0138550D03*
D116*
X0182541Y0138440D03*
X0182541Y0138330D03*
X0182541Y0137010D03*
X0042594Y0133171D03*
X0042594Y0128111D03*
D117*
X0042539Y0128221D03*
X0042539Y0133061D03*
X0035417Y0054826D03*
X0182486Y0137120D03*
X0182486Y0137230D03*
X0182486Y0137340D03*
X0182486Y0138110D03*
X0182486Y0138220D03*
D118*
X0182431Y0138000D03*
X0182431Y0137890D03*
X0182431Y0137780D03*
X0182431Y0137670D03*
X0182431Y0137560D03*
X0182431Y0137450D03*
X0042484Y0132951D03*
X0035362Y0049546D03*
D119*
X0029862Y0049546D03*
X0029862Y0049436D03*
X0029862Y0049326D03*
X0029862Y0049216D03*
X0037094Y0126681D03*
X0177151Y0143390D03*
D120*
X0182761Y0147240D03*
X0042704Y0138671D03*
X0036022Y0059666D03*
X0032062Y0052736D03*
X0032062Y0052626D03*
X0032062Y0052516D03*
X0032062Y0052406D03*
X0032062Y0052296D03*
X0032062Y0052186D03*
X0031952Y0051416D03*
D121*
X0031237Y0047566D03*
D122*
X0040862Y0047676D03*
D123*
X0030687Y0047786D03*
X0037369Y0134821D03*
D124*
X0035362Y0049656D03*
D125*
X0035252Y0049876D03*
X0042044Y0130531D03*
X0042044Y0130641D03*
X0042044Y0130751D03*
X0042044Y0130861D03*
D126*
X0031842Y0050096D03*
X0031842Y0049986D03*
D127*
X0031952Y0050646D03*
X0031952Y0050756D03*
X0032062Y0053286D03*
X0032062Y0053396D03*
D128*
X0031952Y0053836D03*
D129*
X0031952Y0054056D03*
X0031952Y0054166D03*
D130*
X0031897Y0054276D03*
D131*
X0031952Y0054386D03*
D132*
X0035362Y0054496D03*
X0042154Y0129321D03*
X0042154Y0129431D03*
X0042154Y0129541D03*
X0042154Y0131741D03*
X0042154Y0131851D03*
X0042154Y0131961D03*
X0042154Y0132071D03*
D133*
X0035362Y0054606D03*
D134*
X0031567Y0056806D03*
X0040477Y0056696D03*
X0037919Y0126241D03*
X0037809Y0135041D03*
D135*
X0042374Y0132731D03*
X0042374Y0128551D03*
X0042374Y0128441D03*
D136*
X0042264Y0128771D03*
X0042264Y0128881D03*
X0042264Y0132401D03*
X0042264Y0132511D03*
D137*
X0042099Y0131631D03*
X0042099Y0131521D03*
X0042099Y0131411D03*
X0042099Y0131301D03*
X0042099Y0131191D03*
X0042099Y0131081D03*
X0042099Y0130971D03*
X0042099Y0130421D03*
X0042099Y0130311D03*
X0042099Y0130201D03*
X0042099Y0130091D03*
X0042099Y0129981D03*
X0042099Y0129871D03*
X0042099Y0129761D03*
X0042099Y0129651D03*
D138*
X0120169Y0151549D03*
X0120169Y0151679D03*
X0120169Y0151809D03*
X0120169Y0151939D03*
X0120169Y0152069D03*
X0120169Y0152199D03*
X0120169Y0152329D03*
X0120169Y0152459D03*
X0120169Y0152589D03*
X0120169Y0152719D03*
X0120169Y0152849D03*
X0120169Y0152979D03*
X0120169Y0153109D03*
X0120169Y0153239D03*
X0120169Y0153369D03*
X0120169Y0153499D03*
X0120169Y0153629D03*
X0120169Y0153759D03*
X0120169Y0153889D03*
X0120169Y0154019D03*
X0120169Y0154149D03*
X0120169Y0154279D03*
X0120169Y0154409D03*
X0120169Y0154539D03*
X0120169Y0154669D03*
X0120169Y0154799D03*
X0120169Y0154929D03*
X0120169Y0155059D03*
X0120169Y0155189D03*
X0120169Y0162599D03*
X0120169Y0162729D03*
X0120169Y0162859D03*
X0120169Y0162989D03*
X0120169Y0163119D03*
X0120169Y0163249D03*
X0120169Y0163379D03*
X0120169Y0163509D03*
X0120169Y0163639D03*
X0120169Y0163769D03*
X0120169Y0163899D03*
X0120169Y0164029D03*
X0120169Y0164159D03*
X0120169Y0164289D03*
X0120169Y0164419D03*
X0120169Y0164549D03*
X0120169Y0164679D03*
X0120169Y0164809D03*
X0120169Y0164939D03*
X0120169Y0165069D03*
X0120169Y0165199D03*
X0120169Y0165329D03*
X0120169Y0165459D03*
X0120169Y0165589D03*
X0120169Y0165719D03*
X0120169Y0165849D03*
X0120169Y0165979D03*
X0120169Y0166109D03*
X0120169Y0166239D03*
X0120169Y0166369D03*
X0120169Y0166499D03*
X0120169Y0166629D03*
X0120169Y0166759D03*
D139*
X0130049Y0155319D03*
D140*
X0122964Y0155319D03*
X0121014Y0157529D03*
X0121014Y0157659D03*
X0109184Y0157659D03*
X0109184Y0157529D03*
X0109184Y0157399D03*
X0109184Y0157269D03*
X0109184Y0157139D03*
X0109184Y0157009D03*
X0109184Y0156879D03*
X0109184Y0157789D03*
X0109184Y0157919D03*
X0109184Y0158049D03*
X0111524Y0081494D03*
X0111524Y0081364D03*
X0111264Y0074864D03*
X0096184Y0075774D03*
X0079154Y0075384D03*
X0071874Y0074864D03*
X0072134Y0081494D03*
D141*
X0113084Y0155319D03*
D142*
X0110094Y0162339D03*
X0130244Y0155449D03*
D143*
X0122964Y0155449D03*
X0121404Y0158179D03*
X0118024Y0159869D03*
X0111654Y0081884D03*
X0111654Y0079024D03*
X0072264Y0079024D03*
X0072264Y0081884D03*
D144*
X0089879Y0080584D03*
X0096249Y0075384D03*
X0104699Y0075124D03*
X0117439Y0155449D03*
X0120299Y0157009D03*
X0122899Y0155579D03*
X0125889Y0157269D03*
X0125889Y0157399D03*
X0125889Y0157529D03*
D145*
X0110029Y0155449D03*
D146*
X0130374Y0155579D03*
D147*
X0125889Y0156879D03*
X0122899Y0155839D03*
X0117309Y0155579D03*
X0113799Y0157139D03*
X0113799Y0157269D03*
X0113799Y0157399D03*
X0113799Y0157529D03*
X0113799Y0157659D03*
X0113799Y0157789D03*
X0117179Y0162339D03*
X0121989Y0162209D03*
X0110419Y0081234D03*
X0109769Y0078374D03*
X0103659Y0082144D03*
X0101839Y0081104D03*
X0101969Y0076424D03*
X0094429Y0076424D03*
X0094299Y0081624D03*
X0095859Y0082664D03*
X0080779Y0076034D03*
X0077399Y0076034D03*
X0070379Y0078374D03*
X0071029Y0081234D03*
D148*
X0103464Y0081364D03*
X0109834Y0155579D03*
X0130504Y0155709D03*
D149*
X0122964Y0155709D03*
X0121924Y0158699D03*
X0119194Y0160909D03*
X0117504Y0159349D03*
X0127904Y0081364D03*
X0129464Y0080584D03*
X0111654Y0079284D03*
X0111784Y0074604D03*
X0102034Y0076294D03*
X0090074Y0080324D03*
X0077204Y0082014D03*
X0072264Y0079284D03*
X0072394Y0074604D03*
D150*
X0080584Y0081884D03*
X0078764Y0083054D03*
X0084744Y0076294D03*
X0084744Y0076164D03*
X0084744Y0076034D03*
X0090074Y0080194D03*
X0097614Y0081624D03*
X0101904Y0076684D03*
X0101904Y0076554D03*
X0104764Y0074994D03*
X0105414Y0081104D03*
X0112564Y0081234D03*
X0124524Y0082144D03*
X0126604Y0080584D03*
X0129724Y0080454D03*
X0117244Y0155709D03*
X0120104Y0156749D03*
X0122054Y0158829D03*
X0117374Y0159219D03*
X0113864Y0158049D03*
X0113864Y0157919D03*
X0113864Y0157009D03*
X0113864Y0156879D03*
D151*
X0109704Y0155709D03*
X0103334Y0081624D03*
X0128034Y0080844D03*
X0128034Y0080714D03*
D152*
X0127969Y0080974D03*
X0103399Y0081494D03*
X0096119Y0076294D03*
X0079089Y0075904D03*
X0130569Y0155839D03*
X0109769Y0159219D03*
X0109769Y0162079D03*
D153*
X0114059Y0161039D03*
X0114059Y0160909D03*
X0114059Y0159869D03*
X0114059Y0158309D03*
X0114059Y0156619D03*
X0117179Y0155839D03*
X0120039Y0156619D03*
X0117179Y0158959D03*
X0117049Y0162079D03*
X0122249Y0161819D03*
X0122249Y0161689D03*
X0122249Y0159219D03*
X0122769Y0156229D03*
X0119779Y0084224D03*
X0119779Y0084094D03*
X0119779Y0083964D03*
X0119779Y0083834D03*
X0119779Y0083704D03*
X0119779Y0083574D03*
X0126539Y0080454D03*
X0129919Y0080064D03*
X0113149Y0078244D03*
X0111589Y0079414D03*
X0109509Y0077984D03*
X0106519Y0076424D03*
X0106389Y0076294D03*
X0109769Y0075644D03*
X0105999Y0080714D03*
X0101709Y0077204D03*
X0098199Y0076684D03*
X0094039Y0076684D03*
X0093909Y0076814D03*
X0093779Y0076944D03*
X0090139Y0079674D03*
X0090139Y0079804D03*
X0093779Y0081234D03*
X0098069Y0081364D03*
X0098199Y0081234D03*
X0084809Y0075644D03*
X0081299Y0076424D03*
X0081169Y0076294D03*
X0076749Y0076424D03*
X0076619Y0076554D03*
X0073759Y0078244D03*
X0072199Y0079414D03*
X0070119Y0078114D03*
X0070119Y0077984D03*
X0070379Y0075644D03*
X0072329Y0074474D03*
X0072199Y0082274D03*
X0080909Y0081624D03*
X0081039Y0081494D03*
D154*
X0078764Y0082274D03*
X0071744Y0078764D03*
X0095924Y0081884D03*
X0103204Y0081754D03*
X0111134Y0078764D03*
X0109574Y0155839D03*
X0109574Y0159479D03*
X0109574Y0161819D03*
X0130764Y0162469D03*
X0130764Y0156229D03*
D155*
X0130634Y0155969D03*
X0095924Y0081754D03*
X0111264Y0078504D03*
X0078764Y0082144D03*
X0071874Y0078504D03*
D156*
X0073564Y0078374D03*
X0070704Y0081104D03*
X0070574Y0075514D03*
X0080974Y0076164D03*
X0080714Y0081754D03*
X0090074Y0079934D03*
X0093974Y0081364D03*
X0094104Y0081494D03*
X0097874Y0081494D03*
X0098134Y0076554D03*
X0096314Y0075254D03*
X0101774Y0076944D03*
X0101774Y0077074D03*
X0106324Y0076164D03*
X0109964Y0075514D03*
X0109574Y0078114D03*
X0112954Y0078374D03*
X0113084Y0075514D03*
X0105804Y0080844D03*
X0105674Y0080974D03*
X0111654Y0082274D03*
X0127904Y0081494D03*
X0129854Y0080194D03*
X0122834Y0155969D03*
X0122834Y0156099D03*
X0122184Y0159089D03*
X0122184Y0161949D03*
X0117114Y0162209D03*
X0117244Y0159089D03*
X0113994Y0159999D03*
X0113994Y0160129D03*
X0113994Y0160259D03*
X0113994Y0160389D03*
X0113994Y0160519D03*
X0113994Y0160649D03*
X0113994Y0160779D03*
D157*
X0114124Y0159739D03*
X0117114Y0158829D03*
X0117114Y0155969D03*
X0117414Y0154799D03*
X0122704Y0156359D03*
X0122314Y0159349D03*
X0122314Y0159479D03*
X0122314Y0161559D03*
X0119324Y0161169D03*
X0117114Y0160909D03*
X0119844Y0083444D03*
X0123484Y0081104D03*
X0126474Y0080324D03*
X0126474Y0080194D03*
X0129984Y0079934D03*
X0129984Y0079804D03*
X0113344Y0075774D03*
X0113214Y0075644D03*
X0111784Y0074474D03*
X0109704Y0075774D03*
X0109444Y0077724D03*
X0109444Y0077854D03*
X0106714Y0076814D03*
X0106584Y0076554D03*
X0106454Y0080064D03*
X0106324Y0080324D03*
X0106194Y0080454D03*
X0106064Y0080584D03*
X0109834Y0080844D03*
X0109964Y0080974D03*
X0101514Y0080844D03*
X0098264Y0081104D03*
X0098394Y0076944D03*
X0098394Y0076814D03*
X0101644Y0077334D03*
X0093714Y0077074D03*
X0093584Y0077204D03*
X0093584Y0080974D03*
X0093714Y0081104D03*
X0090984Y0081364D03*
X0090854Y0081104D03*
X0090204Y0079544D03*
X0084744Y0076814D03*
X0084744Y0075514D03*
X0081364Y0076554D03*
X0081364Y0080974D03*
X0081234Y0081234D03*
X0081104Y0081364D03*
X0076684Y0081754D03*
X0070574Y0080974D03*
X0070444Y0080844D03*
X0070054Y0077854D03*
X0070054Y0077724D03*
X0070314Y0075774D03*
X0073824Y0075644D03*
X0073954Y0075774D03*
X0076424Y0076814D03*
X0076554Y0076684D03*
D158*
X0079089Y0075644D03*
X0072069Y0075384D03*
X0071679Y0078894D03*
X0096119Y0076034D03*
X0104569Y0075904D03*
X0111459Y0075384D03*
X0111069Y0078894D03*
X0109509Y0155969D03*
X0109509Y0158959D03*
X0109509Y0159609D03*
X0109509Y0159739D03*
X0109509Y0161559D03*
X0109509Y0161689D03*
X0130829Y0156489D03*
X0130829Y0156359D03*
D159*
X0130699Y0156099D03*
X0109639Y0159089D03*
X0109639Y0159349D03*
X0109639Y0161949D03*
X0111199Y0078634D03*
X0079089Y0075774D03*
X0071809Y0078634D03*
D160*
X0072004Y0075254D03*
X0078764Y0082404D03*
X0095924Y0082014D03*
X0103074Y0081884D03*
X0104634Y0075774D03*
X0111394Y0075254D03*
X0111394Y0075124D03*
X0109444Y0156099D03*
X0109444Y0158829D03*
X0109444Y0159869D03*
X0109444Y0159999D03*
X0109444Y0161299D03*
X0109444Y0161429D03*
X0130894Y0156879D03*
X0130894Y0156749D03*
X0130894Y0156619D03*
D161*
X0125889Y0156619D03*
X0122639Y0156619D03*
X0122639Y0156489D03*
X0122509Y0157009D03*
X0122379Y0159609D03*
X0122379Y0159739D03*
X0122379Y0159869D03*
X0122379Y0161169D03*
X0122379Y0161299D03*
X0122379Y0161429D03*
X0117049Y0161429D03*
X0117049Y0161299D03*
X0117049Y0161169D03*
X0117049Y0161039D03*
X0117049Y0161559D03*
X0117049Y0161689D03*
X0117049Y0161819D03*
X0117049Y0161949D03*
X0114189Y0161169D03*
X0117049Y0158699D03*
X0117049Y0156229D03*
X0119779Y0084354D03*
X0119779Y0083314D03*
X0116399Y0082794D03*
X0116399Y0082664D03*
X0116399Y0082534D03*
X0116399Y0082404D03*
X0116399Y0082274D03*
X0116399Y0082144D03*
X0116399Y0082014D03*
X0116399Y0081884D03*
X0116399Y0081754D03*
X0116399Y0081624D03*
X0113279Y0078114D03*
X0113409Y0077984D03*
X0113409Y0077854D03*
X0113539Y0077594D03*
X0113539Y0076294D03*
X0113539Y0076164D03*
X0113409Y0076034D03*
X0113409Y0075904D03*
X0116399Y0076424D03*
X0116399Y0076554D03*
X0116399Y0076684D03*
X0116399Y0076814D03*
X0116399Y0076944D03*
X0116399Y0077074D03*
X0116399Y0077204D03*
X0120169Y0075774D03*
X0123159Y0075904D03*
X0123029Y0076944D03*
X0123159Y0080584D03*
X0123289Y0080844D03*
X0123289Y0080974D03*
X0124459Y0082274D03*
X0129789Y0082014D03*
X0129789Y0081884D03*
X0129789Y0081754D03*
X0129919Y0081234D03*
X0130049Y0079674D03*
X0130049Y0079544D03*
X0130179Y0079284D03*
X0130179Y0079154D03*
X0130179Y0079024D03*
X0130179Y0078894D03*
X0130179Y0074864D03*
X0130179Y0074734D03*
X0109639Y0075904D03*
X0109509Y0076294D03*
X0109379Y0077334D03*
X0109379Y0077464D03*
X0109379Y0077594D03*
X0106909Y0077594D03*
X0106909Y0077724D03*
X0106909Y0077854D03*
X0106909Y0077984D03*
X0106909Y0078114D03*
X0106909Y0078244D03*
X0106909Y0078374D03*
X0106909Y0078504D03*
X0106779Y0079154D03*
X0106779Y0079284D03*
X0106649Y0079544D03*
X0106649Y0079674D03*
X0106519Y0079934D03*
X0106389Y0080194D03*
X0109639Y0080454D03*
X0109769Y0080714D03*
X0106909Y0077464D03*
X0106909Y0077334D03*
X0106779Y0077074D03*
X0106779Y0076944D03*
X0106649Y0076684D03*
X0098849Y0078244D03*
X0098849Y0078374D03*
X0098849Y0078504D03*
X0098849Y0078634D03*
X0098849Y0078764D03*
X0098849Y0078894D03*
X0098849Y0079024D03*
X0098849Y0079154D03*
X0098849Y0079284D03*
X0098849Y0079414D03*
X0098849Y0079544D03*
X0098719Y0080194D03*
X0098589Y0080584D03*
X0098459Y0080844D03*
X0098329Y0080974D03*
X0098719Y0077724D03*
X0098719Y0077594D03*
X0098589Y0077334D03*
X0098589Y0077204D03*
X0098459Y0077074D03*
X0093519Y0077334D03*
X0093519Y0077464D03*
X0093389Y0077594D03*
X0093389Y0077724D03*
X0093259Y0077984D03*
X0093259Y0078114D03*
X0093259Y0078244D03*
X0093259Y0079934D03*
X0093259Y0080064D03*
X0093259Y0080194D03*
X0093389Y0080454D03*
X0093389Y0080584D03*
X0093519Y0080714D03*
X0093519Y0080844D03*
X0091049Y0081494D03*
X0091049Y0081624D03*
X0090919Y0081234D03*
X0090789Y0080974D03*
X0090789Y0080844D03*
X0090659Y0080714D03*
X0090139Y0079414D03*
X0090139Y0079284D03*
X0090139Y0079154D03*
X0090139Y0079024D03*
X0090139Y0078894D03*
X0090139Y0078764D03*
X0090139Y0078634D03*
X0090139Y0077204D03*
X0090269Y0076424D03*
X0090269Y0076294D03*
X0090399Y0075904D03*
X0081819Y0077594D03*
X0081819Y0077724D03*
X0081819Y0077854D03*
X0081819Y0077984D03*
X0081689Y0077334D03*
X0081689Y0077204D03*
X0081689Y0077074D03*
X0081559Y0076944D03*
X0081559Y0076814D03*
X0081429Y0076684D03*
X0081819Y0079154D03*
X0081819Y0079284D03*
X0081819Y0079414D03*
X0081819Y0079544D03*
X0081689Y0080064D03*
X0081689Y0080194D03*
X0081559Y0080454D03*
X0081559Y0080584D03*
X0081429Y0080844D03*
X0081299Y0081104D03*
X0076619Y0081624D03*
X0073889Y0078114D03*
X0074019Y0077984D03*
X0074019Y0077854D03*
X0074149Y0077594D03*
X0074149Y0077464D03*
X0074149Y0076424D03*
X0074149Y0076294D03*
X0074019Y0076034D03*
X0074019Y0075904D03*
X0076359Y0076944D03*
X0070249Y0075904D03*
X0069989Y0077204D03*
X0069989Y0077334D03*
X0069989Y0077464D03*
X0069989Y0077594D03*
X0070249Y0080454D03*
X0070249Y0080584D03*
X0070379Y0080714D03*
X0088189Y0081624D03*
X0101319Y0083054D03*
X0101319Y0083184D03*
X0101319Y0083314D03*
X0101319Y0083444D03*
D162*
X0109379Y0156229D03*
X0109379Y0158699D03*
X0109379Y0160129D03*
X0109379Y0160259D03*
X0109379Y0160389D03*
X0109379Y0160519D03*
X0109379Y0160649D03*
X0109379Y0160779D03*
X0109379Y0160909D03*
X0109379Y0161039D03*
X0109379Y0161169D03*
D163*
X0116984Y0158569D03*
X0116984Y0158439D03*
X0116984Y0156489D03*
X0116984Y0156359D03*
X0122574Y0156749D03*
X0122574Y0156879D03*
X0119714Y0084484D03*
X0116464Y0081494D03*
X0116464Y0081364D03*
X0116464Y0081234D03*
X0116464Y0081104D03*
X0116464Y0080974D03*
X0116464Y0080844D03*
X0116464Y0080714D03*
X0116464Y0080584D03*
X0116464Y0080454D03*
X0116464Y0080324D03*
X0116464Y0080194D03*
X0116464Y0080064D03*
X0116464Y0079934D03*
X0116464Y0079804D03*
X0116464Y0079674D03*
X0116464Y0079544D03*
X0116464Y0079414D03*
X0116464Y0079284D03*
X0116464Y0079154D03*
X0116464Y0079024D03*
X0116464Y0078894D03*
X0116464Y0078764D03*
X0116464Y0078634D03*
X0116464Y0078504D03*
X0116464Y0078374D03*
X0116464Y0078244D03*
X0116464Y0078114D03*
X0116464Y0077984D03*
X0116464Y0077854D03*
X0116464Y0077724D03*
X0116464Y0077594D03*
X0116464Y0077464D03*
X0116464Y0077334D03*
X0113474Y0077724D03*
X0112824Y0081104D03*
X0109574Y0080324D03*
X0109574Y0080194D03*
X0109314Y0079284D03*
X0109314Y0079154D03*
X0109314Y0079024D03*
X0106714Y0079414D03*
X0109574Y0076164D03*
X0109574Y0076034D03*
X0101514Y0075904D03*
X0101514Y0075774D03*
X0101514Y0075644D03*
X0101514Y0075514D03*
X0101514Y0075384D03*
X0101514Y0075254D03*
X0101514Y0075124D03*
X0101514Y0077464D03*
X0101514Y0077594D03*
X0101514Y0077724D03*
X0101514Y0077854D03*
X0101514Y0077984D03*
X0101514Y0078114D03*
X0101514Y0078244D03*
X0101514Y0078374D03*
X0101514Y0078504D03*
X0101514Y0078634D03*
X0101514Y0078764D03*
X0101514Y0078894D03*
X0101514Y0079024D03*
X0101514Y0079154D03*
X0101514Y0079284D03*
X0101514Y0079414D03*
X0101514Y0079544D03*
X0101514Y0079674D03*
X0101514Y0079804D03*
X0101514Y0079934D03*
X0101514Y0080064D03*
X0101514Y0080194D03*
X0101514Y0080324D03*
X0101514Y0080454D03*
X0101514Y0080584D03*
X0101514Y0080714D03*
X0098524Y0080714D03*
X0093324Y0080324D03*
X0093324Y0077854D03*
X0090074Y0077854D03*
X0090074Y0077984D03*
X0090074Y0078114D03*
X0090074Y0078244D03*
X0090074Y0078374D03*
X0090074Y0078504D03*
X0090074Y0077724D03*
X0090074Y0077594D03*
X0090074Y0077464D03*
X0090074Y0077334D03*
X0090464Y0075774D03*
X0090464Y0075644D03*
X0090464Y0075514D03*
X0087474Y0080584D03*
X0081624Y0080324D03*
X0074214Y0077334D03*
X0074214Y0077204D03*
X0074214Y0077074D03*
X0074214Y0076944D03*
X0074214Y0076814D03*
X0074214Y0076684D03*
X0074214Y0076554D03*
X0069924Y0079024D03*
X0069924Y0079154D03*
X0069924Y0079284D03*
X0069924Y0079414D03*
X0119974Y0077724D03*
X0119974Y0077594D03*
X0119974Y0077464D03*
X0119974Y0077334D03*
X0119974Y0077204D03*
X0119974Y0077074D03*
X0119974Y0076944D03*
X0119974Y0076814D03*
X0119974Y0076684D03*
X0119974Y0076554D03*
X0122964Y0077074D03*
X0122964Y0077204D03*
X0122964Y0077334D03*
X0122964Y0077464D03*
X0122964Y0077594D03*
X0122964Y0077724D03*
X0122964Y0077854D03*
X0122964Y0077984D03*
X0122964Y0078114D03*
X0122964Y0078244D03*
X0122964Y0078374D03*
X0122964Y0078504D03*
X0122964Y0078634D03*
X0122964Y0078764D03*
X0122964Y0078894D03*
X0122964Y0079024D03*
X0122964Y0079154D03*
X0122964Y0079284D03*
X0122964Y0079414D03*
X0122964Y0079544D03*
X0122964Y0079674D03*
X0122964Y0079804D03*
X0122964Y0079934D03*
X0123224Y0080714D03*
X0126474Y0080064D03*
X0126474Y0079934D03*
X0126474Y0079804D03*
X0126474Y0079674D03*
X0126474Y0079544D03*
X0126474Y0079414D03*
X0130114Y0079414D03*
X0129724Y0082144D03*
X0129724Y0082274D03*
X0129724Y0082404D03*
X0130114Y0074604D03*
X0130114Y0074474D03*
X0126474Y0074994D03*
X0126474Y0075124D03*
X0126474Y0075254D03*
X0123224Y0075254D03*
X0123224Y0075384D03*
X0123224Y0075514D03*
X0123224Y0075644D03*
X0123224Y0075774D03*
D164*
X0104634Y0075644D03*
X0096184Y0075904D03*
X0095924Y0082144D03*
X0078764Y0082534D03*
X0079154Y0075514D03*
X0109314Y0156359D03*
X0109314Y0158439D03*
X0109314Y0158569D03*
X0121014Y0157139D03*
X0131024Y0157789D03*
X0131024Y0157919D03*
X0131024Y0158049D03*
X0131024Y0158179D03*
X0131024Y0158309D03*
X0131024Y0158439D03*
X0131024Y0158569D03*
X0131024Y0158699D03*
X0131024Y0158829D03*
X0131024Y0158959D03*
X0131024Y0159089D03*
X0131024Y0159219D03*
X0131024Y0159349D03*
X0131024Y0159479D03*
X0131024Y0159609D03*
X0131024Y0159739D03*
X0131024Y0159869D03*
X0131024Y0159999D03*
X0131024Y0160129D03*
X0131024Y0160259D03*
X0131024Y0160389D03*
X0131024Y0160519D03*
X0131024Y0160649D03*
X0131024Y0160779D03*
X0131024Y0160909D03*
X0131024Y0161039D03*
X0131024Y0161169D03*
X0131024Y0161299D03*
X0131024Y0161429D03*
X0131024Y0161559D03*
X0131024Y0161689D03*
X0131024Y0161819D03*
X0131024Y0161949D03*
X0131024Y0162079D03*
X0131024Y0162209D03*
D165*
X0119974Y0156489D03*
X0119844Y0082144D03*
X0120234Y0074994D03*
X0123484Y0074344D03*
X0126474Y0074604D03*
X0109964Y0074084D03*
X0101514Y0074734D03*
X0091114Y0082014D03*
X0070574Y0074084D03*
D166*
X0072069Y0081364D03*
X0109249Y0156489D03*
X0109249Y0156619D03*
X0109249Y0156749D03*
X0109249Y0158179D03*
X0109249Y0158309D03*
X0120949Y0157399D03*
X0120949Y0157269D03*
D167*
X0116919Y0156879D03*
X0116919Y0156749D03*
X0116919Y0156619D03*
X0116919Y0158049D03*
X0116919Y0158179D03*
X0116919Y0158309D03*
X0119779Y0083184D03*
X0119779Y0081884D03*
X0123029Y0080064D03*
X0126539Y0079284D03*
X0126539Y0079154D03*
X0126539Y0079024D03*
X0126539Y0078894D03*
X0126539Y0078764D03*
X0126539Y0075514D03*
X0126539Y0075384D03*
X0123289Y0075124D03*
X0119909Y0077854D03*
X0109899Y0074604D03*
X0109899Y0074474D03*
X0109899Y0074344D03*
X0109379Y0079414D03*
X0109379Y0079544D03*
X0101579Y0074994D03*
X0101189Y0084224D03*
X0091049Y0081754D03*
X0084679Y0076944D03*
X0084809Y0075384D03*
X0090529Y0075384D03*
X0076229Y0077334D03*
X0076489Y0081104D03*
X0076489Y0081234D03*
X0069989Y0079674D03*
X0069989Y0079544D03*
X0069989Y0076944D03*
X0070509Y0074474D03*
X0070509Y0074344D03*
X0129659Y0082534D03*
X0129659Y0082664D03*
D168*
X0106129Y0076034D03*
X0094169Y0076554D03*
X0113929Y0156749D03*
X0113929Y0158179D03*
X0122119Y0158959D03*
X0122119Y0162079D03*
X0125889Y0156749D03*
D169*
X0125889Y0157009D03*
X0125889Y0157139D03*
X0120169Y0156879D03*
X0121859Y0162339D03*
X0124589Y0082014D03*
X0111589Y0082144D03*
X0090009Y0080454D03*
X0088189Y0081364D03*
X0080259Y0082014D03*
X0072199Y0082144D03*
D170*
X0071939Y0075124D03*
X0071939Y0074994D03*
X0130959Y0157009D03*
X0130959Y0157139D03*
X0130959Y0157269D03*
X0130959Y0157399D03*
X0130959Y0157529D03*
X0130959Y0157659D03*
X0130959Y0162339D03*
D171*
X0116854Y0157919D03*
X0116854Y0157789D03*
X0116854Y0157659D03*
X0116854Y0157529D03*
X0116854Y0157399D03*
X0116854Y0157269D03*
X0116854Y0157139D03*
X0116854Y0157009D03*
X0116334Y0083574D03*
X0116334Y0083444D03*
X0119844Y0082014D03*
X0112954Y0080974D03*
X0109964Y0074214D03*
X0116204Y0074214D03*
X0120234Y0075124D03*
X0126474Y0074864D03*
X0126474Y0074734D03*
X0130114Y0074344D03*
X0129594Y0082794D03*
X0101254Y0084354D03*
X0101514Y0074864D03*
X0091114Y0081884D03*
X0087344Y0080454D03*
X0079284Y0074864D03*
X0076424Y0080974D03*
X0073564Y0080974D03*
X0070574Y0074214D03*
D172*
X0072264Y0079154D03*
X0088254Y0081104D03*
X0111654Y0079154D03*
X0124524Y0081884D03*
X0125954Y0157659D03*
X0125954Y0157789D03*
X0121664Y0158439D03*
X0117764Y0159609D03*
D173*
X0118349Y0160389D03*
X0118349Y0160519D03*
X0118349Y0160649D03*
X0118349Y0160779D03*
X0121079Y0157789D03*
X0095989Y0082274D03*
X0104699Y0075514D03*
X0111199Y0074734D03*
X0078699Y0082664D03*
X0071809Y0074734D03*
D174*
X0072199Y0082014D03*
X0078699Y0082924D03*
X0088319Y0080974D03*
X0102359Y0076034D03*
X0103659Y0082014D03*
X0111589Y0082014D03*
X0125889Y0157919D03*
X0125889Y0158049D03*
X0125889Y0158179D03*
X0125889Y0158309D03*
X0125889Y0158439D03*
X0125889Y0158569D03*
X0125889Y0158699D03*
X0125889Y0158829D03*
X0125889Y0158959D03*
X0125889Y0159089D03*
X0125889Y0159219D03*
X0125889Y0159349D03*
X0125889Y0159479D03*
X0125889Y0159609D03*
X0125889Y0159739D03*
X0125889Y0159869D03*
X0125889Y0159999D03*
X0125889Y0160129D03*
X0125889Y0160259D03*
X0125889Y0160389D03*
X0125889Y0160519D03*
X0125889Y0160649D03*
X0125889Y0160779D03*
X0125889Y0160909D03*
X0125889Y0161039D03*
X0125889Y0161169D03*
X0125889Y0161299D03*
X0125889Y0161429D03*
X0125889Y0161559D03*
X0125889Y0161689D03*
X0125889Y0161819D03*
X0125889Y0161949D03*
X0125889Y0162079D03*
X0125889Y0162209D03*
X0125889Y0162339D03*
D175*
X0121144Y0157919D03*
X0124654Y0081234D03*
X0072134Y0081624D03*
D176*
X0079154Y0075254D03*
X0095924Y0082404D03*
X0121274Y0158049D03*
X0118154Y0159999D03*
D177*
X0117894Y0159739D03*
X0121534Y0158309D03*
X0124524Y0081754D03*
X0095924Y0082534D03*
X0079154Y0075124D03*
D178*
X0088254Y0081234D03*
X0127904Y0081234D03*
X0121794Y0158569D03*
D179*
X0117634Y0159479D03*
X0102164Y0076164D03*
D180*
X0098654Y0077464D03*
X0098784Y0077854D03*
X0098784Y0077984D03*
X0098784Y0078114D03*
X0098784Y0079674D03*
X0098784Y0079804D03*
X0098784Y0079934D03*
X0098784Y0080064D03*
X0098654Y0080324D03*
X0098654Y0080454D03*
X0101384Y0082014D03*
X0101384Y0082144D03*
X0101384Y0082274D03*
X0101384Y0082404D03*
X0101384Y0082534D03*
X0101384Y0082664D03*
X0101384Y0082794D03*
X0101384Y0082924D03*
X0101254Y0083574D03*
X0101254Y0083704D03*
X0101254Y0083834D03*
X0101254Y0083964D03*
X0101254Y0084094D03*
X0106584Y0079804D03*
X0106844Y0079024D03*
X0106844Y0078894D03*
X0106844Y0078764D03*
X0106844Y0078634D03*
X0106844Y0077204D03*
X0109444Y0077204D03*
X0109444Y0077074D03*
X0109444Y0076944D03*
X0109444Y0076814D03*
X0109444Y0076684D03*
X0109444Y0076554D03*
X0109444Y0076424D03*
X0109444Y0079674D03*
X0109444Y0079804D03*
X0109444Y0079934D03*
X0109444Y0080064D03*
X0109704Y0080584D03*
X0113604Y0077464D03*
X0113604Y0077334D03*
X0113604Y0077204D03*
X0113604Y0077074D03*
X0113604Y0076944D03*
X0113604Y0076814D03*
X0113604Y0076684D03*
X0113604Y0076554D03*
X0113604Y0076424D03*
X0116334Y0076294D03*
X0116334Y0076164D03*
X0116334Y0076034D03*
X0116334Y0075904D03*
X0116334Y0075774D03*
X0116334Y0075644D03*
X0116334Y0075514D03*
X0116334Y0075384D03*
X0116334Y0075254D03*
X0116334Y0075124D03*
X0116334Y0074994D03*
X0116334Y0074864D03*
X0120104Y0075904D03*
X0120104Y0076034D03*
X0120104Y0076164D03*
X0120104Y0076294D03*
X0120104Y0076424D03*
X0120234Y0075644D03*
X0120234Y0075514D03*
X0120234Y0075384D03*
X0120234Y0075254D03*
X0123094Y0076034D03*
X0123094Y0076164D03*
X0123094Y0076294D03*
X0123094Y0076424D03*
X0123094Y0076554D03*
X0123094Y0076684D03*
X0123094Y0076814D03*
X0123354Y0074994D03*
X0123354Y0074864D03*
X0126604Y0075644D03*
X0126604Y0075774D03*
X0126604Y0075904D03*
X0126604Y0076034D03*
X0126604Y0076164D03*
X0126604Y0076294D03*
X0126604Y0076424D03*
X0126604Y0076554D03*
X0126604Y0076684D03*
X0126604Y0076814D03*
X0126604Y0076944D03*
X0126604Y0077074D03*
X0126604Y0077204D03*
X0126604Y0077334D03*
X0126604Y0077464D03*
X0126604Y0077594D03*
X0126604Y0077724D03*
X0126604Y0077854D03*
X0126604Y0077984D03*
X0126604Y0078114D03*
X0126604Y0078244D03*
X0126604Y0078374D03*
X0126604Y0078504D03*
X0126604Y0078634D03*
X0123094Y0080194D03*
X0123094Y0080324D03*
X0123094Y0080454D03*
X0119844Y0080454D03*
X0119844Y0080584D03*
X0119844Y0080714D03*
X0119844Y0080844D03*
X0119844Y0080974D03*
X0119844Y0081104D03*
X0119844Y0081234D03*
X0119844Y0081364D03*
X0119844Y0081494D03*
X0119844Y0081624D03*
X0119844Y0081754D03*
X0119844Y0080324D03*
X0119844Y0080194D03*
X0119844Y0080064D03*
X0119844Y0079934D03*
X0119844Y0079804D03*
X0119844Y0079674D03*
X0119844Y0079544D03*
X0119844Y0079414D03*
X0119844Y0079284D03*
X0119844Y0079154D03*
X0119844Y0079024D03*
X0119844Y0078894D03*
X0119844Y0078764D03*
X0119844Y0078634D03*
X0119844Y0078504D03*
X0119844Y0078374D03*
X0119844Y0078244D03*
X0119844Y0078114D03*
X0119844Y0077984D03*
X0116334Y0082924D03*
X0116334Y0083054D03*
X0116334Y0083184D03*
X0116334Y0083314D03*
X0127904Y0081624D03*
X0129854Y0081624D03*
X0129854Y0081494D03*
X0129854Y0081364D03*
X0130244Y0078764D03*
X0130244Y0078634D03*
X0130244Y0078504D03*
X0130244Y0078374D03*
X0130244Y0078244D03*
X0130244Y0078114D03*
X0130244Y0077984D03*
X0130244Y0077854D03*
X0130244Y0077724D03*
X0130244Y0077594D03*
X0130244Y0077464D03*
X0130244Y0077334D03*
X0130244Y0077204D03*
X0130244Y0077074D03*
X0130244Y0076944D03*
X0130244Y0076814D03*
X0130244Y0076684D03*
X0130244Y0076554D03*
X0130244Y0076424D03*
X0130244Y0076294D03*
X0130244Y0076164D03*
X0130244Y0076034D03*
X0130244Y0075904D03*
X0130244Y0075774D03*
X0130244Y0075644D03*
X0130244Y0075514D03*
X0130244Y0075384D03*
X0130244Y0075254D03*
X0130244Y0075124D03*
X0130244Y0074994D03*
X0093194Y0078374D03*
X0093194Y0078504D03*
X0093194Y0078634D03*
X0093194Y0078764D03*
X0093194Y0078894D03*
X0093194Y0079024D03*
X0093194Y0079154D03*
X0093194Y0079284D03*
X0093194Y0079414D03*
X0093194Y0079544D03*
X0093194Y0079674D03*
X0093194Y0079804D03*
X0090204Y0077074D03*
X0090204Y0076944D03*
X0090204Y0076814D03*
X0090204Y0076684D03*
X0090204Y0076554D03*
X0090334Y0076164D03*
X0090334Y0076034D03*
X0081754Y0077464D03*
X0081884Y0078114D03*
X0081884Y0078244D03*
X0081884Y0078374D03*
X0081884Y0078504D03*
X0081884Y0078634D03*
X0081884Y0078764D03*
X0081884Y0078894D03*
X0081884Y0079024D03*
X0081754Y0079674D03*
X0081754Y0079804D03*
X0081754Y0079934D03*
X0081494Y0080714D03*
X0076554Y0081364D03*
X0076554Y0081494D03*
X0073434Y0081104D03*
X0070184Y0080324D03*
X0070184Y0080194D03*
X0070054Y0080064D03*
X0070054Y0079934D03*
X0070054Y0079804D03*
X0070054Y0077074D03*
X0070054Y0076814D03*
X0070054Y0076684D03*
X0070054Y0076554D03*
X0070054Y0076424D03*
X0070054Y0076294D03*
X0070184Y0076164D03*
X0070184Y0076034D03*
X0070444Y0074604D03*
X0074084Y0076164D03*
X0074084Y0077724D03*
X0076294Y0077204D03*
X0076294Y0077074D03*
X0114254Y0159609D03*
X0122444Y0159999D03*
X0122444Y0160129D03*
X0122444Y0160259D03*
X0122444Y0160389D03*
X0122444Y0160519D03*
X0122444Y0160649D03*
X0122444Y0160779D03*
X0122444Y0160909D03*
X0122444Y0161039D03*
D181*
X0118219Y0160129D03*
X0125889Y0162469D03*
X0124589Y0081364D03*
X0111589Y0081754D03*
X0104699Y0075384D03*
X0096249Y0075644D03*
X0072199Y0081754D03*
D182*
X0111524Y0081624D03*
X0118284Y0160259D03*
D183*
X0119259Y0161039D03*
X0088189Y0081494D03*
X0090139Y0080064D03*
X0097939Y0076424D03*
X0101839Y0076814D03*
X0109639Y0078244D03*
X0129789Y0080324D03*
X0077139Y0076164D03*
X0073239Y0081234D03*
X0070249Y0078244D03*
D184*
X0076229Y0077464D03*
X0076489Y0080844D03*
X0090529Y0075254D03*
X0116139Y0074084D03*
X0123419Y0074474D03*
X0130179Y0074214D03*
X0119779Y0084614D03*
X0119389Y0161299D03*
D185*
X0109899Y0162209D03*
X0103529Y0081234D03*
X0127839Y0081104D03*
D186*
X0124589Y0081624D03*
X0104699Y0075254D03*
X0096249Y0075514D03*
X0121859Y0162469D03*
D187*
X0112889Y0162469D03*
D188*
X0100954Y0031414D03*
D189*
X0100894Y0031534D03*
D190*
X0100954Y0031654D03*
D191*
X0100954Y0031774D03*
X0108514Y0042934D03*
D192*
X0100954Y0052294D03*
X0100954Y0031894D03*
D193*
X0100954Y0032014D03*
D194*
X0100954Y0032134D03*
D195*
X0100954Y0032254D03*
D196*
X0100954Y0032374D03*
D197*
X0100954Y0032494D03*
X0100954Y0051694D03*
D198*
X0100954Y0032614D03*
D199*
X0100954Y0032734D03*
D200*
X0100954Y0032854D03*
D201*
X0100954Y0032974D03*
D202*
X0100954Y0033094D03*
X0100954Y0051094D03*
D203*
X0100954Y0033214D03*
D204*
X0100954Y0033334D03*
D205*
X0100954Y0033454D03*
D206*
X0100954Y0033574D03*
D207*
X0100954Y0033694D03*
X0100954Y0050494D03*
D208*
X0100954Y0033814D03*
D209*
X0100954Y0033934D03*
D210*
X0100954Y0034054D03*
D211*
X0100954Y0034174D03*
D212*
X0100954Y0034294D03*
X0100954Y0049894D03*
D213*
X0100954Y0034414D03*
D214*
X0100954Y0034534D03*
D215*
X0100954Y0034654D03*
D216*
X0100954Y0034774D03*
D217*
X0100954Y0034894D03*
X0100954Y0049294D03*
D218*
X0100954Y0049054D03*
X0100954Y0035014D03*
D219*
X0100954Y0035134D03*
X0100954Y0049174D03*
D220*
X0100954Y0035254D03*
D221*
X0100954Y0035374D03*
D222*
X0100954Y0035494D03*
X0100954Y0048694D03*
D223*
X0100954Y0048454D03*
X0100954Y0035614D03*
D224*
X0100954Y0035734D03*
D225*
X0100954Y0035854D03*
D226*
X0100954Y0035974D03*
X0100954Y0036094D03*
X0100954Y0048094D03*
D227*
X0100954Y0036214D03*
D228*
X0100954Y0036334D03*
X0100954Y0047734D03*
D229*
X0100954Y0047854D03*
X0100954Y0036454D03*
D230*
X0100954Y0036574D03*
X0100954Y0036694D03*
X0100954Y0047494D03*
D231*
X0100954Y0036814D03*
D232*
X0100954Y0036934D03*
X0100954Y0047134D03*
D233*
X0100954Y0037054D03*
D234*
X0100954Y0037174D03*
X0100954Y0037294D03*
X0100954Y0046894D03*
D235*
X0100954Y0046654D03*
X0100954Y0037654D03*
X0100954Y0037414D03*
D236*
X0100954Y0037534D03*
X0100954Y0046534D03*
D237*
X0100954Y0046294D03*
X0100954Y0037894D03*
X0100954Y0037774D03*
D238*
X0100954Y0038014D03*
X0100954Y0038254D03*
X0100954Y0046054D03*
D239*
X0100954Y0046174D03*
X0100954Y0045934D03*
X0100954Y0038134D03*
D240*
X0100954Y0038374D03*
X0100954Y0038494D03*
X0100954Y0045694D03*
D241*
X0100954Y0045454D03*
X0100954Y0038854D03*
X0100954Y0038614D03*
D242*
X0100954Y0038734D03*
X0100954Y0045334D03*
X0100954Y0045574D03*
D243*
X0100894Y0038974D03*
D244*
X0100954Y0039094D03*
D245*
X0108934Y0039214D03*
D246*
X0104014Y0039214D03*
D247*
X0100834Y0039814D03*
X0100834Y0040054D03*
X0100714Y0039214D03*
X0098794Y0041854D03*
X0096994Y0042814D03*
D248*
X0098014Y0039214D03*
X0101614Y0044254D03*
D249*
X0092914Y0044014D03*
X0092914Y0043654D03*
X0092914Y0040654D03*
X0092914Y0040414D03*
X0092914Y0040054D03*
X0093034Y0039454D03*
X0093154Y0039214D03*
D250*
X0108934Y0039334D03*
D251*
X0103954Y0039334D03*
D252*
X0100774Y0039334D03*
X0100774Y0039574D03*
X0100774Y0039694D03*
X0098854Y0042094D03*
X0096934Y0042574D03*
X0096934Y0042694D03*
X0104014Y0042694D03*
D253*
X0101554Y0043894D03*
X0101554Y0044134D03*
X0097594Y0045094D03*
X0098074Y0039334D03*
X0103954Y0040294D03*
D254*
X0108934Y0039934D03*
X0108934Y0039694D03*
X0093094Y0039334D03*
X0092974Y0039574D03*
X0092974Y0039694D03*
X0092974Y0039934D03*
X0092974Y0044374D03*
X0092974Y0044494D03*
X0092974Y0044734D03*
D255*
X0093034Y0044854D03*
X0108994Y0039454D03*
D256*
X0104014Y0039454D03*
D257*
X0100774Y0039454D03*
X0098854Y0042214D03*
X0104014Y0042814D03*
D258*
X0101494Y0043654D03*
X0098134Y0039454D03*
D259*
X0093034Y0044974D03*
X0093034Y0045094D03*
X0108994Y0039574D03*
D260*
X0103954Y0039574D03*
X0103954Y0039694D03*
X0101674Y0045094D03*
D261*
X0101434Y0043534D03*
X0101434Y0043294D03*
X0098194Y0039694D03*
X0098194Y0039574D03*
D262*
X0092974Y0039814D03*
X0092974Y0044254D03*
X0092974Y0044614D03*
X0093214Y0045214D03*
X0108934Y0039814D03*
D263*
X0104014Y0039814D03*
X0097654Y0045214D03*
D264*
X0097534Y0044854D03*
X0101374Y0043054D03*
X0098254Y0039814D03*
D265*
X0103954Y0039934D03*
X0101674Y0044734D03*
X0100954Y0052774D03*
D266*
X0096994Y0042934D03*
X0098794Y0041974D03*
X0100834Y0039934D03*
X0103954Y0042574D03*
D267*
X0101374Y0042934D03*
X0101374Y0043174D03*
X0097534Y0044974D03*
X0098254Y0039934D03*
D268*
X0092854Y0041014D03*
X0092854Y0041254D03*
X0092854Y0041614D03*
X0092854Y0041854D03*
X0092854Y0042214D03*
X0092854Y0042454D03*
X0092854Y0042814D03*
X0092854Y0043054D03*
X0092854Y0043414D03*
X0108934Y0040054D03*
D269*
X0103954Y0040054D03*
X0101674Y0044614D03*
X0101674Y0044854D03*
D270*
X0101314Y0042814D03*
X0098314Y0040054D03*
X0097474Y0044614D03*
D271*
X0092854Y0043294D03*
X0092854Y0043174D03*
X0092854Y0042934D03*
X0092854Y0042694D03*
X0092854Y0042574D03*
X0092854Y0042334D03*
X0092854Y0042094D03*
X0092854Y0041974D03*
X0092854Y0041734D03*
X0092854Y0041494D03*
X0092854Y0041374D03*
X0092854Y0041134D03*
X0092854Y0040894D03*
X0092854Y0040774D03*
X0108934Y0040174D03*
D272*
X0104014Y0040174D03*
X0101614Y0044374D03*
X0101614Y0044494D03*
D273*
X0104014Y0042334D03*
X0100894Y0040294D03*
X0100894Y0040174D03*
X0098734Y0041734D03*
X0097054Y0043174D03*
D274*
X0097474Y0044734D03*
X0101314Y0042694D03*
X0101314Y0042574D03*
X0098314Y0040174D03*
D275*
X0092914Y0040174D03*
X0092914Y0040294D03*
X0092914Y0040534D03*
X0092914Y0043534D03*
X0092914Y0043774D03*
X0092914Y0043894D03*
X0092914Y0044134D03*
D276*
X0108874Y0040534D03*
X0108874Y0040294D03*
D277*
X0101254Y0042334D03*
X0098374Y0040294D03*
X0097414Y0044374D03*
X0097414Y0044494D03*
D278*
X0108874Y0040414D03*
D279*
X0103954Y0040414D03*
X0101554Y0044014D03*
D280*
X0104014Y0042454D03*
X0100894Y0040414D03*
X0098734Y0041614D03*
X0097054Y0043054D03*
D281*
X0098374Y0040414D03*
X0101254Y0042214D03*
X0101254Y0042454D03*
D282*
X0100954Y0040774D03*
X0100954Y0040534D03*
X0098674Y0041374D03*
X0098674Y0041494D03*
X0097114Y0043294D03*
D283*
X0097354Y0044134D03*
X0101194Y0042094D03*
X0101194Y0041974D03*
X0098434Y0040534D03*
D284*
X0108814Y0040654D03*
D285*
X0103954Y0042214D03*
X0100954Y0040654D03*
X0097114Y0043414D03*
D286*
X0097354Y0044254D03*
X0098434Y0040654D03*
X0101194Y0041854D03*
D287*
X0108874Y0040894D03*
X0108874Y0040774D03*
X0100954Y0052534D03*
D288*
X0101134Y0041734D03*
X0101134Y0041494D03*
X0104014Y0041494D03*
X0104014Y0041734D03*
X0098494Y0040894D03*
X0098494Y0040774D03*
D289*
X0098614Y0041134D03*
X0101014Y0041134D03*
X0101014Y0040894D03*
X0104014Y0041974D03*
X0104014Y0042094D03*
X0097174Y0043534D03*
D290*
X0108814Y0041254D03*
X0108814Y0041014D03*
D291*
X0101014Y0041014D03*
X0098614Y0041254D03*
X0097174Y0043654D03*
D292*
X0098554Y0041014D03*
X0101074Y0041254D03*
X0103954Y0041854D03*
D293*
X0096454Y0041014D03*
D294*
X0108814Y0041134D03*
D295*
X0099154Y0043294D03*
X0096634Y0041494D03*
X0096514Y0041134D03*
D296*
X0096514Y0041254D03*
X0096634Y0041614D03*
X0099154Y0043414D03*
X0103954Y0043654D03*
D297*
X0108754Y0041494D03*
X0108754Y0041374D03*
D298*
X0101074Y0041374D03*
X0097234Y0043774D03*
X0097234Y0043894D03*
D299*
X0099214Y0043534D03*
X0096574Y0041374D03*
X0104014Y0043774D03*
X0104014Y0043894D03*
D300*
X0108754Y0041614D03*
D301*
X0104014Y0041614D03*
X0101134Y0041614D03*
X0097294Y0044014D03*
D302*
X0108694Y0041974D03*
X0108694Y0041734D03*
D303*
X0104014Y0043534D03*
X0099094Y0043174D03*
X0096694Y0041734D03*
D304*
X0108694Y0041854D03*
D305*
X0104014Y0043414D03*
X0099094Y0043054D03*
X0096694Y0041854D03*
D306*
X0096754Y0041974D03*
X0099034Y0042934D03*
X0103954Y0043294D03*
D307*
X0108634Y0042334D03*
X0108634Y0042094D03*
D308*
X0104014Y0043174D03*
X0098974Y0042694D03*
X0098974Y0042574D03*
X0096814Y0042094D03*
D309*
X0108634Y0042214D03*
D310*
X0104014Y0043054D03*
X0096814Y0042214D03*
D311*
X0096874Y0042334D03*
X0098914Y0042334D03*
D312*
X0108574Y0042454D03*
D313*
X0098914Y0042454D03*
X0096874Y0042454D03*
D314*
X0108574Y0042574D03*
X0108574Y0042694D03*
D315*
X0108514Y0042814D03*
X0100954Y0052414D03*
D316*
X0099034Y0042814D03*
D317*
X0103954Y0042934D03*
D318*
X0108334Y0043654D03*
X0108454Y0043054D03*
D319*
X0108454Y0043174D03*
X0108454Y0043294D03*
X0108334Y0043534D03*
D320*
X0108394Y0043414D03*
D321*
X0101434Y0043414D03*
D322*
X0099214Y0043654D03*
D323*
X0108154Y0044374D03*
X0108274Y0043894D03*
X0108274Y0043774D03*
D324*
X0101494Y0043774D03*
D325*
X0108154Y0044254D03*
X0108274Y0044014D03*
D326*
X0108214Y0044134D03*
X0108094Y0044494D03*
X0108094Y0044734D03*
X0107974Y0044974D03*
D327*
X0107974Y0044854D03*
X0108094Y0044614D03*
D328*
X0101734Y0044974D03*
D329*
X0107914Y0045094D03*
D330*
X0107794Y0045214D03*
D331*
X0101674Y0045214D03*
D332*
X0100954Y0045814D03*
D333*
X0100954Y0046414D03*
D334*
X0100894Y0046774D03*
D335*
X0100894Y0047014D03*
D336*
X0100894Y0047254D03*
D337*
X0100954Y0047374D03*
D338*
X0100954Y0047614D03*
D339*
X0100954Y0047974D03*
D340*
X0100954Y0048214D03*
D341*
X0100954Y0048334D03*
D342*
X0100894Y0048574D03*
D343*
X0100954Y0048814D03*
D344*
X0100954Y0048934D03*
D345*
X0100954Y0049414D03*
D346*
X0100954Y0049534D03*
D347*
X0100954Y0049654D03*
D348*
X0100954Y0049774D03*
D349*
X0100954Y0050014D03*
D350*
X0100954Y0050134D03*
D351*
X0100954Y0050254D03*
D352*
X0100954Y0050374D03*
D353*
X0100954Y0050614D03*
D354*
X0100954Y0050734D03*
D355*
X0100954Y0050854D03*
D356*
X0100954Y0050974D03*
D357*
X0100954Y0051214D03*
D358*
X0100954Y0051334D03*
D359*
X0100954Y0051454D03*
D360*
X0100954Y0051574D03*
D361*
X0100954Y0051814D03*
D362*
X0100954Y0051934D03*
D363*
X0100954Y0052054D03*
D364*
X0100954Y0052174D03*
D365*
X0100954Y0052654D03*
D366*
X0048628Y0031870D02*
X0048631Y0032080D01*
X0048638Y0032291D01*
X0048651Y0032501D01*
X0048669Y0032710D01*
X0048692Y0032919D01*
X0048721Y0033128D01*
X0048754Y0033336D01*
X0048793Y0033543D01*
X0048836Y0033748D01*
X0048885Y0033953D01*
X0048939Y0034157D01*
X0048997Y0034359D01*
X0049061Y0034559D01*
X0049129Y0034758D01*
X0049202Y0034955D01*
X0049281Y0035151D01*
X0049363Y0035344D01*
X0049451Y0035535D01*
X0049543Y0035725D01*
X0049640Y0035911D01*
X0049742Y0036096D01*
X0049848Y0036277D01*
X0049958Y0036457D01*
X0050073Y0036633D01*
X0050192Y0036806D01*
X0050315Y0036977D01*
X0050443Y0037144D01*
X0050574Y0037309D01*
X0050709Y0037470D01*
X0050849Y0037627D01*
X0050992Y0037781D01*
X0051139Y0037932D01*
X0051290Y0038079D01*
X0051444Y0038222D01*
X0051601Y0038362D01*
X0051762Y0038497D01*
X0051927Y0038628D01*
X0052094Y0038756D01*
X0052265Y0038879D01*
X0052438Y0038998D01*
X0052614Y0039113D01*
X0052794Y0039223D01*
X0052975Y0039329D01*
X0053160Y0039431D01*
X0053346Y0039528D01*
X0053536Y0039620D01*
X0053727Y0039708D01*
X0053920Y0039790D01*
X0054116Y0039869D01*
X0054313Y0039942D01*
X0054512Y0040010D01*
X0054712Y0040074D01*
X0054914Y0040132D01*
X0055118Y0040186D01*
X0055323Y0040235D01*
X0055528Y0040278D01*
X0055735Y0040317D01*
X0055943Y0040350D01*
X0056152Y0040379D01*
X0056361Y0040402D01*
X0056570Y0040420D01*
X0056780Y0040433D01*
X0056991Y0040440D01*
X0057201Y0040443D01*
X0057411Y0040440D01*
X0057622Y0040433D01*
X0057832Y0040420D01*
X0058041Y0040402D01*
X0058250Y0040379D01*
X0058459Y0040350D01*
X0058667Y0040317D01*
X0058874Y0040278D01*
X0059079Y0040235D01*
X0059284Y0040186D01*
X0059488Y0040132D01*
X0059690Y0040074D01*
X0059890Y0040010D01*
X0060089Y0039942D01*
X0060286Y0039869D01*
X0060482Y0039790D01*
X0060675Y0039708D01*
X0060866Y0039620D01*
X0061056Y0039528D01*
X0061242Y0039431D01*
X0061427Y0039329D01*
X0061608Y0039223D01*
X0061788Y0039113D01*
X0061964Y0038998D01*
X0062137Y0038879D01*
X0062308Y0038756D01*
X0062475Y0038628D01*
X0062640Y0038497D01*
X0062801Y0038362D01*
X0062958Y0038222D01*
X0063112Y0038079D01*
X0063263Y0037932D01*
X0063410Y0037781D01*
X0063553Y0037627D01*
X0063693Y0037470D01*
X0063828Y0037309D01*
X0063959Y0037144D01*
X0064087Y0036977D01*
X0064210Y0036806D01*
X0064329Y0036633D01*
X0064444Y0036457D01*
X0064554Y0036277D01*
X0064660Y0036096D01*
X0064762Y0035911D01*
X0064859Y0035725D01*
X0064951Y0035535D01*
X0065039Y0035344D01*
X0065121Y0035151D01*
X0065200Y0034955D01*
X0065273Y0034758D01*
X0065341Y0034559D01*
X0065405Y0034359D01*
X0065463Y0034157D01*
X0065517Y0033953D01*
X0065566Y0033748D01*
X0065609Y0033543D01*
X0065648Y0033336D01*
X0065681Y0033128D01*
X0065710Y0032919D01*
X0065733Y0032710D01*
X0065751Y0032501D01*
X0065764Y0032291D01*
X0065771Y0032080D01*
X0065774Y0031870D01*
X0065771Y0031660D01*
X0065764Y0031449D01*
X0065751Y0031239D01*
X0065733Y0031030D01*
X0065710Y0030821D01*
X0065681Y0030612D01*
X0065648Y0030404D01*
X0065609Y0030197D01*
X0065566Y0029992D01*
X0065517Y0029787D01*
X0065463Y0029583D01*
X0065405Y0029381D01*
X0065341Y0029181D01*
X0065273Y0028982D01*
X0065200Y0028785D01*
X0065121Y0028589D01*
X0065039Y0028396D01*
X0064951Y0028205D01*
X0064859Y0028015D01*
X0064762Y0027829D01*
X0064660Y0027644D01*
X0064554Y0027463D01*
X0064444Y0027283D01*
X0064329Y0027107D01*
X0064210Y0026934D01*
X0064087Y0026763D01*
X0063959Y0026596D01*
X0063828Y0026431D01*
X0063693Y0026270D01*
X0063553Y0026113D01*
X0063410Y0025959D01*
X0063263Y0025808D01*
X0063112Y0025661D01*
X0062958Y0025518D01*
X0062801Y0025378D01*
X0062640Y0025243D01*
X0062475Y0025112D01*
X0062308Y0024984D01*
X0062137Y0024861D01*
X0061964Y0024742D01*
X0061788Y0024627D01*
X0061608Y0024517D01*
X0061427Y0024411D01*
X0061242Y0024309D01*
X0061056Y0024212D01*
X0060866Y0024120D01*
X0060675Y0024032D01*
X0060482Y0023950D01*
X0060286Y0023871D01*
X0060089Y0023798D01*
X0059890Y0023730D01*
X0059690Y0023666D01*
X0059488Y0023608D01*
X0059284Y0023554D01*
X0059079Y0023505D01*
X0058874Y0023462D01*
X0058667Y0023423D01*
X0058459Y0023390D01*
X0058250Y0023361D01*
X0058041Y0023338D01*
X0057832Y0023320D01*
X0057622Y0023307D01*
X0057411Y0023300D01*
X0057201Y0023297D01*
X0056991Y0023300D01*
X0056780Y0023307D01*
X0056570Y0023320D01*
X0056361Y0023338D01*
X0056152Y0023361D01*
X0055943Y0023390D01*
X0055735Y0023423D01*
X0055528Y0023462D01*
X0055323Y0023505D01*
X0055118Y0023554D01*
X0054914Y0023608D01*
X0054712Y0023666D01*
X0054512Y0023730D01*
X0054313Y0023798D01*
X0054116Y0023871D01*
X0053920Y0023950D01*
X0053727Y0024032D01*
X0053536Y0024120D01*
X0053346Y0024212D01*
X0053160Y0024309D01*
X0052975Y0024411D01*
X0052794Y0024517D01*
X0052614Y0024627D01*
X0052438Y0024742D01*
X0052265Y0024861D01*
X0052094Y0024984D01*
X0051927Y0025112D01*
X0051762Y0025243D01*
X0051601Y0025378D01*
X0051444Y0025518D01*
X0051290Y0025661D01*
X0051139Y0025808D01*
X0050992Y0025959D01*
X0050849Y0026113D01*
X0050709Y0026270D01*
X0050574Y0026431D01*
X0050443Y0026596D01*
X0050315Y0026763D01*
X0050192Y0026934D01*
X0050073Y0027107D01*
X0049958Y0027283D01*
X0049848Y0027463D01*
X0049742Y0027644D01*
X0049640Y0027829D01*
X0049543Y0028015D01*
X0049451Y0028205D01*
X0049363Y0028396D01*
X0049281Y0028589D01*
X0049202Y0028785D01*
X0049129Y0028982D01*
X0049061Y0029181D01*
X0048997Y0029381D01*
X0048939Y0029583D01*
X0048885Y0029787D01*
X0048836Y0029992D01*
X0048793Y0030197D01*
X0048754Y0030404D01*
X0048721Y0030612D01*
X0048692Y0030821D01*
X0048669Y0031030D01*
X0048651Y0031239D01*
X0048638Y0031449D01*
X0048631Y0031660D01*
X0048628Y0031870D01*
D367*
X0049420Y0031745D02*
X0049420Y0030294D01*
X0050388Y0030294D02*
X0050388Y0031745D01*
X0049904Y0032229D01*
X0049420Y0031745D01*
X0050388Y0031745D02*
X0050872Y0032229D01*
X0051355Y0032229D01*
X0051355Y0030294D01*
X0052367Y0030777D02*
X0052851Y0030294D01*
X0053818Y0030294D01*
X0054302Y0030777D01*
X0054302Y0031745D01*
X0053818Y0032229D01*
X0052851Y0032229D01*
X0052367Y0031745D01*
X0052367Y0030777D01*
X0055299Y0030294D02*
X0055783Y0030777D01*
X0055783Y0032712D01*
X0056266Y0032229D02*
X0055299Y0032229D01*
X0057263Y0032229D02*
X0058231Y0032229D01*
X0057747Y0032712D02*
X0057747Y0030777D01*
X0057263Y0030294D01*
X0059242Y0030777D02*
X0059242Y0031745D01*
X0059726Y0032229D01*
X0060693Y0032229D01*
X0061177Y0031745D01*
X0061177Y0030777D01*
X0060693Y0030294D01*
X0059726Y0030294D01*
X0059242Y0030777D01*
X0062189Y0030777D02*
X0062672Y0030294D01*
X0064124Y0030294D01*
X0064124Y0033196D01*
X0062672Y0033196D01*
X0062189Y0032712D01*
X0062189Y0032229D01*
X0062672Y0031745D01*
X0064124Y0031745D01*
X0062672Y0031745D02*
X0062189Y0031261D01*
X0062189Y0030777D01*
X0138276Y0052226D02*
X0138276Y0052709D01*
X0138760Y0053193D01*
X0141179Y0053193D01*
X0141179Y0051742D01*
X0140695Y0051258D01*
X0139727Y0051258D01*
X0139244Y0051742D01*
X0139244Y0053193D01*
X0139244Y0054205D02*
X0139244Y0055172D01*
X0139244Y0054688D02*
X0141179Y0054688D01*
X0141179Y0054205D01*
X0142146Y0054688D02*
X0142630Y0054688D01*
X0141179Y0056169D02*
X0141179Y0057137D01*
X0141662Y0056653D02*
X0139727Y0056653D01*
X0139244Y0057137D01*
X0139244Y0058133D02*
X0142146Y0058133D01*
X0141179Y0058617D02*
X0141179Y0059585D01*
X0140695Y0060068D01*
X0139244Y0060068D01*
X0139727Y0061080D02*
X0139244Y0061564D01*
X0139244Y0063015D01*
X0141179Y0063015D01*
X0141179Y0064026D02*
X0141179Y0065478D01*
X0140695Y0065961D01*
X0139727Y0065961D01*
X0139244Y0065478D01*
X0139244Y0064026D01*
X0142146Y0064026D01*
X0141179Y0061080D02*
X0139727Y0061080D01*
X0141179Y0058617D02*
X0140695Y0058133D01*
X0139727Y0066973D02*
X0139244Y0066973D01*
X0139244Y0067457D01*
X0139727Y0067457D01*
X0139727Y0066973D01*
X0139727Y0068446D02*
X0139244Y0068930D01*
X0139244Y0070381D01*
X0139727Y0071393D02*
X0139244Y0071876D01*
X0139244Y0072844D01*
X0139727Y0073328D01*
X0140695Y0073328D01*
X0141179Y0072844D01*
X0141179Y0071876D01*
X0140695Y0071393D01*
X0139727Y0071393D01*
X0141179Y0070381D02*
X0141179Y0068930D01*
X0140695Y0068446D01*
X0139727Y0068446D01*
X0139244Y0074339D02*
X0141179Y0074339D01*
X0141179Y0074823D01*
X0140695Y0075307D01*
X0141179Y0075790D01*
X0140695Y0076274D01*
X0139244Y0076274D01*
X0139244Y0075307D02*
X0140695Y0075307D01*
X0139244Y0077286D02*
X0142146Y0079221D01*
X0141179Y0080232D02*
X0141179Y0080716D01*
X0140695Y0081200D01*
X0141179Y0081684D01*
X0140695Y0082167D01*
X0139244Y0082167D01*
X0139244Y0081200D02*
X0140695Y0081200D01*
X0141179Y0080232D02*
X0139244Y0080232D01*
X0139244Y0083179D02*
X0139244Y0084146D01*
X0139244Y0083663D02*
X0141179Y0083663D01*
X0141179Y0083179D01*
X0142146Y0083663D02*
X0142630Y0083663D01*
X0142146Y0085143D02*
X0142146Y0085627D01*
X0139244Y0085627D01*
X0139244Y0085143D02*
X0139244Y0086111D01*
X0139727Y0087107D02*
X0139244Y0087591D01*
X0139244Y0089042D01*
X0140695Y0089042D01*
X0141179Y0088559D01*
X0141179Y0087591D01*
X0140211Y0087591D02*
X0140211Y0089042D01*
X0139727Y0090054D02*
X0139244Y0090538D01*
X0139244Y0091989D01*
X0142146Y0091989D01*
X0141179Y0091989D02*
X0141179Y0090538D01*
X0140695Y0090054D01*
X0139727Y0090054D01*
X0139727Y0093001D02*
X0139244Y0093484D01*
X0139244Y0094452D01*
X0139727Y0094935D01*
X0140695Y0094935D01*
X0141179Y0094452D01*
X0141179Y0093484D01*
X0140695Y0093001D01*
X0139727Y0093001D01*
X0139244Y0095947D02*
X0141179Y0095947D01*
X0140211Y0095947D02*
X0141179Y0096915D01*
X0141179Y0097398D01*
X0139244Y0098402D02*
X0142146Y0100337D01*
X0142146Y0101349D02*
X0139244Y0101349D01*
X0139244Y0103284D01*
X0139244Y0104295D02*
X0141179Y0104295D01*
X0141179Y0105747D01*
X0140695Y0106230D01*
X0139244Y0106230D01*
X0139727Y0107242D02*
X0139244Y0107726D01*
X0139244Y0109177D01*
X0140695Y0109177D01*
X0141179Y0108693D01*
X0141179Y0107726D01*
X0140211Y0107726D02*
X0140211Y0109177D01*
X0139244Y0110189D02*
X0139244Y0111640D01*
X0139727Y0112124D01*
X0140695Y0112124D01*
X0141179Y0111640D01*
X0141179Y0110189D01*
X0142146Y0110189D02*
X0139244Y0110189D01*
X0139244Y0113135D02*
X0139244Y0114103D01*
X0139244Y0113619D02*
X0142146Y0113619D01*
X0142146Y0113135D01*
X0140695Y0115099D02*
X0141179Y0115583D01*
X0141179Y0116551D01*
X0140695Y0117034D01*
X0140211Y0117034D01*
X0140211Y0115099D01*
X0139727Y0115099D02*
X0140695Y0115099D01*
X0139727Y0115099D02*
X0139244Y0115583D01*
X0139244Y0116551D01*
X0139727Y0118046D02*
X0140695Y0118046D01*
X0141179Y0118530D01*
X0141179Y0119981D01*
X0142146Y0119981D02*
X0139244Y0119981D01*
X0139244Y0118530D01*
X0139727Y0118046D01*
X0140695Y0120992D02*
X0140695Y0122927D01*
X0141662Y0123939D02*
X0139727Y0123939D01*
X0139244Y0124423D01*
X0139244Y0125390D01*
X0139727Y0125874D01*
X0139727Y0126885D02*
X0139244Y0127369D01*
X0139244Y0128337D01*
X0139727Y0128820D01*
X0140695Y0128820D01*
X0141179Y0128337D01*
X0141179Y0127369D01*
X0140695Y0126885D01*
X0139727Y0126885D01*
X0141662Y0125874D02*
X0142146Y0125390D01*
X0142146Y0124423D01*
X0141662Y0123939D01*
X0141179Y0129832D02*
X0139244Y0129832D01*
X0141179Y0129832D02*
X0141179Y0131283D01*
X0140695Y0131767D01*
X0139244Y0131767D01*
X0139727Y0133262D02*
X0139244Y0133746D01*
X0139727Y0133262D02*
X0141662Y0133262D01*
X0141179Y0132779D02*
X0141179Y0133746D01*
X0141179Y0134743D02*
X0139244Y0134743D01*
X0140211Y0134743D02*
X0141179Y0135710D01*
X0141179Y0136194D01*
X0140695Y0137198D02*
X0139727Y0137198D01*
X0139244Y0137682D01*
X0139244Y0138650D01*
X0139727Y0139133D01*
X0140695Y0139133D01*
X0141179Y0138650D01*
X0141179Y0137682D01*
X0140695Y0137198D01*
X0142146Y0140145D02*
X0142146Y0140629D01*
X0139244Y0140629D01*
X0139244Y0141112D02*
X0139244Y0140145D01*
X0139244Y0142109D02*
X0139244Y0143077D01*
X0139244Y0142593D02*
X0142146Y0142593D01*
X0142146Y0142109D01*
X0140695Y0144073D02*
X0141179Y0144557D01*
X0141179Y0145525D01*
X0140695Y0146008D01*
X0140211Y0146008D01*
X0140211Y0144073D01*
X0139727Y0144073D02*
X0140695Y0144073D01*
X0139727Y0144073D02*
X0139244Y0144557D01*
X0139244Y0145525D01*
X0139244Y0147020D02*
X0141179Y0147020D01*
X0141179Y0147987D02*
X0140211Y0147020D01*
X0141179Y0147987D02*
X0141179Y0148471D01*
X0140695Y0149475D02*
X0140695Y0151410D01*
X0139244Y0152422D02*
X0142146Y0152422D01*
X0141179Y0153389D01*
X0142146Y0154357D01*
X0139244Y0154357D01*
X0139244Y0155368D02*
X0139244Y0156336D01*
X0139244Y0155852D02*
X0141179Y0155852D01*
X0141179Y0155368D01*
X0142146Y0155852D02*
X0142630Y0155852D01*
X0141179Y0157333D02*
X0141179Y0158784D01*
X0140695Y0159268D01*
X0139244Y0159268D01*
X0139244Y0160279D02*
X0139244Y0161247D01*
X0139244Y0160763D02*
X0141179Y0160763D01*
X0141179Y0160279D01*
X0142146Y0160763D02*
X0142630Y0160763D01*
X0141179Y0157333D02*
X0139244Y0157333D01*
X0140211Y0107726D02*
X0139727Y0107242D01*
X0142146Y0103284D02*
X0142146Y0101349D01*
X0140695Y0101349D02*
X0140695Y0102316D01*
X0140211Y0087591D02*
X0139727Y0087107D01*
D368*
X0116334Y0083704D03*
X0116204Y0073954D03*
X0073564Y0080844D03*
D369*
X0076489Y0080714D03*
X0084809Y0075254D03*
X0103659Y0082274D03*
X0113019Y0080844D03*
X0130179Y0074084D03*
D370*
X0123419Y0074604D03*
X0123419Y0074734D03*
X0116269Y0074734D03*
X0116269Y0074604D03*
X0116269Y0074474D03*
X0116269Y0074344D03*
D371*
X0104764Y0074864D03*
X0101514Y0074604D03*
X0119844Y0083054D03*
D372*
X0111394Y0074994D03*
D373*
X0079219Y0074994D03*
D374*
X0076229Y0077594D03*
X0087279Y0080324D03*
X0090529Y0075124D03*
X0129659Y0082924D03*
D375*
X0110094Y0081104D03*
X0101644Y0080974D03*
X0084744Y0076684D03*
X0084744Y0076554D03*
X0084744Y0076424D03*
X0084744Y0075904D03*
X0084744Y0075774D03*
X0076944Y0076294D03*
X0073694Y0075514D03*
X0076944Y0081884D03*
D376*
X0096119Y0076164D03*
D377*
X0095794Y0082794D03*
X0084744Y0077074D03*
D378*
X0088319Y0080714D03*
X0088319Y0080844D03*
D379*
X0078699Y0082794D03*
X0124589Y0081494D03*
D380*
X0101189Y0084484D03*
D381*
X0118028Y0044996D02*
X0118030Y0045089D01*
X0118036Y0045181D01*
X0118046Y0045273D01*
X0118060Y0045364D01*
X0118077Y0045455D01*
X0118099Y0045545D01*
X0118124Y0045634D01*
X0118153Y0045722D01*
X0118186Y0045808D01*
X0118223Y0045893D01*
X0118263Y0045977D01*
X0118307Y0046058D01*
X0118354Y0046138D01*
X0118404Y0046216D01*
X0118458Y0046291D01*
X0118515Y0046364D01*
X0118575Y0046434D01*
X0118638Y0046502D01*
X0118704Y0046567D01*
X0118772Y0046629D01*
X0118843Y0046689D01*
X0118917Y0046745D01*
X0118993Y0046798D01*
X0119071Y0046847D01*
X0119151Y0046894D01*
X0119233Y0046936D01*
X0119317Y0046976D01*
X0119402Y0047011D01*
X0119489Y0047043D01*
X0119577Y0047072D01*
X0119666Y0047096D01*
X0119756Y0047117D01*
X0119847Y0047133D01*
X0119939Y0047146D01*
X0120031Y0047155D01*
X0120124Y0047160D01*
X0120216Y0047161D01*
X0120309Y0047158D01*
X0120401Y0047151D01*
X0120493Y0047140D01*
X0120584Y0047125D01*
X0120675Y0047107D01*
X0120765Y0047084D01*
X0120853Y0047058D01*
X0120941Y0047028D01*
X0121027Y0046994D01*
X0121111Y0046957D01*
X0121194Y0046915D01*
X0121275Y0046871D01*
X0121355Y0046823D01*
X0121432Y0046772D01*
X0121506Y0046717D01*
X0121579Y0046659D01*
X0121649Y0046599D01*
X0121716Y0046535D01*
X0121780Y0046469D01*
X0121842Y0046399D01*
X0121900Y0046328D01*
X0121955Y0046254D01*
X0122007Y0046177D01*
X0122056Y0046098D01*
X0122102Y0046018D01*
X0122144Y0045935D01*
X0122182Y0045851D01*
X0122217Y0045765D01*
X0122248Y0045678D01*
X0122275Y0045590D01*
X0122298Y0045500D01*
X0122318Y0045410D01*
X0122334Y0045319D01*
X0122346Y0045227D01*
X0122354Y0045135D01*
X0122358Y0045042D01*
X0122358Y0044950D01*
X0122354Y0044857D01*
X0122346Y0044765D01*
X0122334Y0044673D01*
X0122318Y0044582D01*
X0122298Y0044492D01*
X0122275Y0044402D01*
X0122248Y0044314D01*
X0122217Y0044227D01*
X0122182Y0044141D01*
X0122144Y0044057D01*
X0122102Y0043974D01*
X0122056Y0043894D01*
X0122007Y0043815D01*
X0121955Y0043738D01*
X0121900Y0043664D01*
X0121842Y0043593D01*
X0121780Y0043523D01*
X0121716Y0043457D01*
X0121649Y0043393D01*
X0121579Y0043333D01*
X0121506Y0043275D01*
X0121432Y0043220D01*
X0121355Y0043169D01*
X0121276Y0043121D01*
X0121194Y0043077D01*
X0121111Y0043035D01*
X0121027Y0042998D01*
X0120941Y0042964D01*
X0120853Y0042934D01*
X0120765Y0042908D01*
X0120675Y0042885D01*
X0120584Y0042867D01*
X0120493Y0042852D01*
X0120401Y0042841D01*
X0120309Y0042834D01*
X0120216Y0042831D01*
X0120124Y0042832D01*
X0120031Y0042837D01*
X0119939Y0042846D01*
X0119847Y0042859D01*
X0119756Y0042875D01*
X0119666Y0042896D01*
X0119577Y0042920D01*
X0119489Y0042949D01*
X0119402Y0042981D01*
X0119317Y0043016D01*
X0119233Y0043056D01*
X0119151Y0043098D01*
X0119071Y0043145D01*
X0118993Y0043194D01*
X0118917Y0043247D01*
X0118843Y0043303D01*
X0118772Y0043363D01*
X0118704Y0043425D01*
X0118638Y0043490D01*
X0118575Y0043558D01*
X0118515Y0043628D01*
X0118458Y0043701D01*
X0118404Y0043776D01*
X0118354Y0043854D01*
X0118307Y0043934D01*
X0118263Y0044015D01*
X0118223Y0044099D01*
X0118186Y0044184D01*
X0118153Y0044270D01*
X0118124Y0044358D01*
X0118099Y0044447D01*
X0118077Y0044537D01*
X0118060Y0044628D01*
X0118046Y0044719D01*
X0118036Y0044811D01*
X0118030Y0044903D01*
X0118028Y0044996D01*
X0118028Y0025311D02*
X0118030Y0025404D01*
X0118036Y0025496D01*
X0118046Y0025588D01*
X0118060Y0025679D01*
X0118077Y0025770D01*
X0118099Y0025860D01*
X0118124Y0025949D01*
X0118153Y0026037D01*
X0118186Y0026123D01*
X0118223Y0026208D01*
X0118263Y0026292D01*
X0118307Y0026373D01*
X0118354Y0026453D01*
X0118404Y0026531D01*
X0118458Y0026606D01*
X0118515Y0026679D01*
X0118575Y0026749D01*
X0118638Y0026817D01*
X0118704Y0026882D01*
X0118772Y0026944D01*
X0118843Y0027004D01*
X0118917Y0027060D01*
X0118993Y0027113D01*
X0119071Y0027162D01*
X0119151Y0027209D01*
X0119233Y0027251D01*
X0119317Y0027291D01*
X0119402Y0027326D01*
X0119489Y0027358D01*
X0119577Y0027387D01*
X0119666Y0027411D01*
X0119756Y0027432D01*
X0119847Y0027448D01*
X0119939Y0027461D01*
X0120031Y0027470D01*
X0120124Y0027475D01*
X0120216Y0027476D01*
X0120309Y0027473D01*
X0120401Y0027466D01*
X0120493Y0027455D01*
X0120584Y0027440D01*
X0120675Y0027422D01*
X0120765Y0027399D01*
X0120853Y0027373D01*
X0120941Y0027343D01*
X0121027Y0027309D01*
X0121111Y0027272D01*
X0121194Y0027230D01*
X0121275Y0027186D01*
X0121355Y0027138D01*
X0121432Y0027087D01*
X0121506Y0027032D01*
X0121579Y0026974D01*
X0121649Y0026914D01*
X0121716Y0026850D01*
X0121780Y0026784D01*
X0121842Y0026714D01*
X0121900Y0026643D01*
X0121955Y0026569D01*
X0122007Y0026492D01*
X0122056Y0026413D01*
X0122102Y0026333D01*
X0122144Y0026250D01*
X0122182Y0026166D01*
X0122217Y0026080D01*
X0122248Y0025993D01*
X0122275Y0025905D01*
X0122298Y0025815D01*
X0122318Y0025725D01*
X0122334Y0025634D01*
X0122346Y0025542D01*
X0122354Y0025450D01*
X0122358Y0025357D01*
X0122358Y0025265D01*
X0122354Y0025172D01*
X0122346Y0025080D01*
X0122334Y0024988D01*
X0122318Y0024897D01*
X0122298Y0024807D01*
X0122275Y0024717D01*
X0122248Y0024629D01*
X0122217Y0024542D01*
X0122182Y0024456D01*
X0122144Y0024372D01*
X0122102Y0024289D01*
X0122056Y0024209D01*
X0122007Y0024130D01*
X0121955Y0024053D01*
X0121900Y0023979D01*
X0121842Y0023908D01*
X0121780Y0023838D01*
X0121716Y0023772D01*
X0121649Y0023708D01*
X0121579Y0023648D01*
X0121506Y0023590D01*
X0121432Y0023535D01*
X0121355Y0023484D01*
X0121276Y0023436D01*
X0121194Y0023392D01*
X0121111Y0023350D01*
X0121027Y0023313D01*
X0120941Y0023279D01*
X0120853Y0023249D01*
X0120765Y0023223D01*
X0120675Y0023200D01*
X0120584Y0023182D01*
X0120493Y0023167D01*
X0120401Y0023156D01*
X0120309Y0023149D01*
X0120216Y0023146D01*
X0120124Y0023147D01*
X0120031Y0023152D01*
X0119939Y0023161D01*
X0119847Y0023174D01*
X0119756Y0023190D01*
X0119666Y0023211D01*
X0119577Y0023235D01*
X0119489Y0023264D01*
X0119402Y0023296D01*
X0119317Y0023331D01*
X0119233Y0023371D01*
X0119151Y0023413D01*
X0119071Y0023460D01*
X0118993Y0023509D01*
X0118917Y0023562D01*
X0118843Y0023618D01*
X0118772Y0023678D01*
X0118704Y0023740D01*
X0118638Y0023805D01*
X0118575Y0023873D01*
X0118515Y0023943D01*
X0118458Y0024016D01*
X0118404Y0024091D01*
X0118354Y0024169D01*
X0118307Y0024249D01*
X0118263Y0024330D01*
X0118223Y0024414D01*
X0118186Y0024499D01*
X0118153Y0024585D01*
X0118124Y0024673D01*
X0118099Y0024762D01*
X0118077Y0024852D01*
X0118060Y0024943D01*
X0118046Y0025034D01*
X0118036Y0025126D01*
X0118030Y0025218D01*
X0118028Y0025311D01*
X0023142Y0029642D02*
X0023144Y0029803D01*
X0023150Y0029963D01*
X0023160Y0030124D01*
X0023174Y0030284D01*
X0023192Y0030444D01*
X0023213Y0030603D01*
X0023239Y0030762D01*
X0023269Y0030920D01*
X0023302Y0031077D01*
X0023340Y0031234D01*
X0023381Y0031389D01*
X0023426Y0031543D01*
X0023475Y0031696D01*
X0023528Y0031848D01*
X0023584Y0031999D01*
X0023645Y0032148D01*
X0023708Y0032296D01*
X0023776Y0032442D01*
X0023847Y0032586D01*
X0023921Y0032728D01*
X0023999Y0032869D01*
X0024081Y0033007D01*
X0024166Y0033144D01*
X0024254Y0033278D01*
X0024346Y0033410D01*
X0024441Y0033540D01*
X0024539Y0033668D01*
X0024640Y0033793D01*
X0024744Y0033915D01*
X0024851Y0034035D01*
X0024961Y0034152D01*
X0025074Y0034267D01*
X0025190Y0034378D01*
X0025309Y0034487D01*
X0025430Y0034592D01*
X0025554Y0034695D01*
X0025680Y0034795D01*
X0025808Y0034891D01*
X0025939Y0034984D01*
X0026073Y0035074D01*
X0026208Y0035161D01*
X0026346Y0035244D01*
X0026485Y0035324D01*
X0026627Y0035400D01*
X0026770Y0035473D01*
X0026915Y0035542D01*
X0027062Y0035608D01*
X0027210Y0035670D01*
X0027360Y0035728D01*
X0027511Y0035783D01*
X0027664Y0035834D01*
X0027818Y0035881D01*
X0027973Y0035924D01*
X0028129Y0035963D01*
X0028285Y0035999D01*
X0028443Y0036030D01*
X0028601Y0036058D01*
X0028760Y0036082D01*
X0028920Y0036102D01*
X0029080Y0036118D01*
X0029240Y0036130D01*
X0029401Y0036138D01*
X0029562Y0036142D01*
X0029722Y0036142D01*
X0029883Y0036138D01*
X0030044Y0036130D01*
X0030204Y0036118D01*
X0030364Y0036102D01*
X0030524Y0036082D01*
X0030683Y0036058D01*
X0030841Y0036030D01*
X0030999Y0035999D01*
X0031155Y0035963D01*
X0031311Y0035924D01*
X0031466Y0035881D01*
X0031620Y0035834D01*
X0031773Y0035783D01*
X0031924Y0035728D01*
X0032074Y0035670D01*
X0032222Y0035608D01*
X0032369Y0035542D01*
X0032514Y0035473D01*
X0032657Y0035400D01*
X0032799Y0035324D01*
X0032938Y0035244D01*
X0033076Y0035161D01*
X0033211Y0035074D01*
X0033345Y0034984D01*
X0033476Y0034891D01*
X0033604Y0034795D01*
X0033730Y0034695D01*
X0033854Y0034592D01*
X0033975Y0034487D01*
X0034094Y0034378D01*
X0034210Y0034267D01*
X0034323Y0034152D01*
X0034433Y0034035D01*
X0034540Y0033915D01*
X0034644Y0033793D01*
X0034745Y0033668D01*
X0034843Y0033540D01*
X0034938Y0033410D01*
X0035030Y0033278D01*
X0035118Y0033144D01*
X0035203Y0033007D01*
X0035285Y0032869D01*
X0035363Y0032728D01*
X0035437Y0032586D01*
X0035508Y0032442D01*
X0035576Y0032296D01*
X0035639Y0032148D01*
X0035700Y0031999D01*
X0035756Y0031848D01*
X0035809Y0031696D01*
X0035858Y0031543D01*
X0035903Y0031389D01*
X0035944Y0031234D01*
X0035982Y0031077D01*
X0036015Y0030920D01*
X0036045Y0030762D01*
X0036071Y0030603D01*
X0036092Y0030444D01*
X0036110Y0030284D01*
X0036124Y0030124D01*
X0036134Y0029963D01*
X0036140Y0029803D01*
X0036142Y0029642D01*
X0036140Y0029481D01*
X0036134Y0029321D01*
X0036124Y0029160D01*
X0036110Y0029000D01*
X0036092Y0028840D01*
X0036071Y0028681D01*
X0036045Y0028522D01*
X0036015Y0028364D01*
X0035982Y0028207D01*
X0035944Y0028050D01*
X0035903Y0027895D01*
X0035858Y0027741D01*
X0035809Y0027588D01*
X0035756Y0027436D01*
X0035700Y0027285D01*
X0035639Y0027136D01*
X0035576Y0026988D01*
X0035508Y0026842D01*
X0035437Y0026698D01*
X0035363Y0026556D01*
X0035285Y0026415D01*
X0035203Y0026277D01*
X0035118Y0026140D01*
X0035030Y0026006D01*
X0034938Y0025874D01*
X0034843Y0025744D01*
X0034745Y0025616D01*
X0034644Y0025491D01*
X0034540Y0025369D01*
X0034433Y0025249D01*
X0034323Y0025132D01*
X0034210Y0025017D01*
X0034094Y0024906D01*
X0033975Y0024797D01*
X0033854Y0024692D01*
X0033730Y0024589D01*
X0033604Y0024489D01*
X0033476Y0024393D01*
X0033345Y0024300D01*
X0033211Y0024210D01*
X0033076Y0024123D01*
X0032938Y0024040D01*
X0032799Y0023960D01*
X0032657Y0023884D01*
X0032514Y0023811D01*
X0032369Y0023742D01*
X0032222Y0023676D01*
X0032074Y0023614D01*
X0031924Y0023556D01*
X0031773Y0023501D01*
X0031620Y0023450D01*
X0031466Y0023403D01*
X0031311Y0023360D01*
X0031155Y0023321D01*
X0030999Y0023285D01*
X0030841Y0023254D01*
X0030683Y0023226D01*
X0030524Y0023202D01*
X0030364Y0023182D01*
X0030204Y0023166D01*
X0030044Y0023154D01*
X0029883Y0023146D01*
X0029722Y0023142D01*
X0029562Y0023142D01*
X0029401Y0023146D01*
X0029240Y0023154D01*
X0029080Y0023166D01*
X0028920Y0023182D01*
X0028760Y0023202D01*
X0028601Y0023226D01*
X0028443Y0023254D01*
X0028285Y0023285D01*
X0028129Y0023321D01*
X0027973Y0023360D01*
X0027818Y0023403D01*
X0027664Y0023450D01*
X0027511Y0023501D01*
X0027360Y0023556D01*
X0027210Y0023614D01*
X0027062Y0023676D01*
X0026915Y0023742D01*
X0026770Y0023811D01*
X0026627Y0023884D01*
X0026485Y0023960D01*
X0026346Y0024040D01*
X0026208Y0024123D01*
X0026073Y0024210D01*
X0025939Y0024300D01*
X0025808Y0024393D01*
X0025680Y0024489D01*
X0025554Y0024589D01*
X0025430Y0024692D01*
X0025309Y0024797D01*
X0025190Y0024906D01*
X0025074Y0025017D01*
X0024961Y0025132D01*
X0024851Y0025249D01*
X0024744Y0025369D01*
X0024640Y0025491D01*
X0024539Y0025616D01*
X0024441Y0025744D01*
X0024346Y0025874D01*
X0024254Y0026006D01*
X0024166Y0026140D01*
X0024081Y0026277D01*
X0023999Y0026415D01*
X0023921Y0026556D01*
X0023847Y0026698D01*
X0023776Y0026842D01*
X0023708Y0026988D01*
X0023645Y0027136D01*
X0023584Y0027285D01*
X0023528Y0027436D01*
X0023475Y0027588D01*
X0023426Y0027741D01*
X0023381Y0027895D01*
X0023340Y0028050D01*
X0023302Y0028207D01*
X0023269Y0028364D01*
X0023239Y0028522D01*
X0023213Y0028681D01*
X0023192Y0028840D01*
X0023174Y0029000D01*
X0023160Y0029160D01*
X0023150Y0029321D01*
X0023144Y0029481D01*
X0023142Y0029642D01*
X0023142Y0151689D02*
X0023144Y0151850D01*
X0023150Y0152010D01*
X0023160Y0152171D01*
X0023174Y0152331D01*
X0023192Y0152491D01*
X0023213Y0152650D01*
X0023239Y0152809D01*
X0023269Y0152967D01*
X0023302Y0153124D01*
X0023340Y0153281D01*
X0023381Y0153436D01*
X0023426Y0153590D01*
X0023475Y0153743D01*
X0023528Y0153895D01*
X0023584Y0154046D01*
X0023645Y0154195D01*
X0023708Y0154343D01*
X0023776Y0154489D01*
X0023847Y0154633D01*
X0023921Y0154775D01*
X0023999Y0154916D01*
X0024081Y0155054D01*
X0024166Y0155191D01*
X0024254Y0155325D01*
X0024346Y0155457D01*
X0024441Y0155587D01*
X0024539Y0155715D01*
X0024640Y0155840D01*
X0024744Y0155962D01*
X0024851Y0156082D01*
X0024961Y0156199D01*
X0025074Y0156314D01*
X0025190Y0156425D01*
X0025309Y0156534D01*
X0025430Y0156639D01*
X0025554Y0156742D01*
X0025680Y0156842D01*
X0025808Y0156938D01*
X0025939Y0157031D01*
X0026073Y0157121D01*
X0026208Y0157208D01*
X0026346Y0157291D01*
X0026485Y0157371D01*
X0026627Y0157447D01*
X0026770Y0157520D01*
X0026915Y0157589D01*
X0027062Y0157655D01*
X0027210Y0157717D01*
X0027360Y0157775D01*
X0027511Y0157830D01*
X0027664Y0157881D01*
X0027818Y0157928D01*
X0027973Y0157971D01*
X0028129Y0158010D01*
X0028285Y0158046D01*
X0028443Y0158077D01*
X0028601Y0158105D01*
X0028760Y0158129D01*
X0028920Y0158149D01*
X0029080Y0158165D01*
X0029240Y0158177D01*
X0029401Y0158185D01*
X0029562Y0158189D01*
X0029722Y0158189D01*
X0029883Y0158185D01*
X0030044Y0158177D01*
X0030204Y0158165D01*
X0030364Y0158149D01*
X0030524Y0158129D01*
X0030683Y0158105D01*
X0030841Y0158077D01*
X0030999Y0158046D01*
X0031155Y0158010D01*
X0031311Y0157971D01*
X0031466Y0157928D01*
X0031620Y0157881D01*
X0031773Y0157830D01*
X0031924Y0157775D01*
X0032074Y0157717D01*
X0032222Y0157655D01*
X0032369Y0157589D01*
X0032514Y0157520D01*
X0032657Y0157447D01*
X0032799Y0157371D01*
X0032938Y0157291D01*
X0033076Y0157208D01*
X0033211Y0157121D01*
X0033345Y0157031D01*
X0033476Y0156938D01*
X0033604Y0156842D01*
X0033730Y0156742D01*
X0033854Y0156639D01*
X0033975Y0156534D01*
X0034094Y0156425D01*
X0034210Y0156314D01*
X0034323Y0156199D01*
X0034433Y0156082D01*
X0034540Y0155962D01*
X0034644Y0155840D01*
X0034745Y0155715D01*
X0034843Y0155587D01*
X0034938Y0155457D01*
X0035030Y0155325D01*
X0035118Y0155191D01*
X0035203Y0155054D01*
X0035285Y0154916D01*
X0035363Y0154775D01*
X0035437Y0154633D01*
X0035508Y0154489D01*
X0035576Y0154343D01*
X0035639Y0154195D01*
X0035700Y0154046D01*
X0035756Y0153895D01*
X0035809Y0153743D01*
X0035858Y0153590D01*
X0035903Y0153436D01*
X0035944Y0153281D01*
X0035982Y0153124D01*
X0036015Y0152967D01*
X0036045Y0152809D01*
X0036071Y0152650D01*
X0036092Y0152491D01*
X0036110Y0152331D01*
X0036124Y0152171D01*
X0036134Y0152010D01*
X0036140Y0151850D01*
X0036142Y0151689D01*
X0036140Y0151528D01*
X0036134Y0151368D01*
X0036124Y0151207D01*
X0036110Y0151047D01*
X0036092Y0150887D01*
X0036071Y0150728D01*
X0036045Y0150569D01*
X0036015Y0150411D01*
X0035982Y0150254D01*
X0035944Y0150097D01*
X0035903Y0149942D01*
X0035858Y0149788D01*
X0035809Y0149635D01*
X0035756Y0149483D01*
X0035700Y0149332D01*
X0035639Y0149183D01*
X0035576Y0149035D01*
X0035508Y0148889D01*
X0035437Y0148745D01*
X0035363Y0148603D01*
X0035285Y0148462D01*
X0035203Y0148324D01*
X0035118Y0148187D01*
X0035030Y0148053D01*
X0034938Y0147921D01*
X0034843Y0147791D01*
X0034745Y0147663D01*
X0034644Y0147538D01*
X0034540Y0147416D01*
X0034433Y0147296D01*
X0034323Y0147179D01*
X0034210Y0147064D01*
X0034094Y0146953D01*
X0033975Y0146844D01*
X0033854Y0146739D01*
X0033730Y0146636D01*
X0033604Y0146536D01*
X0033476Y0146440D01*
X0033345Y0146347D01*
X0033211Y0146257D01*
X0033076Y0146170D01*
X0032938Y0146087D01*
X0032799Y0146007D01*
X0032657Y0145931D01*
X0032514Y0145858D01*
X0032369Y0145789D01*
X0032222Y0145723D01*
X0032074Y0145661D01*
X0031924Y0145603D01*
X0031773Y0145548D01*
X0031620Y0145497D01*
X0031466Y0145450D01*
X0031311Y0145407D01*
X0031155Y0145368D01*
X0030999Y0145332D01*
X0030841Y0145301D01*
X0030683Y0145273D01*
X0030524Y0145249D01*
X0030364Y0145229D01*
X0030204Y0145213D01*
X0030044Y0145201D01*
X0029883Y0145193D01*
X0029722Y0145189D01*
X0029562Y0145189D01*
X0029401Y0145193D01*
X0029240Y0145201D01*
X0029080Y0145213D01*
X0028920Y0145229D01*
X0028760Y0145249D01*
X0028601Y0145273D01*
X0028443Y0145301D01*
X0028285Y0145332D01*
X0028129Y0145368D01*
X0027973Y0145407D01*
X0027818Y0145450D01*
X0027664Y0145497D01*
X0027511Y0145548D01*
X0027360Y0145603D01*
X0027210Y0145661D01*
X0027062Y0145723D01*
X0026915Y0145789D01*
X0026770Y0145858D01*
X0026627Y0145931D01*
X0026485Y0146007D01*
X0026346Y0146087D01*
X0026208Y0146170D01*
X0026073Y0146257D01*
X0025939Y0146347D01*
X0025808Y0146440D01*
X0025680Y0146536D01*
X0025554Y0146636D01*
X0025430Y0146739D01*
X0025309Y0146844D01*
X0025190Y0146953D01*
X0025074Y0147064D01*
X0024961Y0147179D01*
X0024851Y0147296D01*
X0024744Y0147416D01*
X0024640Y0147538D01*
X0024539Y0147663D01*
X0024441Y0147791D01*
X0024346Y0147921D01*
X0024254Y0148053D01*
X0024166Y0148187D01*
X0024081Y0148324D01*
X0023999Y0148462D01*
X0023921Y0148603D01*
X0023847Y0148745D01*
X0023776Y0148889D01*
X0023708Y0149035D01*
X0023645Y0149183D01*
X0023584Y0149332D01*
X0023528Y0149483D01*
X0023475Y0149635D01*
X0023426Y0149788D01*
X0023381Y0149942D01*
X0023340Y0150097D01*
X0023302Y0150254D01*
X0023269Y0150411D01*
X0023239Y0150569D01*
X0023213Y0150728D01*
X0023192Y0150887D01*
X0023174Y0151047D01*
X0023160Y0151207D01*
X0023150Y0151368D01*
X0023144Y0151528D01*
X0023142Y0151689D01*
X0204244Y0151689D02*
X0204246Y0151850D01*
X0204252Y0152010D01*
X0204262Y0152171D01*
X0204276Y0152331D01*
X0204294Y0152491D01*
X0204315Y0152650D01*
X0204341Y0152809D01*
X0204371Y0152967D01*
X0204404Y0153124D01*
X0204442Y0153281D01*
X0204483Y0153436D01*
X0204528Y0153590D01*
X0204577Y0153743D01*
X0204630Y0153895D01*
X0204686Y0154046D01*
X0204747Y0154195D01*
X0204810Y0154343D01*
X0204878Y0154489D01*
X0204949Y0154633D01*
X0205023Y0154775D01*
X0205101Y0154916D01*
X0205183Y0155054D01*
X0205268Y0155191D01*
X0205356Y0155325D01*
X0205448Y0155457D01*
X0205543Y0155587D01*
X0205641Y0155715D01*
X0205742Y0155840D01*
X0205846Y0155962D01*
X0205953Y0156082D01*
X0206063Y0156199D01*
X0206176Y0156314D01*
X0206292Y0156425D01*
X0206411Y0156534D01*
X0206532Y0156639D01*
X0206656Y0156742D01*
X0206782Y0156842D01*
X0206910Y0156938D01*
X0207041Y0157031D01*
X0207175Y0157121D01*
X0207310Y0157208D01*
X0207448Y0157291D01*
X0207587Y0157371D01*
X0207729Y0157447D01*
X0207872Y0157520D01*
X0208017Y0157589D01*
X0208164Y0157655D01*
X0208312Y0157717D01*
X0208462Y0157775D01*
X0208613Y0157830D01*
X0208766Y0157881D01*
X0208920Y0157928D01*
X0209075Y0157971D01*
X0209231Y0158010D01*
X0209387Y0158046D01*
X0209545Y0158077D01*
X0209703Y0158105D01*
X0209862Y0158129D01*
X0210022Y0158149D01*
X0210182Y0158165D01*
X0210342Y0158177D01*
X0210503Y0158185D01*
X0210664Y0158189D01*
X0210824Y0158189D01*
X0210985Y0158185D01*
X0211146Y0158177D01*
X0211306Y0158165D01*
X0211466Y0158149D01*
X0211626Y0158129D01*
X0211785Y0158105D01*
X0211943Y0158077D01*
X0212101Y0158046D01*
X0212257Y0158010D01*
X0212413Y0157971D01*
X0212568Y0157928D01*
X0212722Y0157881D01*
X0212875Y0157830D01*
X0213026Y0157775D01*
X0213176Y0157717D01*
X0213324Y0157655D01*
X0213471Y0157589D01*
X0213616Y0157520D01*
X0213759Y0157447D01*
X0213901Y0157371D01*
X0214040Y0157291D01*
X0214178Y0157208D01*
X0214313Y0157121D01*
X0214447Y0157031D01*
X0214578Y0156938D01*
X0214706Y0156842D01*
X0214832Y0156742D01*
X0214956Y0156639D01*
X0215077Y0156534D01*
X0215196Y0156425D01*
X0215312Y0156314D01*
X0215425Y0156199D01*
X0215535Y0156082D01*
X0215642Y0155962D01*
X0215746Y0155840D01*
X0215847Y0155715D01*
X0215945Y0155587D01*
X0216040Y0155457D01*
X0216132Y0155325D01*
X0216220Y0155191D01*
X0216305Y0155054D01*
X0216387Y0154916D01*
X0216465Y0154775D01*
X0216539Y0154633D01*
X0216610Y0154489D01*
X0216678Y0154343D01*
X0216741Y0154195D01*
X0216802Y0154046D01*
X0216858Y0153895D01*
X0216911Y0153743D01*
X0216960Y0153590D01*
X0217005Y0153436D01*
X0217046Y0153281D01*
X0217084Y0153124D01*
X0217117Y0152967D01*
X0217147Y0152809D01*
X0217173Y0152650D01*
X0217194Y0152491D01*
X0217212Y0152331D01*
X0217226Y0152171D01*
X0217236Y0152010D01*
X0217242Y0151850D01*
X0217244Y0151689D01*
X0217242Y0151528D01*
X0217236Y0151368D01*
X0217226Y0151207D01*
X0217212Y0151047D01*
X0217194Y0150887D01*
X0217173Y0150728D01*
X0217147Y0150569D01*
X0217117Y0150411D01*
X0217084Y0150254D01*
X0217046Y0150097D01*
X0217005Y0149942D01*
X0216960Y0149788D01*
X0216911Y0149635D01*
X0216858Y0149483D01*
X0216802Y0149332D01*
X0216741Y0149183D01*
X0216678Y0149035D01*
X0216610Y0148889D01*
X0216539Y0148745D01*
X0216465Y0148603D01*
X0216387Y0148462D01*
X0216305Y0148324D01*
X0216220Y0148187D01*
X0216132Y0148053D01*
X0216040Y0147921D01*
X0215945Y0147791D01*
X0215847Y0147663D01*
X0215746Y0147538D01*
X0215642Y0147416D01*
X0215535Y0147296D01*
X0215425Y0147179D01*
X0215312Y0147064D01*
X0215196Y0146953D01*
X0215077Y0146844D01*
X0214956Y0146739D01*
X0214832Y0146636D01*
X0214706Y0146536D01*
X0214578Y0146440D01*
X0214447Y0146347D01*
X0214313Y0146257D01*
X0214178Y0146170D01*
X0214040Y0146087D01*
X0213901Y0146007D01*
X0213759Y0145931D01*
X0213616Y0145858D01*
X0213471Y0145789D01*
X0213324Y0145723D01*
X0213176Y0145661D01*
X0213026Y0145603D01*
X0212875Y0145548D01*
X0212722Y0145497D01*
X0212568Y0145450D01*
X0212413Y0145407D01*
X0212257Y0145368D01*
X0212101Y0145332D01*
X0211943Y0145301D01*
X0211785Y0145273D01*
X0211626Y0145249D01*
X0211466Y0145229D01*
X0211306Y0145213D01*
X0211146Y0145201D01*
X0210985Y0145193D01*
X0210824Y0145189D01*
X0210664Y0145189D01*
X0210503Y0145193D01*
X0210342Y0145201D01*
X0210182Y0145213D01*
X0210022Y0145229D01*
X0209862Y0145249D01*
X0209703Y0145273D01*
X0209545Y0145301D01*
X0209387Y0145332D01*
X0209231Y0145368D01*
X0209075Y0145407D01*
X0208920Y0145450D01*
X0208766Y0145497D01*
X0208613Y0145548D01*
X0208462Y0145603D01*
X0208312Y0145661D01*
X0208164Y0145723D01*
X0208017Y0145789D01*
X0207872Y0145858D01*
X0207729Y0145931D01*
X0207587Y0146007D01*
X0207448Y0146087D01*
X0207310Y0146170D01*
X0207175Y0146257D01*
X0207041Y0146347D01*
X0206910Y0146440D01*
X0206782Y0146536D01*
X0206656Y0146636D01*
X0206532Y0146739D01*
X0206411Y0146844D01*
X0206292Y0146953D01*
X0206176Y0147064D01*
X0206063Y0147179D01*
X0205953Y0147296D01*
X0205846Y0147416D01*
X0205742Y0147538D01*
X0205641Y0147663D01*
X0205543Y0147791D01*
X0205448Y0147921D01*
X0205356Y0148053D01*
X0205268Y0148187D01*
X0205183Y0148324D01*
X0205101Y0148462D01*
X0205023Y0148603D01*
X0204949Y0148745D01*
X0204878Y0148889D01*
X0204810Y0149035D01*
X0204747Y0149183D01*
X0204686Y0149332D01*
X0204630Y0149483D01*
X0204577Y0149635D01*
X0204528Y0149788D01*
X0204483Y0149942D01*
X0204442Y0150097D01*
X0204404Y0150254D01*
X0204371Y0150411D01*
X0204341Y0150569D01*
X0204315Y0150728D01*
X0204294Y0150887D01*
X0204276Y0151047D01*
X0204262Y0151207D01*
X0204252Y0151368D01*
X0204246Y0151528D01*
X0204244Y0151689D01*
X0204244Y0029642D02*
X0204246Y0029803D01*
X0204252Y0029963D01*
X0204262Y0030124D01*
X0204276Y0030284D01*
X0204294Y0030444D01*
X0204315Y0030603D01*
X0204341Y0030762D01*
X0204371Y0030920D01*
X0204404Y0031077D01*
X0204442Y0031234D01*
X0204483Y0031389D01*
X0204528Y0031543D01*
X0204577Y0031696D01*
X0204630Y0031848D01*
X0204686Y0031999D01*
X0204747Y0032148D01*
X0204810Y0032296D01*
X0204878Y0032442D01*
X0204949Y0032586D01*
X0205023Y0032728D01*
X0205101Y0032869D01*
X0205183Y0033007D01*
X0205268Y0033144D01*
X0205356Y0033278D01*
X0205448Y0033410D01*
X0205543Y0033540D01*
X0205641Y0033668D01*
X0205742Y0033793D01*
X0205846Y0033915D01*
X0205953Y0034035D01*
X0206063Y0034152D01*
X0206176Y0034267D01*
X0206292Y0034378D01*
X0206411Y0034487D01*
X0206532Y0034592D01*
X0206656Y0034695D01*
X0206782Y0034795D01*
X0206910Y0034891D01*
X0207041Y0034984D01*
X0207175Y0035074D01*
X0207310Y0035161D01*
X0207448Y0035244D01*
X0207587Y0035324D01*
X0207729Y0035400D01*
X0207872Y0035473D01*
X0208017Y0035542D01*
X0208164Y0035608D01*
X0208312Y0035670D01*
X0208462Y0035728D01*
X0208613Y0035783D01*
X0208766Y0035834D01*
X0208920Y0035881D01*
X0209075Y0035924D01*
X0209231Y0035963D01*
X0209387Y0035999D01*
X0209545Y0036030D01*
X0209703Y0036058D01*
X0209862Y0036082D01*
X0210022Y0036102D01*
X0210182Y0036118D01*
X0210342Y0036130D01*
X0210503Y0036138D01*
X0210664Y0036142D01*
X0210824Y0036142D01*
X0210985Y0036138D01*
X0211146Y0036130D01*
X0211306Y0036118D01*
X0211466Y0036102D01*
X0211626Y0036082D01*
X0211785Y0036058D01*
X0211943Y0036030D01*
X0212101Y0035999D01*
X0212257Y0035963D01*
X0212413Y0035924D01*
X0212568Y0035881D01*
X0212722Y0035834D01*
X0212875Y0035783D01*
X0213026Y0035728D01*
X0213176Y0035670D01*
X0213324Y0035608D01*
X0213471Y0035542D01*
X0213616Y0035473D01*
X0213759Y0035400D01*
X0213901Y0035324D01*
X0214040Y0035244D01*
X0214178Y0035161D01*
X0214313Y0035074D01*
X0214447Y0034984D01*
X0214578Y0034891D01*
X0214706Y0034795D01*
X0214832Y0034695D01*
X0214956Y0034592D01*
X0215077Y0034487D01*
X0215196Y0034378D01*
X0215312Y0034267D01*
X0215425Y0034152D01*
X0215535Y0034035D01*
X0215642Y0033915D01*
X0215746Y0033793D01*
X0215847Y0033668D01*
X0215945Y0033540D01*
X0216040Y0033410D01*
X0216132Y0033278D01*
X0216220Y0033144D01*
X0216305Y0033007D01*
X0216387Y0032869D01*
X0216465Y0032728D01*
X0216539Y0032586D01*
X0216610Y0032442D01*
X0216678Y0032296D01*
X0216741Y0032148D01*
X0216802Y0031999D01*
X0216858Y0031848D01*
X0216911Y0031696D01*
X0216960Y0031543D01*
X0217005Y0031389D01*
X0217046Y0031234D01*
X0217084Y0031077D01*
X0217117Y0030920D01*
X0217147Y0030762D01*
X0217173Y0030603D01*
X0217194Y0030444D01*
X0217212Y0030284D01*
X0217226Y0030124D01*
X0217236Y0029963D01*
X0217242Y0029803D01*
X0217244Y0029642D01*
X0217242Y0029481D01*
X0217236Y0029321D01*
X0217226Y0029160D01*
X0217212Y0029000D01*
X0217194Y0028840D01*
X0217173Y0028681D01*
X0217147Y0028522D01*
X0217117Y0028364D01*
X0217084Y0028207D01*
X0217046Y0028050D01*
X0217005Y0027895D01*
X0216960Y0027741D01*
X0216911Y0027588D01*
X0216858Y0027436D01*
X0216802Y0027285D01*
X0216741Y0027136D01*
X0216678Y0026988D01*
X0216610Y0026842D01*
X0216539Y0026698D01*
X0216465Y0026556D01*
X0216387Y0026415D01*
X0216305Y0026277D01*
X0216220Y0026140D01*
X0216132Y0026006D01*
X0216040Y0025874D01*
X0215945Y0025744D01*
X0215847Y0025616D01*
X0215746Y0025491D01*
X0215642Y0025369D01*
X0215535Y0025249D01*
X0215425Y0025132D01*
X0215312Y0025017D01*
X0215196Y0024906D01*
X0215077Y0024797D01*
X0214956Y0024692D01*
X0214832Y0024589D01*
X0214706Y0024489D01*
X0214578Y0024393D01*
X0214447Y0024300D01*
X0214313Y0024210D01*
X0214178Y0024123D01*
X0214040Y0024040D01*
X0213901Y0023960D01*
X0213759Y0023884D01*
X0213616Y0023811D01*
X0213471Y0023742D01*
X0213324Y0023676D01*
X0213176Y0023614D01*
X0213026Y0023556D01*
X0212875Y0023501D01*
X0212722Y0023450D01*
X0212568Y0023403D01*
X0212413Y0023360D01*
X0212257Y0023321D01*
X0212101Y0023285D01*
X0211943Y0023254D01*
X0211785Y0023226D01*
X0211626Y0023202D01*
X0211466Y0023182D01*
X0211306Y0023166D01*
X0211146Y0023154D01*
X0210985Y0023146D01*
X0210824Y0023142D01*
X0210664Y0023142D01*
X0210503Y0023146D01*
X0210342Y0023154D01*
X0210182Y0023166D01*
X0210022Y0023182D01*
X0209862Y0023202D01*
X0209703Y0023226D01*
X0209545Y0023254D01*
X0209387Y0023285D01*
X0209231Y0023321D01*
X0209075Y0023360D01*
X0208920Y0023403D01*
X0208766Y0023450D01*
X0208613Y0023501D01*
X0208462Y0023556D01*
X0208312Y0023614D01*
X0208164Y0023676D01*
X0208017Y0023742D01*
X0207872Y0023811D01*
X0207729Y0023884D01*
X0207587Y0023960D01*
X0207448Y0024040D01*
X0207310Y0024123D01*
X0207175Y0024210D01*
X0207041Y0024300D01*
X0206910Y0024393D01*
X0206782Y0024489D01*
X0206656Y0024589D01*
X0206532Y0024692D01*
X0206411Y0024797D01*
X0206292Y0024906D01*
X0206176Y0025017D01*
X0206063Y0025132D01*
X0205953Y0025249D01*
X0205846Y0025369D01*
X0205742Y0025491D01*
X0205641Y0025616D01*
X0205543Y0025744D01*
X0205448Y0025874D01*
X0205356Y0026006D01*
X0205268Y0026140D01*
X0205183Y0026277D01*
X0205101Y0026415D01*
X0205023Y0026556D01*
X0204949Y0026698D01*
X0204878Y0026842D01*
X0204810Y0026988D01*
X0204747Y0027136D01*
X0204686Y0027285D01*
X0204630Y0027436D01*
X0204577Y0027588D01*
X0204528Y0027741D01*
X0204483Y0027895D01*
X0204442Y0028050D01*
X0204404Y0028207D01*
X0204371Y0028364D01*
X0204341Y0028522D01*
X0204315Y0028681D01*
X0204294Y0028840D01*
X0204276Y0029000D01*
X0204262Y0029160D01*
X0204252Y0029321D01*
X0204246Y0029481D01*
X0204244Y0029642D01*
M02*
